<svg width="32" height="32" viewBox="0 0 32 32" fill="none" xmlns="http://www.w3.org/2000/svg">
<path d="M32 23.9098C32 22.3521 31.0071 20.9745 29.5297 20.4821L24.2581 18.7245V17.6552C25.3987 16.9095 26.2523 15.7646 26.6265 14.4206C27.905 14.2684 28.9032 13.1898 28.9032 11.871V7.24017C28.9032 3.24798 25.6552 0 21.6636 0C19.2593 0 17.026 1.18347 15.6764 3.1686C14.3374 3.59425 13.4194 4.83619 13.4194 6.25706V11.871C13.4194 13.1898 14.4176 14.2684 15.6961 14.4206C16.0696 15.7651 16.9239 16.9095 18.0645 17.6552V18.7245L13.4194 20.2729V15.4839H12.3871V13.4194H1.03226V15.4839H0V32H13.4194V29.9355H32V23.9098ZM26.8112 24.0718L25.7316 25.151L26.2374 26.6678L23.9267 28.593L25.6759 20.2855L26.3664 20.5156L26.8112 24.0718ZM15.5113 24.0718L15.9556 20.5161L16.6462 20.286L18.3954 28.5935L16.0847 26.6683L16.5905 25.1515L15.5113 24.0718ZM21.1613 21.8911L22.5978 23.3274L21.8745 24.7742H20.4486L19.7253 23.3274L21.1613 21.8911ZM23.3672 24.097L23.7404 24.4703L23.0323 27.8349L22.7256 25.3805L23.3672 24.097ZM18.9554 24.097L19.5975 25.381L19.2908 27.8354L18.5827 24.4708L18.9554 24.097ZM20.5847 25.8064H21.7379L22.125 28.9032H20.1976L20.5847 25.8064ZM24.6905 19.9572L23.9942 23.2646L21.934 21.2041L23.8453 19.6754L24.6905 19.9572ZM26.817 13.3311C26.8279 13.1893 26.8387 13.0476 26.8387 12.9032V10.4176C27.438 10.6313 27.871 11.1991 27.871 11.871C27.871 12.5507 27.4277 13.1235 26.817 13.3311ZM16.125 4.11366L16.3185 4.06502L16.498 3.79612C17.6517 2.06552 19.5824 1.03226 21.6636 1.03226C25.0859 1.03226 27.871 3.81729 27.871 7.24017V9.81981C27.5696 9.59173 27.2223 9.42087 26.8387 9.34299V8.25806H26.2276C25.6094 8.25806 25.0726 7.83896 24.9224 7.23866C24.7684 6.62349 24.2177 6.19355 23.5834 6.19355C23.2145 6.19355 22.8677 6.33695 22.6074 6.59778L22.005 7.2001C21.3228 7.88231 20.4166 8.25806 19.4514 8.25806H15.4839V9.34249C15.1003 9.42087 14.753 9.59123 14.4516 9.8193V6.25655C14.4516 5.24118 15.1396 4.36038 16.125 4.11366ZM14.4516 11.871C14.4516 11.1991 14.8846 10.6313 15.4839 10.4176V12.9032C15.4839 13.0476 15.4947 13.1893 15.5055 13.3311C14.8949 13.1235 14.4516 12.5507 14.4516 11.871ZM16.5161 12.9032V9.29032H19.4514C20.692 9.29032 21.8586 8.80721 22.7354 7.92969L23.3382 7.32737C23.5154 7.14995 23.8601 7.24395 23.9216 7.48891C24.1512 8.41028 24.8982 9.09047 25.8064 9.25252V12.9032C25.8064 15.4642 23.7228 17.5484 21.1613 17.5484C18.5998 17.5484 16.5161 15.4642 16.5161 12.9032ZM21.1613 18.5806C21.8901 18.5806 22.5847 18.4378 23.2258 18.1862V18.8485L21.1613 20.5003L19.0968 18.8485V18.1862C19.7379 18.4378 20.4325 18.5806 21.1613 18.5806ZM18.4773 19.6754L20.3886 21.2041L18.3284 23.2646L17.6321 19.9572L18.4773 19.6754ZM2.06452 14.4516H11.3548V15.4839H2.06452V14.4516ZM8.25806 30.9677H5.16129V26.8387H8.25806V30.9677ZM12.3871 30.9677H9.29032V25.8064H4.12903V30.9677H1.03226V16.5161H12.3871V30.9677ZM13.4194 21.3611L14.8702 20.8775L14.4241 24.4443L15.409 25.4297L14.8826 27.0096L17.155 28.9032H13.4194V21.3611ZM30.9677 28.9032H25.1676L27.4395 27.0096L26.9131 25.4297L27.8977 24.4443L27.4519 20.8775L29.2026 21.4612C30.2586 21.8133 30.9677 22.7969 30.9677 23.9098V28.9032Z" fill="#313E70"/>
<path d="M19.0968 10.8387C19.0968 11.1237 18.8657 11.3548 18.5807 11.3548C18.2957 11.3548 18.0646 11.1237 18.0646 10.8387C18.0646 10.5537 18.2957 10.3226 18.5807 10.3226C18.8657 10.3226 19.0968 10.5537 19.0968 10.8387Z" fill="#313E70"/>
<path d="M24.2581 10.8387C24.2581 11.1237 24.027 11.3548 23.742 11.3548C23.4569 11.3548 23.2258 11.1237 23.2258 10.8387C23.2258 10.5537 23.4569 10.3226 23.742 10.3226C24.027 10.3226 24.2581 10.5537 24.2581 10.8387Z" fill="#313E70"/>
<path d="M23.2258 13.9355H22.1936C22.1936 14.5048 21.7306 14.9677 21.1613 14.9677C20.592 14.9677 20.1291 14.5048 20.1291 13.9355H19.0968C19.0968 15.0741 20.0227 16 21.1613 16C22.2999 16 23.2258 15.0741 23.2258 13.9355Z" fill="#313E70"/>
<path d="M11.3549 17.5484H2.06458V20.6452H11.3549V17.5484ZM7.22587 18.5806H8.25812V19.6129H7.22587V18.5806ZM6.19361 19.6129H5.16135V18.5806H6.19361V19.6129ZM3.09683 18.5806H4.12909V19.6129H3.09683V18.5806ZM10.3226 19.6129H9.29038V18.5806H10.3226V19.6129Z" fill="#313E70"/>
<path d="M11.3549 21.6774H2.06458V24.7742H11.3549V21.6774ZM7.22587 22.7097H8.25812V23.7419H7.22587V22.7097ZM6.19361 23.7419H5.16135V22.7097H6.19361V23.7419ZM3.09683 22.7097H4.12909V23.7419H3.09683V22.7097ZM10.3226 23.7419H9.29038V22.7097H10.3226V23.7419Z" fill="#313E70"/>
</svg>
