<svg width="32" height="32" viewBox="0 0 32 32" fill="none" xmlns="http://www.w3.org/2000/svg">
<g clip-path="url(#clip0)">
<path d="M5.31693 28.4332C5.20075 28.3169 5.0395 28.2501 4.87512 28.2501C4.71075 28.2501 4.5495 28.3169 4.43325 28.4332C4.317 28.5495 4.25012 28.7107 4.25012 28.8751C4.25012 29.0394 4.31693 29.2007 4.43325 29.3169C4.5495 29.4331 4.71075 29.5001 4.87512 29.5001C5.0395 29.5001 5.20075 29.4332 5.31693 29.3169C5.43318 29.2007 5.50012 29.0394 5.50012 28.8751C5.50012 28.7107 5.43325 28.5494 5.31693 28.4332Z" fill="#313E70"/>
<path d="M29.3452 11.4336C29.2289 11.3173 29.0683 11.2505 28.9033 11.2505C28.7389 11.2505 28.5777 11.3173 28.4614 11.4336C28.3453 11.5499 28.2783 11.7111 28.2783 11.8755C28.2783 12.0399 28.3452 12.2011 28.4614 12.3173C28.5777 12.4336 28.7389 12.5005 28.9033 12.5005C29.0683 12.5005 29.2289 12.4336 29.3452 12.3173C29.462 12.2011 29.5289 12.0399 29.5289 11.8755C29.5289 11.7111 29.462 11.5499 29.3452 11.4336Z" fill="#313E70"/>
<path d="M31.8166 0.183062C31.6994 0.065875 31.5404 0 31.3746 0L15.9999 0.0008125C15.6548 0.0008125 15.375 0.280687 15.375 0.625812V2.41313L9.45068 4.00056C9.11724 4.08994 8.91936 4.43262 9.00874 4.766L12.0792 16.2249L9.42299 18.8811C9.08493 18.3874 8.5173 18.0628 7.87524 18.0628H1.87543C0.841551 18.0628 0.000488281 18.9039 0.000488281 19.9377V30.125C0.000488281 31.1589 0.841551 32 1.87543 32H7.8753C8.75361 32 9.49249 31.3927 9.69499 30.5763L10.4381 31.2243C11.0118 31.7246 11.7468 32.0001 12.508 32.0001H31.3747C31.7198 32.0001 31.9997 31.7202 31.9997 31.3751V0.625C31.9995 0.45925 31.9338 0.30025 31.8166 0.183062ZM8.50018 30.1251C8.50018 30.4696 8.2198 30.7501 7.87518 30.7501H1.87536C1.53074 30.7501 1.25036 30.4697 1.25036 30.1251V19.9378C1.25036 19.5932 1.53074 19.3128 1.87536 19.3128H4.2503V26.5125C4.2503 26.8576 4.53018 27.1375 4.8753 27.1375C5.22043 27.1375 5.5003 26.8576 5.5003 26.5125V19.3128H7.87524C8.21986 19.3128 8.50024 19.5932 8.50024 19.9378V30.1251H8.50018ZM10.3779 5.04619L15.375 3.70719V6.02313L14.9561 6.13538C14.7959 6.17831 14.6595 6.283 14.5766 6.42656C14.4937 6.57012 14.4712 6.74069 14.5142 6.90081C14.7544 7.79712 14.2206 8.72169 13.3242 8.96187C13.1639 9.00488 13.0272 9.10975 12.9444 9.25362C12.8616 9.39744 12.8393 9.56831 12.8826 9.72856L15.3188 18.7497H14.0644L13.418 16.2207C13.3974 16.1402 13.3614 16.066 13.3132 16.0015L10.3779 5.04619ZM15.375 8.88931V14.1631L14.2351 9.94219C14.7112 9.69631 15.1009 9.32844 15.375 8.88931ZM24.354 30.75H12.5079C12.0488 30.75 11.6055 30.5839 11.2595 30.2822L9.75018 28.9659V20.3217L12.4788 17.5931L12.9737 19.5293C13.0444 19.806 13.2936 19.9995 13.5792 19.9995L25.8669 20.0002C26.3494 20.0002 26.7419 20.3927 26.7419 20.8752C26.7419 21.3577 26.3494 21.7502 25.8669 21.7502H19.5707C19.2256 21.7502 18.9457 22.0301 18.9457 22.3752C18.9457 22.7204 19.2256 23.0002 19.5707 23.0002H27.8232C28.3057 23.0002 28.6982 23.3927 28.6982 23.8752C28.6982 24.3577 28.3057 24.7502 27.8232 24.7502H19.5707C19.2256 24.7502 18.9457 25.0301 18.9457 25.3752C18.9457 25.7204 19.2256 26.0002 19.5707 26.0002H26.4859C26.9684 26.0002 27.3609 26.3927 27.3609 26.8752C27.3609 27.3577 26.9684 27.7502 26.4859 27.7502H19.5707C19.2256 27.7502 18.9457 28.0301 18.9457 28.3752C18.9457 28.7204 19.2256 29.0002 19.5707 29.0002H24.354C24.8365 29.0002 25.229 29.3927 25.229 29.8752C25.2289 30.3575 24.8364 30.75 24.354 30.75ZM30.7497 30.75H30.7496H26.2897C26.4109 30.4829 26.4789 30.1869 26.4789 29.875C26.4789 29.5631 26.4109 29.2671 26.2897 29H26.4859C27.6576 29 28.6108 28.0468 28.6108 26.8751C28.6108 26.5333 28.5292 26.2104 28.3852 25.924C29.285 25.6769 29.9481 24.8522 29.9481 23.8751C29.9481 23.4011 29.7919 22.9629 29.5286 22.6092V14.6879C29.5286 14.3428 29.2487 14.0629 28.9036 14.0629C28.5585 14.0629 28.2786 14.3428 28.2786 14.6879V21.7999C28.1317 21.7677 27.9794 21.7502 27.8231 21.7502H27.8026C27.9237 21.4832 27.9918 21.1871 27.9918 20.8752C27.9918 19.7035 27.0386 18.7503 25.8669 18.7503H24.8622C25.929 18.2928 26.6782 17.2324 26.6782 16C26.6782 14.3507 25.3365 13.0089 23.6872 13.0089C22.0379 13.0089 20.6961 14.3507 20.6961 16C20.6961 17.2324 21.4454 18.2928 22.5122 18.7503H19.0957V6.86644C20.2122 6.62313 21.0932 5.74219 21.3365 4.62563H26.0378C26.2811 5.74219 27.1621 6.62313 28.2786 6.86644V8.80956C28.2786 9.15469 28.5584 9.43456 28.9036 9.43456C29.2487 9.43456 29.5286 9.15469 29.5286 8.80956V6.30844C29.5286 5.96331 29.2487 5.68344 28.9036 5.68344C27.9756 5.68344 27.2208 4.9285 27.2208 4.00063C27.2208 3.6555 26.9409 3.37562 26.5958 3.37562H20.7786C20.4334 3.37562 20.1536 3.6555 20.1536 4.00063C20.1536 4.92856 19.3987 5.68344 18.4708 5.68344C18.1257 5.68344 17.8458 5.96331 17.8458 6.30844V18.7502H16.6251V1.25069L30.7497 1.25V30.75ZM23.6873 17.7411C22.7272 17.7411 21.9462 16.9601 21.9462 16.0001C21.9462 15.0401 22.7273 14.2589 23.6873 14.2589C24.6473 14.2589 25.4284 15.04 25.4284 16C25.4284 16.96 24.6474 17.7411 23.6873 17.7411Z" fill="#313E70"/>
</g>
<defs>
<clipPath id="clip0">
<rect width="32" height="32" fill="white"/>
</clipPath>
</defs>
</svg>
