<svg width="32" height="32" viewBox="0 0 32 32" fill="none" xmlns="http://www.w3.org/2000/svg">
<g clip-path="url(#clip0)">
<path d="M6.7627 14.5985C6.7627 18.8023 10.1704 22.21 14.3741 22.21C18.5779 22.21 21.9856 18.8023 21.9856 14.5985C21.9856 10.3948 18.5779 6.98706 14.3741 6.98706C10.1724 6.99167 6.76756 10.3968 6.7627 14.5985ZM14.3741 8.03685C17.9981 8.03685 20.9358 10.9745 20.9358 14.5985C20.9358 18.2225 17.9981 21.1602 14.3741 21.1602C10.7501 21.1602 7.81248 18.2225 7.81248 14.5985C7.81658 10.9763 10.7519 8.04095 14.3741 8.03685Z" fill="#313E70"/>
<path d="M24.5732 23.504L20.4614 25.4468C19.8938 24.3908 18.8048 23.7188 17.6063 23.685L13.8106 23.5807C13.2096 23.5635 12.6198 23.4113 12.0855 23.1352L11.6992 22.9351C9.72166 21.9042 7.36451 21.9068 5.38899 22.9417L5.41308 22.0667C5.42103 21.7769 5.19267 21.5354 4.9028 21.5275L0.740567 21.4129C0.450697 21.405 0.209523 21.6333 0.201578 21.9232L-0.0498476 31.0571C-0.0577927 31.3469 0.170566 31.5884 0.460436 31.5963L4.62267 31.7109H4.63702C4.92151 31.7109 5.15422 31.4846 5.16191 31.2003L5.17396 30.7633L6.25527 30.1844C6.67969 29.956 7.17588 29.9017 7.63952 30.0329L14.0966 31.8452C14.1079 31.8485 14.1192 31.8511 14.1307 31.8536C14.5974 31.9513 15.0731 32.0002 15.5498 32C16.5596 32.0005 17.5576 31.7829 18.4754 31.3615C18.498 31.3513 18.5198 31.3392 18.5405 31.3256L27.9027 25.2699C28.136 25.1189 28.2113 24.8127 28.0747 24.5707C27.3796 23.3374 25.838 22.8677 24.5732 23.504ZM1.01403 30.5614L1.2365 22.4768L4.3492 22.5624L4.12674 30.6472L1.01403 30.5614ZM18.0026 30.424C16.8623 30.9386 15.5888 31.0806 14.3632 30.8302L7.92349 29.0226C7.19869 28.8178 6.42289 28.9026 5.75985 29.2591L5.20728 29.5552L5.35516 24.1799C7.10617 23.0153 9.35183 22.8956 11.2166 23.8672L11.6029 24.0674C12.2779 24.4159 13.0225 24.6082 13.7819 24.6302L17.5779 24.7345C18.6441 24.7653 19.5496 25.5244 19.7659 26.5691L14.1117 26.413C13.8219 26.405 13.5807 26.6337 13.5725 26.9233C13.5645 27.2131 13.7932 27.4546 14.0828 27.4625L20.3225 27.6342H20.3371C20.6214 27.634 20.8538 27.4077 20.8615 27.1237C20.8679 26.8956 20.851 26.6672 20.8108 26.4427L25.0281 24.45C25.0322 24.4482 25.0363 24.4462 25.0404 24.4441C25.6386 24.1414 26.3619 24.2427 26.854 24.6981L18.0026 30.424Z" fill="#313E70"/>
<path d="M14.899 5.51137V0.524892C14.899 0.235023 14.664 0 14.3741 0C14.0843 0 13.8492 0.235023 13.8492 0.524892V5.51137C13.8492 5.80124 14.0843 6.03626 14.3741 6.03626C14.664 6.03626 14.899 5.80124 14.899 5.51137Z" fill="#313E70"/>
<path d="M18.8358 5.51142V3.1494C18.8358 2.85953 18.6008 2.62451 18.3109 2.62451C18.021 2.62451 17.786 2.85953 17.786 3.1494V5.51142C17.786 5.80129 18.021 6.03631 18.3109 6.03631C18.6008 6.03631 18.8358 5.80129 18.8358 5.51142Z" fill="#313E70"/>
<path d="M10.9624 5.51142V3.1494C10.9624 2.85953 10.7274 2.62451 10.4375 2.62451C10.1476 2.62451 9.9126 2.85953 9.9126 3.1494V5.51142C9.9126 5.80129 10.1476 6.03631 10.4375 6.03631C10.7274 6.03631 10.9624 5.80129 10.9624 5.51142Z" fill="#313E70"/>
<path d="M12.8161 18V16.6667H12V16.0294H12.8161V15.1569H12V14.4118H12.8161V11H14.5797C15.399 11 16.0056 11.1732 16.3996 11.5196C16.7999 11.866 17 12.3693 17 13.0294C17 13.6961 16.7842 14.219 16.3527 14.598C15.9212 14.9706 15.2864 15.1569 14.4484 15.1569H13.6604V16.0294H15.2083V16.6667H13.6604V18H12.8161ZM13.6604 14.4118H14.3265C14.8956 14.4118 15.3365 14.3137 15.6492 14.1176C15.9681 13.9216 16.1276 13.5686 16.1276 13.0588C16.1276 12.6144 15.9962 12.2843 15.7336 12.0686C15.4709 11.8529 15.0613 11.7451 14.5047 11.7451H13.6604V14.4118Z" fill="#313E70"/>
</g>
<defs>
<clipPath id="clip0">
<rect width="32" height="32" fill="white"/>
</clipPath>
</defs>
</svg>
