<svg width="32" height="32" viewBox="0 0 32 32" fill="none" xmlns="http://www.w3.org/2000/svg">
<g clip-path="url(#clip0)">
<path d="M13.4629 1.42075C13.4167 1.09448 13.6438 0.792464 13.9701 0.746383C14.2969 0.699905 14.5984 0.927325 14.6446 1.25367L15.5895 7.93438C15.6357 8.26066 15.4086 8.56267 15.0823 8.60875C15.0539 8.6128 15.0257 8.61472 14.998 8.61472C14.7054 8.61472 14.45 8.3995 14.4079 8.10147L13.4629 1.42075ZM29.1933 3.7055L28.726 4.17267C28.493 4.40573 28.493 4.78352 28.726 5.01658C28.9592 5.24963 29.3369 5.24957 29.57 5.01658L30.0372 4.5494L30.5043 5.01658C30.6208 5.13314 30.7735 5.19135 30.9262 5.19135C31.0789 5.19135 31.2316 5.13307 31.3482 5.01658C31.5813 4.78352 31.5813 4.40573 31.3482 4.17267L30.881 3.7055L31.3484 3.23813C31.5815 3.00507 31.5815 2.62727 31.3484 2.39422C31.1153 2.1611 30.7375 2.16116 30.5044 2.39422L30.0371 2.86152L29.5698 2.39422C29.3368 2.16116 28.959 2.16116 28.7258 2.39422C28.4928 2.62727 28.4928 3.00507 28.7258 3.23813L29.1933 3.7055ZM11.8781 11.4569C11.9955 11.6103 12.1728 11.6908 12.3522 11.6908C12.4788 11.6908 12.6064 11.6507 12.7147 11.5677C12.9762 11.3673 13.0258 10.9928 12.8255 10.7311L7.5576 3.85528C7.35717 3.59371 6.98262 3.54411 6.72099 3.74448C6.45942 3.94492 6.40982 4.31946 6.61019 4.5811L11.8781 11.4569ZM2.08367 5.88349L2.28119 6.03533C2.38959 6.1186 2.51743 6.15892 2.64433 6.15892C2.82335 6.15892 3.00045 6.07869 3.118 5.92573C3.31877 5.66443 3.2697 5.28975 3.0084 5.08898L2.81088 4.93715C2.54945 4.73625 2.17484 4.78538 1.97414 5.04668C1.77324 5.30805 1.82237 5.68273 2.08367 5.88349ZM1.57957 13.2794C1.25289 13.2359 0.952869 13.4659 0.909639 13.7926C0.86641 14.1193 1.09615 14.4192 1.42283 14.4625L7.52558 15.2706C7.55216 15.2741 7.57862 15.2758 7.60468 15.2758C7.89939 15.2758 8.15572 15.0575 8.19544 14.7574C8.23867 14.4306 8.00893 14.1308 7.68225 14.0875L1.57957 13.2794ZM4.02888 7.37863L9.82941 11.8365C9.93782 11.9197 10.0657 11.9601 10.1926 11.9601C10.3716 11.9601 10.5487 11.8798 10.6662 11.7269C10.8671 11.4656 10.8181 11.0909 10.5568 10.8901L4.75616 6.43235C4.49492 6.23158 4.12024 6.28058 3.91941 6.54188C3.71851 6.80318 3.76751 7.1778 4.02888 7.37863ZM16.8628 8.67081C16.89 8.67453 16.917 8.67632 16.9438 8.67632C17.2377 8.67632 17.4937 8.45911 17.5343 8.15968L18.4483 1.42109C18.4927 1.09454 18.2638 0.793856 17.9372 0.749566C17.61 0.705275 17.3101 0.934088 17.2657 1.2607L16.3517 7.99929C16.3074 8.3259 16.5363 8.62652 16.8628 8.67081ZM30.4663 17.1043L22.2819 16.0206C21.9554 15.9777 21.6553 16.207 21.612 16.5338C21.5687 16.8605 21.7985 17.1605 22.1252 17.2037L30.3096 18.2874C30.3361 18.2909 30.3625 18.2927 30.3887 18.2927C30.6833 18.2927 30.9397 18.0743 30.9794 17.7742C31.0228 17.4475 30.793 17.1476 30.4663 17.1043ZM30.9824 13.8151C30.9396 13.4883 30.6399 13.2583 30.3133 13.3008L24.1727 14.1046C23.8459 14.1474 23.6157 14.447 23.6585 14.7738C23.6978 15.0743 23.9543 15.2931 24.2494 15.2931C24.2752 15.2931 24.3013 15.2915 24.3276 15.288L30.4682 14.4842C30.795 14.4414 31.0252 14.1419 30.9824 13.8151ZM27.1469 6.44906L21.3697 10.8753C21.1081 11.0757 21.0585 11.4502 21.2589 11.7119C21.3764 11.8652 21.5537 11.9457 21.733 11.9457C21.8596 11.9457 21.9872 11.9056 22.0955 11.8227L27.8727 7.39647C28.1343 7.19603 28.1839 6.82148 27.9835 6.55985C27.7831 6.29822 27.4085 6.24862 27.1469 6.44906ZM25.5508 3.27592C25.6593 3.35933 25.7872 3.39971 25.9142 3.39971C26.0931 3.39971 26.2701 3.31955 26.3877 3.16678L26.4403 3.09836C26.6412 2.83712 26.5923 2.46244 26.3312 2.26154C26.0698 2.06058 25.6952 2.10951 25.4944 2.37068L25.4417 2.4391C25.2407 2.70041 25.2896 3.07502 25.5508 3.27592ZM26.613 1.89297C26.7215 1.97644 26.8495 2.01689 26.9765 2.01689C27.1554 2.01689 27.3323 1.93679 27.4498 1.7841L27.5055 1.71182C27.7065 1.45066 27.6578 1.07598 27.3965 0.874945C27.1354 0.673914 26.7607 0.722713 26.5597 0.983815L26.5041 1.05609C26.3031 1.31732 26.3519 1.692 26.613 1.89297ZM19.2113 11.5327C19.3197 11.616 19.4475 11.6563 19.5745 11.6563C19.7535 11.6563 19.9306 11.5761 20.0481 11.4232L25.2956 4.59495C25.4965 4.33365 25.4474 3.95897 25.1862 3.75814C24.9249 3.55738 24.5502 3.60637 24.3494 3.86767L19.1019 10.6959C18.901 10.9573 18.95 11.332 19.2113 11.5327ZM1.17366 4.43092C1.37436 4.16955 1.32523 3.79494 1.06393 3.59417L0.960229 3.51448C0.698795 3.31371 0.324248 3.36291 0.123482 3.62421C-0.0772179 3.88558 -0.0280873 4.26019 0.233214 4.46096L0.336912 4.54065C0.445318 4.62386 0.573151 4.66418 0.699989 4.66418C0.879074 4.66418 1.05617 4.58388 1.17366 4.43092ZM19.7512 20.4281C19.8102 20.6672 19.7164 20.918 19.5149 21.0595C19.3134 21.2011 19.0458 21.2044 18.8408 21.0677L16.0455 19.2037L13.0325 21.0779C12.9357 21.1381 12.8264 21.168 12.7174 21.168C12.5909 21.168 12.4647 21.1279 12.359 21.0484C12.1621 20.9005 12.0762 20.6468 12.1429 20.4098L13.0518 17.1753L10.3384 14.889C10.15 14.7303 10.0785 14.4723 10.1583 14.2394C10.2381 14.0064 10.4527 13.8464 10.6988 13.8364L14.0559 13.7014L15.3919 10.4141C15.4846 10.186 15.707 10.0394 15.9541 10.0422C16.2004 10.0461 16.4189 10.2008 16.5043 10.4318L17.67 13.5828L21.2093 13.8375C21.4549 13.8552 21.6644 14.0219 21.7368 14.2573C21.8092 14.4927 21.7296 14.7484 21.5363 14.901L18.8997 16.9834L19.7512 20.4281ZM17.8583 16.2851L19.5898 14.9175L17.2009 14.7455C16.9675 14.7287 16.7654 14.577 16.6842 14.3574L15.9185 12.288L15.0167 14.5069C14.9286 14.7238 14.7218 14.869 14.4878 14.8785L12.2831 14.9672L14.1147 16.5104C14.2937 16.6613 14.3679 16.9029 14.3046 17.1283L13.7076 19.2525L15.7415 17.9874C15.9402 17.8638 16.1929 17.8677 16.3877 17.9976L18.2235 19.2218L17.6488 16.8966C17.5927 16.6693 17.6746 16.4301 17.8583 16.2851ZM27.7312 30.1873C27.5307 29.9258 27.1561 29.8763 26.8946 30.0768C26.633 30.2773 26.5836 30.6519 26.7841 30.9134L26.8703 31.0259C26.9878 31.1792 27.1651 31.2597 27.3443 31.2597C27.471 31.2597 27.5987 31.2195 27.707 31.1365C27.9685 30.936 28.018 30.5614 27.8175 30.2999L27.7312 30.1873ZM1.58878 11.5722L2.05596 11.105L2.52313 11.5722C2.63969 11.6887 2.79239 11.747 2.94508 11.747C3.09778 11.747 3.25048 11.6887 3.36704 11.5722C3.60009 11.3391 3.60009 10.9613 3.36704 10.7283L2.8998 10.261L3.3671 9.79373C3.60016 9.56067 3.60016 9.18287 3.3671 8.94982C3.13398 8.71676 2.75625 8.71683 2.52313 8.94982L2.05589 9.41706L1.58865 8.94982C1.3556 8.71676 0.977866 8.71676 0.744677 8.94982C0.511621 9.18287 0.511621 9.56067 0.744677 9.79373L1.21198 10.261L0.744743 10.7283C0.511687 10.9613 0.511687 11.3391 0.744743 11.5722C0.977932 11.8052 1.35573 11.8052 1.58878 11.5722ZM26.5833 28.6882L26.4971 28.5756C26.2966 28.3141 25.9219 28.2646 25.6604 28.4651C25.3989 28.6656 25.3494 29.0402 25.5499 29.3017L25.6362 29.4142C25.7537 29.5675 25.9309 29.648 26.1102 29.648C26.2368 29.648 26.3645 29.6078 26.4728 29.5248C26.7344 29.3243 26.7838 28.9497 26.5833 28.6882ZM31.3579 21.7848L31.8252 21.3175C32.0583 21.0844 32.0583 20.7066 31.8252 20.4736C31.5921 20.2405 31.2144 20.2406 30.9813 20.4736L30.514 20.9408L30.0467 20.4735C29.8136 20.2405 29.4359 20.2405 29.2028 20.4735C28.9697 20.7066 28.9697 21.0844 29.2028 21.3174L29.6701 21.7847L29.2029 22.2519C28.9698 22.485 28.9698 22.8628 29.2029 23.0958C29.436 23.3289 29.8137 23.3289 30.0469 23.0958L30.514 22.6286L30.9812 23.0958C31.0978 23.2124 31.2505 23.2706 31.4032 23.2706C31.5559 23.2706 31.7086 23.2123 31.8251 23.0958C32.0582 22.8628 32.0582 22.485 31.8251 22.2519L31.3579 21.7848ZM27.8602 24.1882L22.2995 19.9146C22.0383 19.7138 21.6636 19.7628 21.4628 20.0241C21.2619 20.2854 21.3109 20.66 21.5722 20.8609L27.133 25.1345C27.2414 25.2178 27.3692 25.2582 27.4962 25.2582C27.6752 25.2582 27.8522 25.1779 27.9698 25.025C28.1705 24.7637 28.1215 24.3891 27.8602 24.1882ZM22.312 23.1133C22.1115 22.8516 21.737 22.802 21.4754 23.0025C21.2138 23.203 21.1642 23.5775 21.3646 23.8391L24.3315 27.7116C24.449 27.865 24.6263 27.9455 24.8057 27.9455C24.9322 27.9455 25.0599 27.9054 25.1681 27.8224C25.4297 27.622 25.4793 27.2475 25.2789 26.9858L22.312 23.1133ZM10.4483 19.9943C10.2479 19.7328 9.87331 19.6831 9.61167 19.8836L4.01634 24.1705C3.75478 24.3709 3.70518 24.7454 3.90555 25.0071C4.02304 25.1604 4.20034 25.2409 4.37969 25.2409C4.50626 25.2409 4.63389 25.2008 4.74217 25.1179L10.3375 20.831C10.5991 20.6305 10.6487 20.256 10.4483 19.9943ZM4.38254 27.8989C4.14948 27.6658 3.77168 27.6658 3.53863 27.8989L3.07126 28.3662L2.60402 27.899C2.3709 27.6659 1.99317 27.6659 1.76004 27.899C1.52699 28.132 1.52699 28.5098 1.76004 28.7429L2.22728 29.2101L1.76011 29.6773C1.52699 29.9103 1.52699 30.2881 1.76004 30.5212C1.9931 30.7542 2.3709 30.7542 2.60395 30.5212L3.07126 30.0539L3.53843 30.5211C3.65499 30.6376 3.80769 30.6959 3.96038 30.6959C4.11308 30.6959 4.26578 30.6376 4.38234 30.5211C4.61539 30.2881 4.61539 29.9103 4.38234 29.6772L3.91517 29.21L4.3824 28.7428C4.61559 28.5098 4.61559 28.1319 4.38254 27.8989ZM10.2206 16.5327C10.1778 16.2058 9.87709 15.976 9.55147 16.0184L1.42097 17.0826C1.09416 17.1254 0.863957 17.425 0.906722 17.7518C0.94604 18.0523 1.2025 18.2711 1.49762 18.2711C1.52347 18.2711 1.5496 18.2695 1.57585 18.266L9.70635 17.2018C10.0332 17.159 10.2634 16.8594 10.2206 16.5327ZM17.5343 23.5304C17.49 23.2038 17.1885 22.9751 16.8628 23.0193C16.5363 23.0636 16.3074 23.3643 16.3517 23.6908L17.2657 30.4294C17.3063 30.7288 17.5623 30.946 17.8562 30.946C17.8829 30.946 17.9101 30.9443 17.9372 30.9405C18.2638 30.8963 18.4927 30.5956 18.4483 30.269L17.5343 23.5304ZM15.0823 23.0814C14.7565 23.0352 14.454 23.2624 14.4079 23.5887L13.4629 30.2693C13.4167 30.5956 13.6438 30.8976 13.9701 30.9437C13.9985 30.9478 14.0267 30.9497 14.0545 30.9497C14.3469 30.9497 14.6024 30.7344 14.6445 30.4365L15.5894 23.7559C15.6357 23.4295 15.4086 23.1275 15.0823 23.0814ZM10.4028 22.9944C10.1416 22.7937 9.76676 22.8427 9.56606 23.104L6.59355 26.9718C6.39272 27.2331 6.44178 27.6078 6.70302 27.8086C6.81142 27.8919 6.93926 27.9322 7.06623 27.9322C7.24524 27.9322 7.42234 27.852 7.53983 27.6991L10.5123 23.8312C10.7131 23.5699 10.6641 23.1953 10.4028 22.9944Z" fill="#313E70"/>
</g>
<defs>
<clipPath id="clip0">
<rect width="32" height="32" fill="white"/>
</clipPath>
</defs>
</svg>
