<svg width="32" height="32" viewBox="0 0 32 32" fill="none" xmlns="http://www.w3.org/2000/svg">
<path d="M6.40007 14.4001H3.73339C3.43882 14.4001 3.20007 14.639 3.20007 14.9335C3.20007 15.228 3.43889 15.4668 3.73339 15.4668H6.40007C6.69463 15.4668 6.93338 15.228 6.93338 14.9335C6.93338 14.639 6.69463 14.4001 6.40007 14.4001Z" fill="#313E70"/>
<path d="M6.40007 16.5332H3.73339C3.43882 16.5332 3.20007 16.772 3.20007 17.0665C3.20007 17.3611 3.43889 17.5998 3.73339 17.5998H6.40007C6.69463 17.5998 6.93338 17.361 6.93338 17.0665C6.93338 16.772 6.69463 16.5332 6.40007 16.5332Z" fill="#313E70"/>
<path d="M6.40007 18.6667H3.73339C3.43882 18.6667 3.20007 18.9056 3.20007 19.2001C3.20007 19.4946 3.43889 19.7334 3.73339 19.7334H6.40007C6.69463 19.7334 6.93338 19.4946 6.93338 19.2001C6.93338 18.9056 6.69463 18.6667 6.40007 18.6667Z" fill="#313E70"/>
<path d="M6.40007 20.7998H3.73339C3.43882 20.7998 3.20007 21.0386 3.20007 21.3331C3.20007 21.6277 3.43889 21.8664 3.73339 21.8664H6.40007C6.69463 21.8664 6.93338 21.6276 6.93338 21.3331C6.93338 21.0386 6.69463 20.7998 6.40007 20.7998Z" fill="#313E70"/>
<path d="M6.40007 22.9331H3.73339C3.43882 22.9331 3.20007 23.1719 3.20007 23.4664C3.20007 23.7609 3.43889 23.9998 3.73339 23.9998H6.40007C6.69463 23.9998 6.93338 23.761 6.93338 23.4665C6.93338 23.172 6.69463 22.9331 6.40007 22.9331Z" fill="#313E70"/>
<path d="M6.40007 25.0669H3.73339C3.43882 25.0669 3.20007 25.3057 3.20007 25.6002C3.20007 25.8947 3.43889 26.1335 3.73339 26.1335H6.40007C6.69463 26.1335 6.93338 25.8947 6.93338 25.6002C6.93338 25.3057 6.69463 25.0669 6.40007 25.0669Z" fill="#313E70"/>
<path d="M6.40007 27.2002H3.73339C3.43882 27.2002 3.20007 27.439 3.20007 27.7335C3.20007 28.028 3.43889 28.2668 3.73339 28.2668H6.40007C6.69463 28.2668 6.93338 28.028 6.93338 27.7335C6.93338 27.439 6.69463 27.2002 6.40007 27.2002Z" fill="#313E70"/>
<path d="M6.40007 29.3333H3.73339C3.43882 29.3333 3.20007 29.5721 3.20007 29.8666C3.20007 30.1611 3.43889 30.3999 3.73339 30.3999H6.40007C6.69463 30.3999 6.93338 30.1611 6.93338 29.8666C6.93338 29.5721 6.69463 29.3333 6.40007 29.3333Z" fill="#313E70"/>
<path d="M30.4 12.2667H24V6.93337C24 6.63881 23.7612 6.40006 23.4667 6.40006H20.8V3.73331C20.8 3.43875 20.5611 3.2 20.2666 3.2H16.5333V0H15.4666V3.2H11.7333C11.4388 3.2 11.2 3.43881 11.2 3.73331V6.4H8.53334C8.23877 6.4 8.00003 6.63881 8.00003 6.93331V12.2666H1.59996C1.3054 12.2666 1.06665 12.5054 1.06665 12.7999V31.4666C1.06665 31.7612 1.30546 31.9999 1.59996 31.9999H8.53328H23.4666H30.4C30.6945 31.9999 30.9333 31.7611 30.9333 31.4666V12.8C30.9333 12.5054 30.6945 12.2667 30.4 12.2667ZM7.99996 30.9333H2.13328V13.3333H7.99996V30.9333ZM12.2666 4.26669H19.7333V6.4H12.2666V4.26669ZM22.9333 12.8V30.9333H9.06665V12.8V7.46669H11.7333H20.2666H22.9333V12.8H22.9333ZM29.8666 30.9333H24V13.3333H29.8666V30.9333Z" fill="#313E70"/>
<path d="M28.2668 14.9331C27.9723 14.9331 27.7335 15.1719 27.7335 15.4664V29.343C27.7335 29.6375 27.9723 29.8763 28.2668 29.8763C28.5613 29.8763 28.8001 29.6375 28.8001 29.343V15.4665C28.8001 15.1719 28.5613 14.9331 28.2668 14.9331Z" fill="#313E70"/>
<path d="M25.6001 14.9331C25.3055 14.9331 25.0668 15.1719 25.0668 15.4664V29.343C25.0668 29.6375 25.3056 29.8763 25.6001 29.8763C25.8946 29.8763 26.1334 29.6375 26.1334 29.343V15.4665C26.1334 15.1719 25.8946 14.9331 25.6001 14.9331Z" fill="#313E70"/>
<path d="M14.3999 25.5999H10.6666C10.3721 25.5999 10.1333 25.8387 10.1333 26.1332V29.3332C10.1333 29.6277 10.3721 29.8665 10.6666 29.8665H14.3999C14.6945 29.8665 14.9332 29.6277 14.9332 29.3332V26.1332C14.9332 25.8387 14.6945 25.5999 14.3999 25.5999ZM13.8666 28.7999H11.1999V26.6665H13.8666V28.7999Z" fill="#313E70"/>
<path d="M14.3999 20.2666H10.6666C10.3721 20.2666 10.1333 20.5054 10.1333 20.7999V23.9999C10.1333 24.2945 10.3721 24.5332 10.6666 24.5332H14.3999C14.6945 24.5332 14.9332 24.2944 14.9332 23.9999V20.7999C14.9332 20.5054 14.6945 20.2666 14.3999 20.2666ZM13.8666 23.4666H11.1999V21.3333H13.8666V23.4666Z" fill="#313E70"/>
<path d="M14.3999 14.9331H10.6666C10.3721 14.9331 10.1333 15.1719 10.1333 15.4664V18.6664C10.1333 18.961 10.3721 19.1998 10.6666 19.1998H14.3999C14.6945 19.1998 14.9332 18.9609 14.9332 18.6664V15.4664C14.9332 15.1719 14.6945 14.9331 14.3999 14.9331ZM13.8666 18.1331H11.1999V15.9998H13.8666V18.1331Z" fill="#313E70"/>
<path d="M14.3999 9.59985H10.6666C10.3721 9.59985 10.1333 9.83867 10.1333 10.1332V13.3332C10.1333 13.6277 10.3721 13.8665 10.6666 13.8665H14.3999C14.6945 13.8665 14.9332 13.6277 14.9332 13.3332V10.1332C14.9332 9.83867 14.6945 9.59985 14.3999 9.59985ZM13.8666 12.7999H11.1999V10.6665H13.8666V12.7999Z" fill="#313E70"/>
<path d="M21.3333 25.5999H17.6C17.3054 25.5999 17.0667 25.8387 17.0667 26.1332V29.3332C17.0667 29.6277 17.3055 29.8665 17.6 29.8665H21.3333C21.6278 29.8665 21.8666 29.6277 21.8666 29.3332V26.1332C21.8667 25.8387 21.6278 25.5999 21.3333 25.5999ZM20.8 28.7999H18.1333V26.6665H20.8V28.7999Z" fill="#313E70"/>
<path d="M21.3333 20.2666H17.6C17.3054 20.2666 17.0667 20.5054 17.0667 20.7999V23.9999C17.0667 24.2945 17.3055 24.5332 17.6 24.5332H21.3333C21.6278 24.5332 21.8666 24.2944 21.8666 23.9999V20.7999C21.8667 20.5054 21.6278 20.2666 21.3333 20.2666ZM20.8 23.4666H18.1333V21.3333H20.8V23.4666Z" fill="#313E70"/>
<path d="M21.3333 14.9331H17.6C17.3054 14.9331 17.0667 15.1719 17.0667 15.4664V18.6664C17.0667 18.961 17.3055 19.1998 17.6 19.1998H21.3333C21.6278 19.1998 21.8666 18.9609 21.8666 18.6664V15.4664C21.8667 15.1719 21.6278 14.9331 21.3333 14.9331ZM20.8 18.1331H18.1333V15.9998H20.8V18.1331Z" fill="#313E70"/>
<path d="M21.3333 9.59985H17.6C17.3054 9.59985 17.0667 9.83867 17.0667 10.1332V13.3332C17.0667 13.6277 17.3055 13.8665 17.6 13.8665H21.3333C21.6278 13.8665 21.8666 13.6277 21.8666 13.3332V10.1332C21.8667 9.83867 21.6278 9.59985 21.3333 9.59985ZM20.8 12.7999H18.1333V10.6665H20.8V12.7999Z" fill="#313E70"/>
</svg>
