<svg width="32" height="32" viewBox="0 0 32 32" fill="none" xmlns="http://www.w3.org/2000/svg">
<g clip-path="url(#clip0)">
<path d="M14.0454 7.88231L11.871 7.33896V6.43095C12.5028 5.86366 12.9032 5.0436 12.9032 4.12903V3.09677C12.9032 1.38886 11.5144 0 9.80645 0C8.09854 0 6.70968 1.38886 6.70968 3.09677V4.12903C6.70968 5.04309 7.11013 5.86315 7.74194 6.43095V7.33896L5.56754 7.88281C4.41658 8.17036 3.6129 9.1996 3.6129 10.3861V18.5806H0V24.7742H5.67742V32H13.9355V10.3226H12.9032V16H6.70968V10.3226H5.67742V18.5806H4.64516V10.3861C4.64516 9.67439 5.12777 9.05645 5.81779 8.88357L8.09955 8.31376L8.75 8.96421L8.23387 13.6094L9.80645 15.1815L11.379 13.6089L10.8629 8.96371L11.5134 8.31326L13.7951 8.88306C14.4851 9.05645 14.9677 9.67439 14.9677 10.3861V19.0968H16V10.3861C16 9.1996 15.1963 8.17036 14.0454 7.88231ZM6.31628 19.6129L4.71119 20.9506C4.38558 21.2218 3.87298 21.2223 3.54738 20.9501L1.94229 19.6129H6.31628ZM1.03226 20.1986L2.88558 21.7429C3.23412 22.0335 3.6754 22.1935 4.12903 22.1935C4.58266 22.1935 5.02394 22.0335 5.37198 21.7434L7.22581 20.1986V23.7419H1.03226V20.1986ZM6.70968 17.0323H12.9032V30.9677H10.3226V19.0968H9.29032V30.9677H6.70968V24.7742H8.25806V18.5806H6.70968V17.0323ZM7.74194 3.09677C7.74194 1.95817 8.66784 1.03226 9.80645 1.03226C10.9451 1.03226 11.871 1.95817 11.871 3.09677V4.12903C11.871 5.26764 10.9451 6.19355 9.80645 6.19355C8.66784 6.19355 7.74194 5.26764 7.74194 4.12903V3.09677ZM9.80645 7.22581C10.1689 7.22581 10.5151 7.15978 10.8387 7.04511V7.52823L9.80645 8.56048L8.77419 7.52823V7.04511C9.09778 7.15978 9.44405 7.22581 9.80645 7.22581ZM9.80645 13.7218L9.31452 13.2298L9.80645 8.80317L10.2984 13.2298L9.80645 13.7218Z" fill="#313E70"/>
<path d="M30.0454 7.88231L27.871 7.33896V6.43095C28.5028 5.86366 28.9032 5.0436 28.9032 4.12903V3.09677C28.9032 1.38886 27.5144 0 25.8065 0C24.0985 0 22.7097 1.38886 22.7097 3.09677V4.12903C22.7097 5.0431 23.1101 5.86316 23.7419 6.43095V7.33896L21.5676 7.88281C20.4166 8.17036 19.6129 9.1996 19.6129 10.3861V19.0968H20.6452V10.3861C20.6452 9.6744 21.1278 9.05645 21.8178 8.88357L24.7742 8.14491V7.04511C25.0978 7.16028 25.4441 7.22581 25.8065 7.22581C26.1689 7.22581 26.5151 7.15978 26.8387 7.04511V8.14491L29.7951 8.88357C30.4851 9.05645 30.9678 9.6744 30.9678 10.3861V19.0968H32V10.3861C32 9.1996 31.1963 8.17036 30.0454 7.88231ZM23.7419 4.12903V3.09677C23.7419 1.95817 24.6679 1.03226 25.8065 1.03226C26.9451 1.03226 27.871 1.95817 27.871 3.09677V4.12903C27.871 5.26764 26.9451 6.19355 25.8065 6.19355C24.6679 6.19355 23.7419 5.26764 23.7419 4.12903Z" fill="#313E70"/>
<path d="M28.9032 15.9999H22.7096V10.3225H21.6774V31.9999H29.9354V10.3225H28.9032V15.9999ZM26.3225 30.9677V19.0967H25.2903V30.9677H22.7096V17.0322H28.9032V30.9677H26.3225Z" fill="#313E70"/>
<path d="M15.4839 5.16129H19.6898L21.6775 6.75151V1.03226C21.6775 0.462954 21.2145 0 20.6452 0H15.4839C14.9146 0 14.4517 0.462954 14.4517 1.03226V4.12903C14.4517 4.69834 14.9146 5.16129 15.4839 5.16129ZM15.4839 1.03226H20.6452V4.60333L20.0522 4.12903H15.4839V1.03226Z" fill="#313E70"/>
<path d="M16.5161 2.06445H17.5484V3.09671H16.5161V2.06445Z" fill="#313E70"/>
<path d="M18.5807 2.06445H19.6129V3.09671H18.5807V2.06445Z" fill="#313E70"/>
<rect width="1.1214" height="45.0781" transform="matrix(-0.707107 -0.707107 -0.707107 0.707107 32.543 0.792969)" fill="#313E70"/>
</g>
<defs>
<clipPath id="clip0">
<rect width="32" height="32" fill="white"/>
</clipPath>
</defs>
</svg>
