<?xml version="1.0" standalone="no"?>
<!DOCTYPE svg PUBLIC "-//W3C//DTD SVG 20010904//EN"
 "http://www.w3.org/TR/2001/REC-SVG-20010904/DTD/svg10.dtd">
<svg version="1.0" xmlns="http://www.w3.org/2000/svg"
 width="700.000000pt" height="700.000000pt" viewBox="0 0 700.000000 700.000000"
 preserveAspectRatio="xMidYMid meet">
<metadata>
Created by potrace 1.11, written by Peter Selinger 2001-2013
</metadata>
<g transform="translate(0.000000,700.000000) scale(0.100000,-0.100000)"
fill="#000000" stroke="none">
<path d="M3393 6796 c-137 -33 -54 44 -1644 -1545 -1372 -1373 -1478 -1481
-1506 -1541 -75 -157 -65 -332 25 -462 37 -53 2933 -2948 2982 -2981 95 -65
240 -91 347 -64 122 32 147 50 353 254 l195 193 -572 572 c-600 600 -603 604
-603 688 0 14 14 96 31 181 44 219 72 261 209 305 42 14 71 30 84 48 23 30 25
85 4 114 -7 11 -196 209 -420 441 -374 387 -408 425 -424 474 -16 52 -15 62
30 465 48 429 52 448 105 505 55 60 78 65 500 118 218 27 412 49 431 49 75 0
116 -32 370 -284 135 -134 255 -249 267 -255 35 -18 87 -13 124 12 33 22 43
42 85 162 21 61 84 126 139 142 63 19 456 65 499 58 21 -3 52 -13 70 -21 17
-9 346 -331 731 -715 l700 -699 103 102 c116 117 146 158 173 234 42 120 34
242 -24 364 -28 60 -134 169 -1506 1541 -1376 1375 -1480 1478 -1541 1506
-110 52 -211 64 -317 39z"/>
<path d="M3147 4340 c-136 -10 -262 -23 -280 -29 -48 -16 -102 -65 -126 -115
-18 -37 -24 -79 -36 -277 -20 -317 -19 -364 5 -413 13 -28 362 -384 1077
-1099 l1058 -1057 245 245 245 245 -415 413 c-228 227 -758 753 -1178 1168
-419 415 -762 761 -762 770 0 9 8 27 18 39 16 19 34 23 172 35 204 19 282 18
328 0 26 -11 346 -325 1089 -1068 l1053 -1052 27 28 28 27 -1055 1056 c-639
639 -1070 1063 -1094 1076 -55 28 -114 29 -399 8z"/>
<path d="M4749 4245 c-90 -15 -125 -32 -168 -81 -39 -44 -45 -60 -77 -189 -29
-122 -31 -185 -4 -239 13 -27 243 -264 687 -709 l668 -667 140 140 140 140
-735 735 -734 734 30 11 c132 51 219 57 289 23 17 -8 324 -308 682 -666 l653
-652 22 22 21 22 -311 318 c-589 603 -1035 1041 -1074 1058 -44 18 -124 18
-229 0z"/>
<path d="M3390 2261 c-85 -19 -113 -32 -153 -70 -41 -37 -57 -74 -73 -160 -14
-85 -7 -144 26 -196 11 -16 254 -265 542 -553 l523 -522 100 100 100 100 -585
585 c-321 321 -582 586 -580 589 14 12 148 46 184 46 88 0 113 -20 649 -539
279 -270 511 -491 516 -491 5 0 14 7 22 16 11 13 -57 85 -512 540 -288 289
-540 534 -559 544 -54 28 -115 31 -200 11z"/>
</g>
</svg>
