<svg width="275" height="279" viewBox="0 0 275 279" fill="none" xmlns="http://www.w3.org/2000/svg">
    <g class="diagram-group">
        <path d="M173.448 19.9999C145.283 11.8041 112.043 11.8713 86.448 24.9999C59.5409 36.6811 36.948 58.4999 23.948 84.9999L137.448 141.5L173.448 19.9999Z" fill="#313E70"/>
        <path d="M102.179 74.6042H93.9874V72.3642L98.4034 68.3642C99.0221 67.7776 99.3314 67.1962 99.3314 66.6202C99.3314 66.2149 99.2034 65.8896 98.9474 65.6442C98.6914 65.3882 98.3501 65.2602 97.9234 65.2602C97.4861 65.2602 97.1234 65.4202 96.8354 65.7402C96.5474 66.0496 96.3767 66.4602 96.3234 66.9722L93.7474 66.6202C93.8754 65.5002 94.3447 64.6149 95.1554 63.9642C95.9661 63.3029 96.9367 62.9722 98.0674 62.9722C99.1981 62.9722 100.163 63.2709 100.963 63.8682C101.763 64.4656 102.163 65.3242 102.163 66.4442C102.163 67.1696 101.993 67.7882 101.651 68.3002C101.321 68.8122 100.83 69.3562 100.179 69.9322L97.5554 72.2682H102.179V74.6042ZM113.035 72.3962H111.483V74.6042H108.971V72.3962H103.643V70.1402L108.251 63.2762H111.467V70.2202H113.035V72.3962ZM108.987 70.2202V66.0282H108.939L106.251 70.2202H108.987ZM126.915 69.6282C127.512 70.2149 127.811 70.9296 127.811 71.7722C127.811 72.6149 127.512 73.3296 126.915 73.9162C126.328 74.5029 125.614 74.7962 124.771 74.7962C123.928 74.7962 123.208 74.5029 122.611 73.9162C122.024 73.3296 121.731 72.6149 121.731 71.7722C121.731 70.9296 122.024 70.2149 122.611 69.6282C123.208 69.0416 123.928 68.7482 124.771 68.7482C125.614 68.7482 126.328 69.0416 126.915 69.6282ZM125.651 72.6522C125.896 72.4069 126.019 72.1136 126.019 71.7722C126.019 71.4309 125.896 71.1376 125.651 70.8922C125.406 70.6469 125.112 70.5242 124.771 70.5242C124.43 70.5242 124.136 70.6469 123.891 70.8922C123.646 71.1376 123.523 71.4309 123.523 71.7722C123.523 72.1136 123.646 72.4069 123.891 72.6522C124.136 72.8869 124.43 73.0042 124.771 73.0042C125.112 73.0042 125.406 72.8869 125.651 72.6522ZM120.131 66.1082C120.131 66.9402 119.832 67.6549 119.235 68.2522C118.648 68.8389 117.934 69.1322 117.091 69.1322C116.248 69.1322 115.528 68.8389 114.931 68.2522C114.344 67.6549 114.051 66.9402 114.051 66.1082C114.051 65.2656 114.344 64.5509 114.931 63.9642C115.528 63.3776 116.248 63.0842 117.091 63.0842C117.934 63.0842 118.648 63.3776 119.235 63.9642C119.832 64.5509 120.131 65.2656 120.131 66.1082ZM117.971 66.9882C118.216 66.7429 118.339 66.4496 118.339 66.1082C118.339 65.7669 118.216 65.4736 117.971 65.2282C117.726 64.9829 117.432 64.8602 117.091 64.8602C116.75 64.8602 116.456 64.9829 116.211 65.2282C115.966 65.4736 115.843 65.7669 115.843 66.1082C115.843 66.4496 115.966 66.7429 116.211 66.9882C116.456 67.2229 116.75 67.3402 117.091 67.3402C117.432 67.3402 117.726 67.2229 117.971 66.9882ZM124.995 63.4842L118.323 75.1482L116.899 74.4442L123.507 62.7642L124.995 63.4842Z" fill="white"/>
    </g>
    <g class="diagram-group">
        <path d="M224.679 232.546C236.787 220.941 246.462 207.039 253.137 191.653C259.812 176.267 263.354 159.705 263.556 142.934L137.333 141.412L224.679 232.546Z" fill="#D03030"/>
        <path d="M211.388 171.348C211.388 172.479 210.977 173.354 210.156 173.972C209.335 174.58 208.327 174.884 207.132 174.884C205.927 174.884 204.913 174.58 204.092 173.972C203.281 173.364 202.876 172.495 202.876 171.364C202.876 170.703 203.068 170.132 203.452 169.652C203.836 169.172 204.321 168.842 204.908 168.66V168.628C204.396 168.436 203.98 168.132 203.66 167.716C203.34 167.29 203.18 166.778 203.18 166.18C203.18 165.178 203.559 164.388 204.316 163.812C205.084 163.236 206.023 162.948 207.132 162.948C208.241 162.948 209.175 163.231 209.932 163.796C210.7 164.351 211.084 165.13 211.084 166.132C211.084 166.74 210.924 167.263 210.604 167.7C210.295 168.138 209.879 168.442 209.356 168.612V168.66C209.943 168.82 210.428 169.146 210.812 169.636C211.196 170.127 211.388 170.698 211.388 171.348ZM208.092 167.268C208.359 167.002 208.492 166.687 208.492 166.324C208.492 165.962 208.359 165.658 208.092 165.412C207.825 165.156 207.505 165.028 207.132 165.028C206.737 165.028 206.412 165.151 206.156 165.396C205.911 165.642 205.788 165.951 205.788 166.324C205.788 166.698 205.911 167.018 206.156 167.284C206.401 167.54 206.727 167.668 207.132 167.668C207.516 167.668 207.836 167.535 208.092 167.268ZM208.7 171.252C208.7 170.815 208.551 170.452 208.252 170.164C207.953 169.866 207.58 169.716 207.132 169.716C206.673 169.716 206.295 169.866 205.996 170.164C205.697 170.452 205.548 170.815 205.548 171.252C205.548 171.7 205.692 172.063 205.98 172.34C206.279 172.618 206.663 172.756 207.132 172.756C207.601 172.756 207.98 172.623 208.268 172.356C208.556 172.079 208.7 171.711 208.7 171.252ZM225.636 169.604C226.233 170.191 226.532 170.906 226.532 171.748C226.532 172.591 226.233 173.306 225.636 173.892C225.049 174.479 224.335 174.772 223.492 174.772C222.649 174.772 221.929 174.479 221.332 173.892C220.745 173.306 220.452 172.591 220.452 171.748C220.452 170.906 220.745 170.191 221.332 169.604C221.929 169.018 222.649 168.724 223.492 168.724C224.335 168.724 225.049 169.018 225.636 169.604ZM224.372 172.628C224.617 172.383 224.74 172.09 224.74 171.748C224.74 171.407 224.617 171.114 224.372 170.868C224.127 170.623 223.833 170.5 223.492 170.5C223.151 170.5 222.857 170.623 222.612 170.868C222.367 171.114 222.244 171.407 222.244 171.748C222.244 172.09 222.367 172.383 222.612 172.628C222.857 172.863 223.151 172.98 223.492 172.98C223.833 172.98 224.127 172.863 224.372 172.628ZM218.852 166.084C218.852 166.916 218.553 167.631 217.956 168.228C217.369 168.815 216.655 169.108 215.812 169.108C214.969 169.108 214.249 168.815 213.652 168.228C213.065 167.631 212.772 166.916 212.772 166.084C212.772 165.242 213.065 164.527 213.652 163.94C214.249 163.354 214.969 163.06 215.812 163.06C216.655 163.06 217.369 163.354 217.956 163.94C218.553 164.527 218.852 165.242 218.852 166.084ZM216.692 166.964C216.937 166.719 217.06 166.426 217.06 166.084C217.06 165.743 216.937 165.45 216.692 165.204C216.447 164.959 216.153 164.836 215.812 164.836C215.471 164.836 215.177 164.959 214.932 165.204C214.687 165.45 214.564 165.743 214.564 166.084C214.564 166.426 214.687 166.719 214.932 166.964C215.177 167.199 215.471 167.316 215.812 167.316C216.153 167.316 216.447 167.199 216.692 166.964ZM223.716 163.46L217.044 175.124L215.62 174.42L222.228 162.74L223.716 163.46Z" fill="white"/>
    </g>
    <g class="diagram-group">
        <path d="M24.0528 84.6626C10.7364 111.281 7.29518 141.736 14.3365 170.651C21.3778 199.565 38.449 225.081 62.5367 242.695C86.6244 260.308 116.18 268.886 145.986 266.915C175.792 264.944 203.933 252.55 225.441 231.921L137.492 141L24.0528 84.6626Z" fill="white"/>
        <path d="M91.5833 192.569H90.0313V194.777H87.5193V192.569H82.1913V190.313L86.7993 183.449H90.0153V190.393H91.5833V192.569ZM87.5353 190.393V186.201H87.4873L84.7993 190.393H87.5353ZM101.447 191.033C101.447 192.335 101.02 193.337 100.167 194.041C99.3137 194.735 98.2843 195.081 97.079 195.081C96.0337 195.081 95.1217 194.825 94.343 194.313C93.5643 193.791 93.0417 193.087 92.775 192.201L95.223 191.449C95.3403 191.855 95.5643 192.185 95.895 192.441C96.2363 192.687 96.6203 192.809 97.047 192.809C97.527 192.809 97.927 192.665 98.247 192.377C98.5777 192.089 98.743 191.684 98.743 191.161C98.743 190.543 98.519 190.1 98.071 189.833C97.623 189.567 97.0737 189.433 96.423 189.433C95.495 189.433 94.5723 189.599 93.655 189.929L93.927 183.449H100.871V185.753H96.311L96.215 187.545C96.5243 187.471 96.903 187.433 97.351 187.433C98.5457 187.433 99.527 187.748 100.295 188.377C101.063 188.996 101.447 189.881 101.447 191.033ZM115.807 189.801C116.404 190.388 116.703 191.103 116.703 191.945C116.703 192.788 116.404 193.503 115.807 194.089C115.22 194.676 114.505 194.969 113.663 194.969C112.82 194.969 112.1 194.676 111.503 194.089C110.916 193.503 110.623 192.788 110.623 191.945C110.623 191.103 110.916 190.388 111.503 189.801C112.1 189.215 112.82 188.921 113.663 188.921C114.505 188.921 115.22 189.215 115.807 189.801ZM114.543 192.825C114.788 192.58 114.911 192.287 114.911 191.945C114.911 191.604 114.788 191.311 114.543 191.065C114.297 190.82 114.004 190.697 113.663 190.697C113.321 190.697 113.028 190.82 112.783 191.065C112.537 191.311 112.415 191.604 112.415 191.945C112.415 192.287 112.537 192.58 112.783 192.825C113.028 193.06 113.321 193.177 113.663 193.177C114.004 193.177 114.297 193.06 114.543 192.825ZM109.023 186.281C109.023 187.113 108.724 187.828 108.127 188.425C107.54 189.012 106.825 189.305 105.983 189.305C105.14 189.305 104.42 189.012 103.823 188.425C103.236 187.828 102.943 187.113 102.943 186.281C102.943 185.439 103.236 184.724 103.823 184.137C104.42 183.551 105.14 183.257 105.983 183.257C106.825 183.257 107.54 183.551 108.127 184.137C108.724 184.724 109.023 185.439 109.023 186.281ZM106.863 187.161C107.108 186.916 107.231 186.623 107.231 186.281C107.231 185.94 107.108 185.647 106.863 185.401C106.617 185.156 106.324 185.033 105.983 185.033C105.641 185.033 105.348 185.156 105.103 185.401C104.857 185.647 104.735 185.94 104.735 186.281C104.735 186.623 104.857 186.916 105.103 187.161C105.348 187.396 105.641 187.513 105.983 187.513C106.324 187.513 106.617 187.396 106.863 187.161ZM113.887 183.657L107.215 195.321L105.791 194.617L112.399 182.937L113.887 183.657Z" fill="#303C40"/>
    </g>
    <g class="diagram-group">
        <path d="M263.553 143.204C263.943 115.749 255.37 88.9158 239.134 66.7722C222.899 44.6287 199.749 27.8852 173.448 19.9999L137.333 141.412L263.553 143.204Z" fill="#F0A252"/>
        <path d="M191.003 103.89H188.315V95.5703L186.203 97.2023L184.811 95.2983L188.539 92.5623H191.003V103.89ZM203.763 96.3063C203.763 97.3836 203.341 98.5516 202.499 99.8103L199.763 103.89H196.515L199.331 99.9863L199.363 99.9383C199.128 100.024 198.861 100.066 198.563 100.066C197.539 100.066 196.659 99.7196 195.923 99.0263C195.197 98.3329 194.835 97.4476 194.835 96.3703C194.835 95.1223 195.261 94.1249 196.115 93.3783C196.968 92.6316 198.029 92.2583 199.299 92.2583C200.568 92.2583 201.629 92.6316 202.483 93.3783C203.336 94.1143 203.763 95.0903 203.763 96.3063ZM201.075 96.2743C201.075 95.7729 200.909 95.3463 200.579 94.9943C200.259 94.6423 199.837 94.4663 199.315 94.4663C198.781 94.4663 198.349 94.6369 198.019 94.9783C197.688 95.3196 197.523 95.7569 197.523 96.2903C197.523 96.8023 197.683 97.2289 198.003 97.5703C198.333 97.9009 198.76 98.0663 199.283 98.0663C199.816 98.0663 200.248 97.9009 200.579 97.5703C200.909 97.2396 201.075 96.8076 201.075 96.2743ZM217.802 98.9143C218.4 99.5009 218.698 100.216 218.698 101.058C218.698 101.901 218.4 102.616 217.802 103.202C217.216 103.789 216.501 104.082 215.658 104.082C214.816 104.082 214.096 103.789 213.498 103.202C212.912 102.616 212.618 101.901 212.618 101.058C212.618 100.216 212.912 99.5009 213.498 98.9143C214.096 98.3276 214.816 98.0343 215.658 98.0343C216.501 98.0343 217.216 98.3276 217.802 98.9143ZM216.538 101.938C216.784 101.693 216.906 101.4 216.906 101.058C216.906 100.717 216.784 100.424 216.538 100.178C216.293 99.9329 216 99.8103 215.658 99.8103C215.317 99.8103 215.024 99.9329 214.778 100.178C214.533 100.424 214.41 100.717 214.41 101.058C214.41 101.4 214.533 101.693 214.778 101.938C215.024 102.173 215.317 102.29 215.658 102.29C216 102.29 216.293 102.173 216.538 101.938ZM211.018 95.3943C211.018 96.2263 210.72 96.9409 210.122 97.5383C209.536 98.1249 208.821 98.4183 207.978 98.4183C207.136 98.4183 206.416 98.1249 205.818 97.5383C205.232 96.9409 204.938 96.2263 204.938 95.3943C204.938 94.5516 205.232 93.8369 205.818 93.2503C206.416 92.6636 207.136 92.3703 207.978 92.3703C208.821 92.3703 209.536 92.6636 210.122 93.2503C210.72 93.8369 211.018 94.5516 211.018 95.3943ZM208.858 96.2743C209.104 96.0289 209.226 95.7356 209.226 95.3943C209.226 95.0529 209.104 94.7596 208.858 94.5143C208.613 94.2689 208.32 94.1463 207.978 94.1463C207.637 94.1463 207.344 94.2689 207.098 94.5143C206.853 94.7596 206.73 95.0529 206.73 95.3943C206.73 95.7356 206.853 96.0289 207.098 96.2743C207.344 96.5089 207.637 96.6263 207.978 96.6263C208.32 96.6263 208.613 96.5089 208.858 96.2743ZM215.882 92.7703L209.21 104.434L207.786 103.73L214.394 92.0503L215.882 92.7703Z" fill="white"/>
    </g>
</svg>
