<svg width="275" height="279" viewBox="0 0 275 279" fill="none" xmlns="http://www.w3.org/2000/svg" preserveAspectRatio="none">
<g>
  <circle cx="137.544" cy="141" r="126.232" transform="rotate(-174.877 137.544 141)" fill="white"/>
  <path d="M102.731 74.6044H94.5394V72.3644L98.9554 68.3644C99.5741 67.7777 99.8834 67.1964 99.8834 66.6204C99.8834 66.215 99.7554 65.8897 99.4994 65.6444C99.2434 65.3884 98.9021 65.2604 98.4754 65.2604C98.0381 65.2604 97.6754 65.4204 97.3874 65.7404C97.0994 66.0497 96.9287 66.4604 96.8754 66.9724L94.2994 66.6204C94.4274 65.5004 94.8967 64.615 95.7074 63.9644C96.5181 63.303 97.4887 62.9724 98.6194 62.9724C99.7501 62.9724 100.715 63.271 101.515 63.8684C102.315 64.4657 102.715 65.3244 102.715 66.4444C102.715 67.1697 102.545 67.7884 102.203 68.3004C101.873 68.8124 101.382 69.3564 100.731 69.9324L98.1074 72.2684H102.731V74.6044ZM113.587 72.3964H112.035V74.6044H109.523V72.3964H104.195V70.1404L108.803 63.2764H112.019V70.2204H113.587V72.3964ZM109.539 70.2204V66.0284H109.491L106.803 70.2204H109.539ZM127.467 69.6284C128.064 70.215 128.363 70.9297 128.363 71.7724C128.363 72.615 128.064 73.3297 127.467 73.9164C126.88 74.503 126.166 74.7964 125.323 74.7964C124.48 74.7964 123.76 74.503 123.163 73.9164C122.576 73.3297 122.283 72.615 122.283 71.7724C122.283 70.9297 122.576 70.215 123.163 69.6284C123.76 69.0417 124.48 68.7484 125.323 68.7484C126.166 68.7484 126.88 69.0417 127.467 69.6284ZM126.203 72.6524C126.448 72.407 126.571 72.1137 126.571 71.7724C126.571 71.431 126.448 71.1377 126.203 70.8924C125.958 70.647 125.664 70.5244 125.323 70.5244C124.982 70.5244 124.688 70.647 124.443 70.8924C124.198 71.1377 124.075 71.431 124.075 71.7724C124.075 72.1137 124.198 72.407 124.443 72.6524C124.688 72.887 124.982 73.0044 125.323 73.0044C125.664 73.0044 125.958 72.887 126.203 72.6524ZM120.683 66.1084C120.683 66.9404 120.384 67.655 119.787 68.2524C119.2 68.839 118.486 69.1324 117.643 69.1324C116.8 69.1324 116.08 68.839 115.483 68.2524C114.896 67.655 114.603 66.9404 114.603 66.1084C114.603 65.2657 114.896 64.551 115.483 63.9644C116.08 63.3777 116.8 63.0844 117.643 63.0844C118.486 63.0844 119.2 63.3777 119.787 63.9644C120.384 64.551 120.683 65.2657 120.683 66.1084ZM118.523 66.9884C118.768 66.743 118.891 66.4497 118.891 66.1084C118.891 65.767 118.768 65.4737 118.523 65.2284C118.278 64.983 117.984 64.8604 117.643 64.8604C117.302 64.8604 117.008 64.983 116.763 65.2284C116.518 65.4737 116.395 65.767 116.395 66.1084C116.395 66.4497 116.518 66.743 116.763 66.9884C117.008 67.223 117.302 67.3404 117.643 67.3404C117.984 67.3404 118.278 67.223 118.523 66.9884ZM125.547 63.4844L118.875 75.1484L117.451 74.4444L124.059 62.7644L125.547 63.4844Z" fill="white"/>
</g>
<g>
  <path d="M225.231 232.546C237.339 220.941 247.014 207.039 253.689 191.653C260.364 176.267 263.906 159.705 264.108 142.934L137.885 141.413L225.231 232.546Z" fill="#D03030"/>
  <path d="M211.94 171.348C211.94 172.479 211.529 173.354 210.708 173.972C209.887 174.58 208.879 174.884 207.684 174.884C206.479 174.884 205.465 174.58 204.644 173.972C203.833 173.364 203.428 172.495 203.428 171.364C203.428 170.703 203.62 170.132 204.004 169.652C204.388 169.172 204.873 168.842 205.46 168.66V168.628C204.948 168.436 204.532 168.132 204.212 167.716C203.892 167.29 203.732 166.778 203.732 166.18C203.732 165.178 204.111 164.388 204.868 163.812C205.636 163.236 206.575 162.948 207.684 162.948C208.793 162.948 209.727 163.231 210.484 163.796C211.252 164.351 211.636 165.13 211.636 166.132C211.636 166.74 211.476 167.263 211.156 167.7C210.847 168.138 210.431 168.442 209.908 168.612V168.66C210.495 168.82 210.98 169.146 211.364 169.636C211.748 170.127 211.94 170.698 211.94 171.348ZM208.644 167.268C208.911 167.002 209.044 166.687 209.044 166.324C209.044 165.962 208.911 165.658 208.644 165.412C208.377 165.156 208.057 165.028 207.684 165.028C207.289 165.028 206.964 165.151 206.708 165.396C206.463 165.642 206.34 165.951 206.34 166.324C206.34 166.698 206.463 167.018 206.708 167.284C206.953 167.54 207.279 167.668 207.684 167.668C208.068 167.668 208.388 167.535 208.644 167.268ZM209.252 171.252C209.252 170.815 209.103 170.452 208.804 170.164C208.505 169.866 208.132 169.716 207.684 169.716C207.225 169.716 206.847 169.866 206.548 170.164C206.249 170.452 206.1 170.815 206.1 171.252C206.1 171.7 206.244 172.063 206.532 172.34C206.831 172.618 207.215 172.756 207.684 172.756C208.153 172.756 208.532 172.623 208.82 172.356C209.108 172.079 209.252 171.711 209.252 171.252ZM226.188 169.604C226.785 170.191 227.084 170.906 227.084 171.748C227.084 172.591 226.785 173.306 226.188 173.892C225.601 174.479 224.887 174.772 224.044 174.772C223.201 174.772 222.481 174.479 221.884 173.892C221.297 173.306 221.004 172.591 221.004 171.748C221.004 170.906 221.297 170.191 221.884 169.604C222.481 169.018 223.201 168.724 224.044 168.724C224.887 168.724 225.601 169.018 226.188 169.604ZM224.924 172.628C225.169 172.383 225.292 172.09 225.292 171.748C225.292 171.407 225.169 171.114 224.924 170.868C224.679 170.623 224.385 170.5 224.044 170.5C223.703 170.5 223.409 170.623 223.164 170.868C222.919 171.114 222.796 171.407 222.796 171.748C222.796 172.09 222.919 172.383 223.164 172.628C223.409 172.863 223.703 172.98 224.044 172.98C224.385 172.98 224.679 172.863 224.924 172.628ZM219.404 166.084C219.404 166.916 219.105 167.631 218.508 168.228C217.921 168.815 217.207 169.108 216.364 169.108C215.521 169.108 214.801 168.815 214.204 168.228C213.617 167.631 213.324 166.916 213.324 166.084C213.324 165.242 213.617 164.527 214.204 163.94C214.801 163.354 215.521 163.06 216.364 163.06C217.207 163.06 217.921 163.354 218.508 163.94C219.105 164.527 219.404 165.242 219.404 166.084ZM217.244 166.964C217.489 166.719 217.612 166.426 217.612 166.084C217.612 165.743 217.489 165.45 217.244 165.204C216.999 164.959 216.705 164.836 216.364 164.836C216.023 164.836 215.729 164.959 215.484 165.204C215.239 165.45 215.116 165.743 215.116 166.084C215.116 166.426 215.239 166.719 215.484 166.964C215.729 167.199 216.023 167.316 216.364 167.316C216.705 167.316 216.999 167.199 217.244 166.964ZM224.268 163.46L217.596 175.124L216.172 174.42L222.78 162.74L224.268 163.46Z" fill="white"/>
</g>
<g>

</g>

    <path d="M264.105 143.204C264.494 115.749 255.922 88.9159 239.686 66.7723C223.45 44.6288 200.301 27.8853 174 20L137.885 141.413L264.105 143.204Z" fill="#F0A252"/>
<path d="M174 20C145.835 11.8042 112.595 11.8714 87 25C60.0929 36.6813 37.5 58.5 24.5 85L138 141.5L174 20Z" fill="#313E70"/>

    <path d="M102.731 74.6044H94.5394V72.3644L98.9554 68.3644C99.5741 67.7777 99.8834 67.1964 99.8834 66.6204C99.8834 66.215 99.7554 65.8897 99.4994 65.6444C99.2434 65.3884 98.9021 65.2604 98.4754 65.2604C98.0381 65.2604 97.6754 65.4204 97.3874 65.7404C97.0994 66.0497 96.9287 66.4604 96.8754 66.9724L94.2994 66.6204C94.4274 65.5004 94.8967 64.615 95.7074 63.9644C96.5181 63.303 97.4887 62.9724 98.6194 62.9724C99.7501 62.9724 100.715 63.271 101.515 63.8684C102.315 64.4657 102.715 65.3244 102.715 66.4444C102.715 67.1697 102.545 67.7884 102.203 68.3004C101.873 68.8124 101.382 69.3564 100.731 69.9324L98.1074 72.2684H102.731V74.6044ZM113.587 72.3964H112.035V74.6044H109.523V72.3964H104.195V70.1404L108.803 63.2764H112.019V70.2204H113.587V72.3964ZM109.539 70.2204V66.0284H109.491L106.803 70.2204H109.539ZM127.467 69.6284C128.064 70.215 128.363 70.9297 128.363 71.7724C128.363 72.615 128.064 73.3297 127.467 73.9164C126.88 74.503 126.166 74.7964 125.323 74.7964C124.48 74.7964 123.76 74.503 123.163 73.9164C122.576 73.3297 122.283 72.615 122.283 71.7724C122.283 70.9297 122.576 70.215 123.163 69.6284C123.76 69.0417 124.48 68.7484 125.323 68.7484C126.166 68.7484 126.88 69.0417 127.467 69.6284ZM126.203 72.6524C126.448 72.407 126.571 72.1137 126.571 71.7724C126.571 71.431 126.448 71.1377 126.203 70.8924C125.958 70.647 125.664 70.5244 125.323 70.5244C124.982 70.5244 124.688 70.647 124.443 70.8924C124.198 71.1377 124.075 71.431 124.075 71.7724C124.075 72.1137 124.198 72.407 124.443 72.6524C124.688 72.887 124.982 73.0044 125.323 73.0044C125.664 73.0044 125.958 72.887 126.203 72.6524ZM120.683 66.1084C120.683 66.9404 120.384 67.655 119.787 68.2524C119.2 68.839 118.486 69.1324 117.643 69.1324C116.8 69.1324 116.08 68.839 115.483 68.2524C114.896 67.655 114.603 66.9404 114.603 66.1084C114.603 65.2657 114.896 64.551 115.483 63.9644C116.08 63.3777 116.8 63.0844 117.643 63.0844C118.486 63.0844 119.2 63.3777 119.787 63.9644C120.384 64.551 120.683 65.2657 120.683 66.1084ZM118.523 66.9884C118.768 66.743 118.891 66.4497 118.891 66.1084C118.891 65.767 118.768 65.4737 118.523 65.2284C118.278 64.983 117.984 64.8604 117.643 64.8604C117.302 64.8604 117.008 64.983 116.763 65.2284C116.518 65.4737 116.395 65.767 116.395 66.1084C116.395 66.4497 116.518 66.743 116.763 66.9884C117.008 67.223 117.302 67.3404 117.643 67.3404C117.984 67.3404 118.278 67.223 118.523 66.9884ZM125.547 63.4844L118.875 75.1484L117.451 74.4444L124.059 62.7644L125.547 63.4844Z" fill="white"/>

<path d="M92.135 192.57H90.583V194.778H88.071V192.57H82.743V190.314L87.351 183.45H90.567V190.394H92.135V192.57ZM88.087 190.394V186.202H88.039L85.351 190.394H88.087ZM101.999 191.034C101.999 192.335 101.572 193.338 100.719 194.042C99.8654 194.735 98.8361 195.082 97.6308 195.082C96.5854 195.082 95.6734 194.826 94.8948 194.314C94.1161 193.791 93.5934 193.087 93.3268 192.202L95.7748 191.45C95.8921 191.855 96.1161 192.186 96.4468 192.442C96.7881 192.687 97.1721 192.81 97.5988 192.81C98.0788 192.81 98.4788 192.666 98.7988 192.378C99.1294 192.09 99.2948 191.684 99.2948 191.162C99.2948 190.543 99.0708 190.1 98.6228 189.834C98.1748 189.567 97.6254 189.434 96.9748 189.434C96.0468 189.434 95.1241 189.599 94.2068 189.93L94.4788 183.45H101.423V185.754H96.8628L96.7668 187.546C97.0761 187.471 97.4548 187.434 97.9028 187.434C99.0974 187.434 100.079 187.748 100.847 188.378C101.615 188.996 101.999 189.882 101.999 191.034ZM116.359 189.802C116.956 190.388 117.255 191.103 117.255 191.946C117.255 192.788 116.956 193.503 116.359 194.09C115.772 194.676 115.057 194.97 114.215 194.97C113.372 194.97 112.652 194.676 112.055 194.09C111.468 193.503 111.175 192.788 111.175 191.946C111.175 191.103 111.468 190.388 112.055 189.802C112.652 189.215 113.372 188.922 114.215 188.922C115.057 188.922 115.772 189.215 116.359 189.802ZM115.095 192.826C115.34 192.58 115.463 192.287 115.463 191.946C115.463 191.604 115.34 191.311 115.095 191.066C114.849 190.82 114.556 190.698 114.215 190.698C113.873 190.698 113.58 190.82 113.335 191.066C113.089 191.311 112.967 191.604 112.967 191.946C112.967 192.287 113.089 192.58 113.335 192.826C113.58 193.06 113.873 193.178 114.215 193.178C114.556 193.178 114.849 193.06 115.095 192.826ZM109.575 186.282C109.575 187.114 109.276 187.828 108.679 188.426C108.092 189.012 107.377 189.306 106.535 189.306C105.692 189.306 104.972 189.012 104.375 188.426C103.788 187.828 103.495 187.114 103.495 186.282C103.495 185.439 103.788 184.724 104.375 184.138C104.972 183.551 105.692 183.258 106.535 183.258C107.377 183.258 108.092 183.551 108.679 184.138C109.276 184.724 109.575 185.439 109.575 186.282ZM107.415 187.162C107.66 186.916 107.783 186.623 107.783 186.282C107.783 185.94 107.66 185.647 107.415 185.402C107.169 185.156 106.876 185.034 106.535 185.034C106.193 185.034 105.9 185.156 105.655 185.402C105.409 185.647 105.287 185.94 105.287 186.282C105.287 186.623 105.409 186.916 105.655 187.162C105.9 187.396 106.193 187.514 106.535 187.514C106.876 187.514 107.169 187.396 107.415 187.162ZM114.439 183.658L107.767 195.322L106.343 194.618L112.951 182.938L114.439 183.658Z" fill="#303C40"/>
<path d="M191.555 103.89H188.867V95.5704L186.755 97.2024L185.363 95.2984L189.091 92.5624H191.555V103.89ZM204.314 96.3064C204.314 97.3837 203.893 98.5517 203.05 99.8104L200.314 103.89H197.066L199.882 99.9864L199.914 99.9384C199.68 100.024 199.413 100.066 199.114 100.066C198.09 100.066 197.21 99.7197 196.474 99.0264C195.749 98.333 195.386 97.4477 195.386 96.3704C195.386 95.1224 195.813 94.125 196.666 93.3784C197.52 92.6317 198.581 92.2584 199.85 92.2584C201.12 92.2584 202.181 92.6317 203.034 93.3784C203.888 94.1144 204.314 95.0904 204.314 96.3064ZM201.626 96.2744C201.626 95.773 201.461 95.3464 201.13 94.9944C200.81 94.6424 200.389 94.4664 199.866 94.4664C199.333 94.4664 198.901 94.637 198.57 94.9784C198.24 95.3197 198.074 95.757 198.074 96.2904C198.074 96.8024 198.234 97.229 198.554 97.5704C198.885 97.901 199.312 98.0664 199.834 98.0664C200.368 98.0664 200.8 97.901 201.13 97.5704C201.461 97.2397 201.626 96.8077 201.626 96.2744ZM218.354 98.9144C218.951 99.501 219.25 100.216 219.25 101.058C219.25 101.901 218.951 102.616 218.354 103.202C217.767 103.789 217.053 104.082 216.21 104.082C215.367 104.082 214.647 103.789 214.05 103.202C213.463 102.616 213.17 101.901 213.17 101.058C213.17 100.216 213.463 99.501 214.05 98.9144C214.647 98.3277 215.367 98.0344 216.21 98.0344C217.053 98.0344 217.767 98.3277 218.354 98.9144ZM217.09 101.938C217.335 101.693 217.458 101.4 217.458 101.058C217.458 100.717 217.335 100.424 217.09 100.178C216.845 99.933 216.551 99.8104 216.21 99.8104C215.869 99.8104 215.575 99.933 215.33 100.178C215.085 100.424 214.962 100.717 214.962 101.058C214.962 101.4 215.085 101.693 215.33 101.938C215.575 102.173 215.869 102.29 216.21 102.29C216.551 102.29 216.845 102.173 217.09 101.938ZM211.57 95.3944C211.57 96.2264 211.271 96.941 210.674 97.5384C210.087 98.125 209.373 98.4184 208.53 98.4184C207.687 98.4184 206.967 98.125 206.37 97.5384C205.783 96.941 205.49 96.2264 205.49 95.3944C205.49 94.5517 205.783 93.837 206.37 93.2504C206.967 92.6637 207.687 92.3704 208.53 92.3704C209.373 92.3704 210.087 92.6637 210.674 93.2504C211.271 93.837 211.57 94.5517 211.57 95.3944ZM209.41 96.2744C209.655 96.029 209.778 95.7357 209.778 95.3944C209.778 95.053 209.655 94.7597 209.41 94.5144C209.165 94.269 208.871 94.1464 208.53 94.1464C208.189 94.1464 207.895 94.269 207.65 94.5144C207.405 94.7597 207.282 95.053 207.282 95.3944C207.282 95.7357 207.405 96.029 207.65 96.2744C207.895 96.509 208.189 96.6264 208.53 96.6264C208.871 96.6264 209.165 96.509 209.41 96.2744ZM216.434 92.7704L209.762 104.434L208.338 103.73L214.946 92.0504L216.434 92.7704Z" fill="white"/>
</svg>
