<svg width="781" height="533" viewBox="0 0 781 533" fill="none" xmlns="http://www.w3.org/2000/svg">
<g filter="url(#filter0_d)">
<path fill-rule="evenodd" clip-rule="evenodd" d="M762.736 1V268.023V498L563.717 428.331C553.259 424.67 541.869 424.661 531.406 428.307L430.212 463.564C418.399 467.679 405.499 467.399 393.877 462.774L24.1907 315.665C16.6467 312.663 16.6215 301.994 24.1512 298.956L762.736 1Z" fill="url(#paint0_linear)"/>
</g>
<g clip-path="url(#clip0)">
<g style="mix-blend-mode:multiply" opacity="0.1">
<path d="M639.847 298.003L656.91 288.075L638.949 277.619V272.019L657.662 261.303L624.845 242.141L566.13 242.676L544.434 255.292L521.069 241.778L494.299 257.027L437.332 246.946L462.164 261.251L437.492 275.525L462.583 290.155L435.595 305.766L430.641 332.334L477.029 329.515L475.68 332.334L520.589 331.094L521.091 331.79L625.706 332.101L657.447 313.749L639.847 303.6V298.003Z" fill="#A7A9AC"/>
</g>
<path d="M565.473 270.069L542.695 256.9L565.496 243.722L520.899 217.468L497.703 230.864L475.496 218.014L453.413 230.792L430.647 217.608L386.495 243.164L409.262 256.333L386.326 269.028L408.294 282.594L386.211 295.371L430.661 321.606L453.29 308.627L476.062 321.525L499.235 308.385L521.456 320.962L565.573 295.3L543.39 282.85L565.473 270.069Z" fill="#C58236"/>
<path d="M499.227 282.07L476.047 295.463L476.062 321.508L499.227 308.385V282.07Z" fill="#BBBDBF"/>
<path d="M565.45 243.739L542.279 257.135V284.008L565.45 270.057V243.739Z" fill="#D2D3D4"/>
<path d="M565.412 217.393L542.641 230.556V257.426L565.496 243.722L565.412 217.393Z" fill="#D2D3D4"/>
<path d="M453.29 282.292L430.661 294.739V321.606L453.29 308.627V282.292Z" fill="#2588AD"/>
<path d="M521.442 294.903L499.235 282.042V308.4L521.442 320.962V294.903Z" fill="#99D6FF"/>
<path d="M476.047 295.464L453.29 282.292V308.627L476.047 321.526V295.464Z" fill="#EEEFF0"/>
<path d="M408.86 256.584L386.495 243.164L386.243 269.914L408.86 282.645V256.584Z" fill="#F3F4F5"/>
<path d="M409.247 229.975L386.484 216.798V243.153L409.247 256.037V229.975Z" fill="#F3F4F5"/>
<path d="M565.573 269.364L521.442 294.903V320.962L565.573 295.3V269.364Z" fill="#2588AD"/>
<path d="M386.211 269.028L386.128 295.852L430.661 321.606V294.748L386.211 269.028Z" fill="#99D6FF"/>
<path d="M499.235 308.385V312.026L521.456 324.591V320.962L499.235 308.385Z" fill="#FEFEFE"/>
<path d="M430.661 321.6V325.232L453.29 312.265V308.627L430.661 321.6Z" fill="#E1E2E3"/>
<path d="M430.661 321.606L386.12 295.823V299.461L430.661 325.233V321.6V321.606Z" fill="#FEFEFE"/>
<path d="M453.29 308.627V312.265V312.253L476.047 325.138V321.508L453.29 308.627Z" fill="#FEFEFE"/>
<path d="M476.062 321.525L476.047 321.508V325.138L476.062 325.146L499.235 312.026V308.385L476.062 321.525Z" fill="#E1E2E3"/>
<path d="M565.573 295.308L521.456 320.962V324.591L565.573 298.938V295.308Z" fill="#E1E2E3"/>
<path d="M482.938 297.428V313.369L492.984 307.597V291.658L482.938 297.428Z" fill="white"/>
<path d="M483.791 311.736V298.075L492.117 293.304V306.953L483.791 311.736Z" fill="url(#paint1_linear)"/>
<path d="M491.213 306.404L491.236 293.85L492.117 293.304V306.953L483.791 311.736V310.675L491.213 306.404Z" fill="#BBBDBF"/>
<path d="M550.402 259.502V275.441L560.436 269.663V253.739L550.402 259.502Z" fill="white"/>
<path d="M551.257 273.81V260.152L559.595 255.364V269.013L551.257 273.81Z" fill="url(#paint2_linear)"/>
<path d="M558.69 268.475L558.696 255.919L559.595 255.364V269.013L551.257 273.81V272.735L558.69 268.475Z" fill="#BBBDBF"/>
<path d="M550.275 233.832V249.776L560.321 244.001V228.077L550.275 233.832Z" fill="#9D9FA2"/>
<path d="M551.142 248.14V234.479L559.457 229.702V243.354L551.142 248.14Z" fill="url(#paint3_linear)"/>
<path d="M558.55 242.813L558.561 230.266L559.457 229.702V243.354L551.142 248.14V247.076L558.55 242.813Z" fill="white"/>
<path d="M437.3 296.761V312.691L447.346 306.927V290.991L437.3 296.761Z" fill="white"/>
<path d="M438.161 311.065V297.402L446.479 292.628V306.283L438.161 311.065Z" fill="url(#paint4_linear)"/>
<path d="M445.572 305.731L445.583 293.18L446.479 292.628V306.283L438.161 311.065V310.001L445.572 305.731Z" fill="#D2D3D4"/>
<path d="M529.751 295.418V311.368L539.782 305.593V289.666L529.751 295.418Z" fill="white"/>
<path d="M530.597 309.728V296.073L538.941 291.302V304.943L530.597 309.728Z" fill="url(#paint5_linear)"/>
<path d="M538.031 304.408L538.043 291.854L538.941 291.302V304.943L530.597 309.728V308.676L538.031 304.408Z" fill="#BBBDBF"/>
<path d="M539.839 289.579V305.518L549.859 299.751V283.816L539.839 289.579Z" fill="white"/>
<path d="M540.68 303.89V290.23L549.009 285.453V299.105L540.68 303.89Z" fill="url(#paint6_linear)"/>
<path d="M548.1 298.57L548.122 286.016L549.009 285.453V299.105L540.68 303.89V302.829L548.1 298.57Z" fill="#BBBDBF"/>
<path d="M549.822 283.994V299.927L559.858 294.152V278.242L549.822 283.994Z" fill="white"/>
<path d="M550.674 298.302V284.638L559.003 279.87V293.502L550.674 298.302Z" fill="url(#paint7_linear)"/>
<path d="M558.096 292.981L558.117 280.416L559.003 279.87V293.502L550.674 298.302V297.238L558.096 292.981Z" fill="#BBBDBF"/>
<path d="M422.766 296.925V312.861L412.74 307.097V291.161L422.766 296.925Z" fill="white"/>
<path d="M421.91 311.235V297.574L413.581 292.797V306.45L421.91 311.235Z" fill="url(#paint8_linear)"/>
<path d="M414.491 305.897L414.477 293.347L413.581 292.797V306.45L421.91 311.235V310.171L414.491 305.897Z" fill="#D2D3D4"/>
<path d="M412.686 291.095V307.025L402.654 301.247V285.323L412.686 291.095Z" fill="white"/>
<path d="M411.845 305.398V291.734L403.507 286.948V300.598L411.845 305.398Z" fill="url(#paint9_linear)"/>
<path d="M404.414 300.066L404.402 287.512L403.507 286.948V300.598L411.845 305.398V304.322L404.414 300.066Z" fill="#D2D3D4"/>
<path d="M402.7 285.487V301.44L392.649 295.659V279.732L402.7 285.487Z" fill="white"/>
<path d="M401.836 299.798V286.137L393.51 281.357V295.009L401.836 299.798Z" fill="url(#paint10_linear)"/>
<path d="M394.417 294.474V281.926L393.51 281.357V295.009L401.836 299.798V298.734L394.417 294.474Z" fill="#D2D3D4"/>
<path d="M402.316 257.947V273.883L392.279 268.116V252.195L402.316 257.947Z" fill="#9D9FA2"/>
<path d="M401.472 272.258V258.594L393.146 253.82V267.469L401.472 272.258Z" fill="url(#paint11_linear)"/>
<path d="M394.053 266.937L394.03 254.384L393.146 253.82V267.469L401.472 272.258V271.194L394.053 266.937Z" fill="white"/>
<path d="M403.452 232.282V248.235L393.41 242.445V226.53L403.452 232.282Z" fill="#9D9FA2"/>
<path d="M402.585 246.609V232.943L394.253 228.16V241.801L402.585 246.609Z" fill="url(#paint12_linear)"/>
<path d="M395.178 241.272L395.146 228.712L394.253 228.16V241.801L402.585 246.609V245.528L395.178 241.272Z" fill="white"/>
<path d="M565.473 243.739L542.695 230.567L565.412 217.393L520.885 191.121L497.703 204.546L475.496 191.685L453.413 204.462L430.647 191.291L386.484 216.818L409.247 230.001L386.495 243.164L408.294 256.264L386.211 269.039L430.661 294.739L453.29 282.28L476.047 295.463L499.235 282.041L521.442 294.903L565.611 269.364L543.39 256.514L565.473 243.739Z" fill="#C7C8CA"/>
<path d="M565.473 240.817L542.695 227.645L565.496 214.473L520.899 188.199L497.703 201.612L475.496 188.768L453.413 201.537L430.647 188.368L386.495 213.898L409.262 227.082L386.326 239.788L408.294 253.348L386.211 266.111L430.661 292.357L453.29 279.364L476.062 292.262L499.235 279.125L521.456 291.713L565.573 266.048L543.39 253.598L565.473 240.817Z" fill="#C58236"/>
<path d="M499.227 252.808L476.047 266.21L476.062 292.263L499.227 279.137V252.808Z" fill="#2588AD"/>
<path d="M565.45 214.474L542.279 227.882V254.74L565.45 240.818V214.474Z" fill="#2588AD"/>
<path d="M565.412 188.13L542.641 201.299V228.172L565.496 214.474L565.412 188.13Z" fill="#D2D3D4"/>
<path d="M453.29 253.046L430.661 265.485V292.358L453.29 279.364V253.046Z" fill="#BBBDBF"/>
<path d="M521.442 265.655L499.235 252.808V279.148L521.442 291.714V265.655Z" fill="#EEEFF0"/>
<path d="M476.047 266.209L453.29 253.046V279.364L476.047 292.263V266.209Z" fill="#99D6FF"/>
<path d="M408.86 227.323L386.495 213.898L386.243 240.662L408.86 253.382V227.323Z" fill="#F3F4F5"/>
<path d="M409.247 200.718L386.484 187.558V213.899L409.247 226.769V200.718Z" fill="#F3F4F5"/>
<path d="M565.573 240.113L521.442 265.654V291.713L565.573 266.048V240.113Z" fill="#BBBDBF"/>
<path d="M386.211 239.765L386.128 266.589L430.661 292.358V265.485L386.211 239.765Z" fill="#EEEFF0"/>
<path d="M499.235 279.125V282.763L521.456 295.334V291.713L499.235 279.125Z" fill="#FEFEFE"/>
<path d="M430.661 292.358V295.981L453.29 283.005V279.364L430.661 292.358Z" fill="#E1E2E3"/>
<path d="M430.661 292.358L386.12 266.589V270.216L430.661 295.981V292.358Z" fill="#FEFEFE"/>
<path d="M453.29 279.364V283.005L476.047 295.886V292.263L453.29 279.364Z" fill="#FEFEFE"/>
<path d="M476.062 292.263H476.047V295.886L476.062 295.895L499.235 282.763V279.125L476.062 292.263Z" fill="#E1E2E3"/>
<path d="M565.573 266.066L521.456 291.713V295.334L565.573 269.686V266.066Z" fill="#E1E2E3"/>
<path d="M482.938 268.179V284.127L492.984 278.334V262.41L482.938 268.179Z" fill="white"/>
<path d="M483.791 282.484V268.821L492.117 264.052V277.69L483.791 282.484Z" fill="url(#paint13_linear)"/>
<path d="M491.213 277.164L491.236 264.599L492.117 264.052V277.69L483.791 282.484V281.42L491.213 277.164Z" fill="#BBBDBF"/>
<path d="M550.402 230.243V246.19L560.436 240.415V224.479L550.402 230.243Z" fill="white"/>
<path d="M551.257 244.553V230.89L559.595 226.115V239.765L551.257 244.553Z" fill="url(#paint14_linear)"/>
<path d="M558.69 239.23L558.696 226.679L559.595 226.115V239.765L551.257 244.553V243.483L558.69 239.23Z" fill="#BBBDBF"/>
<path d="M550.275 204.595V220.528L560.321 214.738V198.826L550.275 204.595Z" fill="#9D9FA2"/>
<path d="M551.142 218.9V205.239L559.457 200.456V214.091L551.142 218.9Z" fill="url(#paint15_linear)"/>
<path d="M558.55 213.568L558.561 201.003L559.457 200.456V214.091L551.142 218.9V217.827L558.55 213.568Z" fill="white"/>
<path d="M437.3 267.509V283.457L447.346 277.664V261.752L437.3 267.509Z" fill="white"/>
<path d="M438.161 281.82V268.162L446.479 263.382V277.017L438.161 281.82Z" fill="url(#paint16_linear)"/>
<path d="M445.572 276.494L445.583 263.934L446.479 263.382V277.017L438.161 281.82V280.756L445.572 276.494Z" fill="#D2D3D4"/>
<path d="M529.751 266.181V282.116L539.782 276.336V260.414L529.751 266.181Z" fill="white"/>
<path d="M530.597 280.489V266.828L538.941 262.039V275.691L530.597 280.489Z" fill="url(#paint17_linear)"/>
<path d="M538.031 275.151L538.043 262.591L538.941 262.039V275.691L530.597 280.489V279.416L538.031 275.151Z" fill="#BBBDBF"/>
<path d="M539.839 260.328V276.278L549.859 270.489V254.576L539.839 260.328Z" fill="white"/>
<path d="M540.68 274.638V260.989L549.009 256.201V269.841L540.68 274.638Z" fill="url(#paint18_linear)"/>
<path d="M548.1 269.315L548.122 256.753L549.009 256.201V269.841L540.68 274.638V273.574L548.1 269.315Z" fill="#BBBDBF"/>
<path d="M549.822 254.74V270.676L559.858 264.901V248.977L549.822 254.74Z" fill="white"/>
<path d="M550.674 269.051V255.39L559.003 250.602V264.257L550.674 269.051Z" fill="url(#paint19_linear)"/>
<path d="M558.096 263.713L558.117 251.165L559.003 250.602V264.257L550.674 269.051V267.975L558.096 263.713Z" fill="#BBBDBF"/>
<path d="M422.766 267.676V283.623L412.74 277.834V261.924L422.766 267.676Z" fill="white"/>
<path d="M421.91 281.984V268.323L413.581 263.549V277.187L421.91 281.984Z" fill="url(#paint20_linear)"/>
<path d="M414.491 276.663L414.477 264.098L413.581 263.549V277.187L421.91 281.984V280.914L414.491 276.663Z" fill="#D2D3D4"/>
<path d="M412.686 261.835V277.77L402.654 271.995V256.071L412.686 261.835Z" fill="white"/>
<path d="M411.845 276.146V262.485L403.507 257.708V271.349L411.845 276.146Z" fill="url(#paint21_linear)"/>
<path d="M404.414 270.808L404.402 258.26L403.507 257.708V271.349L411.845 276.146V275.085L404.414 270.808Z" fill="#D2D3D4"/>
<path d="M402.7 256.253V272.183L392.649 266.393V250.486L402.7 256.253Z" fill="white"/>
<path d="M401.836 270.558V256.9L393.51 252.108V265.749L401.836 270.558Z" fill="url(#paint22_linear)"/>
<path d="M394.417 265.226V252.661L393.51 252.108V265.749L401.836 270.558V269.479L394.417 265.226Z" fill="#D2D3D4"/>
<path d="M402.316 228.712V244.642L392.279 238.856V222.94L402.316 228.712Z" fill="#9D9FA2"/>
<path d="M401.472 243.018V229.357L393.146 224.574V238.209L401.472 243.018Z" fill="url(#paint23_linear)"/>
<path d="M394.053 237.683L394.03 225.121L393.146 224.574V238.209L401.472 243.018V241.942L394.053 237.683Z" fill="white"/>
<path d="M403.452 203.036V218.975L393.41 213.203V197.27L403.452 203.036Z" fill="#9D9FA2"/>
<path d="M402.585 217.344V203.68L394.253 198.909V212.561L402.585 217.344Z" fill="url(#paint24_linear)"/>
<path d="M395.178 212.02L395.146 199.461L394.253 198.909V212.561L402.585 217.344V216.28L395.178 212.02Z" fill="white"/>
<path d="M565.473 214.474L542.695 201.313L565.412 188.13L520.885 161.872L497.703 175.283L475.496 162.433L453.413 175.208L430.647 162.025L386.484 187.578L409.247 200.741L386.495 213.898L408.294 227.007L386.211 239.788L430.661 265.484L453.29 253.046L476.047 266.209L499.235 252.807L521.442 265.654L565.611 240.113L543.39 227.251L565.473 214.474Z" fill="#C7C8CA"/>
<path d="M565.473 210.882L542.695 197.71L565.496 184.538L520.899 158.272L497.703 171.679L475.496 158.83L453.413 171.608L430.647 158.436L386.495 183.968L409.262 197.149L386.326 209.861L408.294 223.415L386.211 236.173L430.661 262.427L453.29 249.431L476.062 262.327L499.235 249.192L521.456 261.777L565.573 236.115L543.39 223.665L565.473 210.882Z" fill="#C58236"/>
<path d="M499.227 222.869L476.047 236.274L476.062 262.327L499.227 249.204V222.869Z" fill="#BBBDBF"/>
<path d="M565.45 184.538L542.279 197.954V224.807L565.45 210.881V184.538Z" fill="#D2D3D4"/>
<path d="M565.412 158.2L542.641 171.372V198.242L565.496 184.538L565.412 158.2Z" fill="#D2D3D4"/>
<path d="M453.29 223.113L430.661 235.554V262.427L453.29 249.431V223.113Z" fill="#2588AD"/>
<path d="M521.442 235.724L499.235 222.869V249.215L521.442 261.778V235.724Z" fill="#99D6FF"/>
<path d="M476.047 236.273L453.29 223.113V249.431L476.047 262.327V236.273Z" fill="#EEEFF0"/>
<path d="M408.86 197.391L386.495 183.969L386.243 210.732L408.86 223.45V197.391Z" fill="#F3F4F5"/>
<path d="M409.247 170.785L386.484 157.622V183.968L409.247 196.841V170.785Z" fill="#F3F4F5"/>
<path d="M565.573 210.18L521.442 235.724V261.777L565.573 236.115V210.18Z" fill="#2588AD"/>
<path d="M386.211 209.832L386.128 236.656L430.661 262.428V235.555L386.211 209.832Z" fill="#99D6FF"/>
<path d="M499.235 249.192V252.83L521.456 265.654V261.777L499.235 249.192Z" fill="#FEFEFE"/>
<path d="M430.661 262.427V266.048L453.29 253.069V249.431L430.661 262.427Z" fill="#E1E2E3"/>
<path d="M430.661 262.427L386.12 236.656V240.277L430.661 266.048V262.427Z" fill="#FEFEFE"/>
<path d="M453.29 249.431V253.069L476.047 265.953V262.327L453.29 249.431Z" fill="#FEFEFE"/>
<path d="M476.062 262.327H476.047V265.953L476.062 265.962L499.235 252.83V249.192L476.062 262.327Z" fill="#E1E2E3"/>
<path d="M565.573 236.127L521.456 261.777V265.654L565.573 240.113V236.127Z" fill="#E1E2E3"/>
<path d="M482.938 238.24V254.196L492.984 248.401V232.474L482.938 238.24Z" fill="white"/>
<path d="M483.791 252.551V238.891L492.117 234.114V247.76L483.791 252.551Z" fill="url(#paint25_linear)"/>
<path d="M491.213 247.231L491.236 234.666L492.117 234.114V247.76L483.791 252.551V251.487L491.213 247.231Z" fill="#BBBDBF"/>
<path d="M550.402 200.31V216.257L560.436 210.473V194.543L550.402 200.31Z" fill="white"/>
<path d="M551.257 214.618V200.957L559.595 196.183V209.832L551.257 214.618Z" fill="url(#paint26_linear)"/>
<path d="M558.69 209.291L558.696 196.744L559.595 196.183V209.832L551.257 214.618V213.557L558.69 209.291Z" fill="#BBBDBF"/>
<path d="M550.275 174.656V190.6L560.321 184.805V168.89L550.275 174.656Z" fill="#9D9FA2"/>
<path d="M551.142 188.967V175.306L559.457 170.518V184.158L551.142 188.967Z" fill="url(#paint27_linear)"/>
<path d="M558.55 183.635L558.561 171.07L559.457 170.518V184.158L551.142 188.967V187.891L558.55 183.635Z" fill="white"/>
<path d="M437.3 237.577V253.524L447.346 247.734V231.822L437.3 237.577Z" fill="white"/>
<path d="M438.161 251.887V238.235L446.479 233.449V247.09L438.161 251.887Z" fill="url(#paint28_linear)"/>
<path d="M445.572 246.567L445.583 234.002L446.479 233.449V247.09L438.161 251.887V250.817L445.572 246.567Z" fill="#D2D3D4"/>
<path d="M529.751 236.245V252.183L539.782 246.408V230.481L529.751 236.245Z" fill="white"/>
<path d="M530.597 250.558V236.892L538.941 232.109V245.755L530.597 250.558Z" fill="url(#paint29_linear)"/>
<path d="M538.031 245.215L538.043 232.658L538.941 232.109V245.755L530.597 250.558V249.474L538.031 245.215Z" fill="#BBBDBF"/>
<path d="M539.839 230.398V246.342L549.859 240.556V224.643L539.839 230.398Z" fill="white"/>
<path d="M540.68 244.706V231.057L549.009 226.268V239.909L540.68 244.706Z" fill="url(#paint30_linear)"/>
<path d="M548.1 239.38L548.122 226.82L549.009 226.268V239.909L540.68 244.706V243.645L548.1 239.38Z" fill="#BBBDBF"/>
<path d="M549.822 224.807V240.743L559.858 234.968V219.041L549.822 224.807Z" fill="white"/>
<path d="M550.674 239.118V225.454L559.003 220.668V234.323L550.674 239.118Z" fill="url(#paint31_linear)"/>
<path d="M558.096 233.783L558.117 221.232L559.003 220.668V234.323L550.674 239.118V238.042L558.096 233.783Z" fill="#BBBDBF"/>
<path d="M422.766 237.74V253.69L412.74 247.895V231.988L422.766 237.74Z" fill="white"/>
<path d="M421.91 252.051V238.39L413.581 233.613V247.257L421.91 252.051Z" fill="url(#paint32_linear)"/>
<path d="M414.491 246.725L414.477 234.165L413.581 233.613V247.257L421.91 252.051V250.987L414.491 246.725Z" fill="#D2D3D4"/>
<path d="M412.686 231.902V247.841L402.654 242.063V226.139L412.686 231.902Z" fill="white"/>
<path d="M411.845 246.213V232.549L403.507 227.775V241.413L411.845 246.213Z" fill="url(#paint33_linear)"/>
<path d="M404.414 240.881L404.402 228.327L403.507 227.775V241.413L411.845 246.213V245.146L404.414 240.881Z" fill="#D2D3D4"/>
<path d="M402.7 226.314V242.25L392.649 236.463V220.548L402.7 226.314Z" fill="white"/>
<path d="M401.836 240.631V226.961L393.51 222.176V235.819L401.836 240.631Z" fill="url(#paint34_linear)"/>
<path d="M394.417 235.284V222.734L393.51 222.176V235.819L401.836 240.631V239.549L394.417 235.284Z" fill="#D2D3D4"/>
<path d="M402.316 198.777V214.716L392.279 208.929V193.011L402.316 198.777Z" fill="#9D9FA2"/>
<path d="M401.472 213.085V199.421L393.146 194.638V208.279L401.472 213.085Z" fill="url(#paint35_linear)"/>
<path d="M394.053 207.753L394.03 195.193L393.146 194.638V208.279L401.472 213.085V212.009L394.053 207.753Z" fill="white"/>
<path d="M403.452 173.106V189.039L393.41 183.275V167.34L403.452 173.106Z" fill="#9D9FA2"/>
<path d="M402.585 187.414V173.748L394.253 168.976V182.628L402.585 187.414Z" fill="url(#paint36_linear)"/>
<path d="M395.178 182.088L395.146 169.531L394.253 168.976V182.628L402.585 187.414V186.353L395.178 182.088Z" fill="white"/>
<path d="M565.473 184.538L542.695 171.383L565.412 158.2L520.885 131.936L497.703 145.35L475.496 132.5L453.413 145.275L430.647 132.092L386.484 157.644L409.247 170.808L386.495 183.968L408.294 197.08L386.211 209.86L430.661 235.554L453.29 223.113L476.047 236.273L499.235 222.868L521.442 235.724L565.611 210.18L543.39 197.318L565.473 184.538Z" fill="#C7C8CA"/>
<path d="M565.473 181.639L542.695 168.464L565.496 155.293L520.899 129.015L497.703 142.434L475.496 129.579L453.413 142.359L430.647 129.173L386.495 154.732L409.262 167.892L386.326 180.592L408.294 194.155L386.211 206.939L430.661 233.159L453.29 220.191L476.062 233.093L499.235 219.958L521.456 232.518L565.573 206.864L543.39 194.397L565.473 181.639Z" fill="#C58236"/>
<path d="M499.227 193.635L476.047 207.036L476.062 233.067L499.227 219.958V193.635Z" fill="#2588AD"/>
<path d="M565.45 155.303L542.279 168.7V195.573L565.45 181.627V155.303Z" fill="#2588AD"/>
<path d="M565.412 128.96L542.641 142.121V168.988L565.496 155.292L565.412 128.96Z" fill="#D2D3D4"/>
<path d="M453.29 193.85L430.661 206.3V233.159L453.29 220.191V193.85Z" fill="#BBBDBF"/>
<path d="M521.442 206.473L499.235 193.612V219.97L521.442 232.518V206.473Z" fill="#EEEFF0"/>
<path d="M476.047 207.037L453.29 193.85V220.191L476.047 233.093V207.037Z" fill="#99D6FF"/>
<path d="M408.86 168.154L386.495 154.72L386.243 181.478L408.86 194.195V168.154Z" fill="#F3F4F5"/>
<path d="M409.247 141.545L386.484 128.362V154.703L409.247 167.59V141.545Z" fill="#F3F4F5"/>
<path d="M565.573 180.926L521.442 206.473V232.518L565.573 206.864V180.926Z" fill="#BBBDBF"/>
<path d="M386.211 180.581L386.128 207.413L430.661 233.159V206.312L386.211 180.581Z" fill="#EEEFF0"/>
<path d="M499.235 219.958V223.582L521.456 236.156V232.518L499.235 219.958Z" fill="#FEFEFE"/>
<path d="M430.661 233.159V236.797L453.29 223.818V220.191L430.661 233.159Z" fill="#E1E2E3"/>
<path d="M430.661 233.159L386.12 207.393V211.026L430.661 236.797V233.159Z" fill="#FEFEFE"/>
<path d="M453.29 220.177V220.191V223.818L476.047 236.708V233.081L453.29 220.177Z" fill="#FEFEFE"/>
<path d="M476.062 233.093L476.047 233.081V236.708L476.062 236.717L499.235 223.582V219.958L476.062 233.093Z" fill="#E1E2E3"/>
<path d="M565.573 206.875L521.456 232.517V236.155L565.573 210.505V206.875Z" fill="#E1E2E3"/>
<path d="M482.938 208.998V224.93L492.984 219.15V203.226L482.938 208.998Z" fill="white"/>
<path d="M483.791 223.3V209.64L492.117 204.857V218.503L483.791 223.3Z" fill="url(#paint37_linear)"/>
<path d="M491.213 217.968L491.236 205.421L492.117 204.857V218.503L483.791 223.3V222.233L491.213 217.968Z" fill="#BBBDBF"/>
<path d="M550.402 171.058V187.005L560.436 181.219V165.303L550.402 171.058Z" fill="white"/>
<path d="M551.257 185.369V171.717L559.595 166.931V180.569L551.257 185.369Z" fill="url(#paint38_linear)"/>
<path d="M558.69 180.046L558.696 167.481L559.595 166.931V180.569L551.257 185.369V184.299L558.69 180.046Z" fill="#BBBDBF"/>
<path d="M550.275 145.396V161.332L560.321 155.566V139.63L550.275 145.396Z" fill="#9D9FA2"/>
<path d="M551.142 159.707V146.043L559.457 141.272V154.921L551.142 159.707Z" fill="url(#paint39_linear)"/>
<path d="M558.55 154.366L558.561 141.818L559.457 141.272V154.921L551.142 159.707V158.64L558.55 154.366Z" fill="white"/>
<path d="M437.3 208.325V224.255L447.346 218.48V202.559L437.3 208.325Z" fill="white"/>
<path d="M438.161 222.627V208.972L446.479 204.186V217.836L438.161 222.627Z" fill="url(#paint40_linear)"/>
<path d="M445.572 217.295L445.583 204.744L446.479 204.186V217.836L438.161 222.627V221.569L445.572 217.295Z" fill="#D2D3D4"/>
<path d="M529.751 206.985V222.929L539.782 217.154V201.23L529.751 206.985Z" fill="white"/>
<path d="M530.597 221.292V207.632L538.941 202.855V216.513L530.597 221.292Z" fill="url(#paint41_linear)"/>
<path d="M538.031 215.966L538.043 203.418L538.941 202.855V216.513L530.597 221.292V220.226L538.031 215.966Z" fill="#BBBDBF"/>
<path d="M539.839 201.152V217.079L549.859 211.316V195.38L539.839 201.152Z" fill="white"/>
<path d="M540.68 215.455V201.785L549.009 197.014V210.666L540.68 215.455Z" fill="url(#paint42_linear)"/>
<path d="M548.1 210.123L548.122 197.569L549.009 197.014V210.666L540.68 215.455V214.391L548.1 210.123Z" fill="#BBBDBF"/>
<path d="M549.822 195.55V211.497L559.858 205.716V189.795L549.822 195.55Z" fill="white"/>
<path d="M550.674 209.861V196.203L559.003 191.417V205.072L550.674 209.861Z" fill="url(#paint43_linear)"/>
<path d="M558.096 204.534L558.117 191.986L559.003 191.417V205.072L550.674 209.861V208.805L558.096 204.534Z" fill="#BBBDBF"/>
<path d="M422.766 208.492V224.428L412.74 218.65V202.726L422.766 208.492Z" fill="white"/>
<path d="M421.91 222.803V209.139L413.581 204.353V218.003L421.91 222.803Z" fill="url(#paint44_linear)"/>
<path d="M414.491 217.468L414.477 204.914L413.581 204.353V218.003L421.91 222.803V221.727L414.491 217.468Z" fill="#D2D3D4"/>
<path d="M412.686 202.656V218.595L402.654 212.811V196.887L412.686 202.656Z" fill="white"/>
<path d="M411.845 216.962V203.301L403.507 198.521V212.165L411.845 216.962Z" fill="url(#paint45_linear)"/>
<path d="M404.414 211.63L404.402 199.07L403.507 198.521V212.165L411.845 216.962V215.886L404.414 211.63Z" fill="#D2D3D4"/>
<path d="M402.7 197.057V212.993L392.649 207.223V191.291L402.7 197.057Z" fill="white"/>
<path d="M401.836 211.362V197.698L393.51 192.93V206.579L401.836 211.362Z" fill="url(#paint46_linear)"/>
<path d="M394.417 206.03V193.476L393.51 192.93V206.579L401.836 211.362V210.298L394.417 206.03Z" fill="#D2D3D4"/>
<path d="M402.316 169.517V185.447L392.279 179.683V163.753L402.316 169.517Z" fill="#9D9FA2"/>
<path d="M401.472 183.822V170.158L393.146 165.393V179.036L401.472 183.822Z" fill="url(#paint47_linear)"/>
<path d="M394.053 178.487L394.03 165.936L393.146 165.393V179.036L401.472 183.822V182.764L394.053 178.487Z" fill="white"/>
<path d="M403.452 143.852V159.802L393.41 154.007V138.1L403.452 143.852Z" fill="#9D9FA2"/>
<path d="M402.585 158.162V144.513L394.253 139.725V153.362L402.585 158.162Z" fill="url(#paint48_linear)"/>
<path d="M395.178 152.836L395.146 140.277L394.253 139.725V153.362L402.585 158.162V157.101L395.178 152.836Z" fill="white"/>
<path d="M565.473 155.304L542.695 142.12L565.412 128.96L520.885 102.685L497.703 116.099L475.496 103.249L453.413 116.018L430.647 102.855L386.484 128.385L409.247 141.568L386.495 154.731L408.294 167.828L386.211 180.592L430.661 206.3L453.29 193.85L476.047 207.036L499.235 193.611L521.442 206.473L565.611 180.925L543.39 168.079L565.473 155.304Z" fill="#C7C8CA"/>
<path d="M565.473 152.037L542.695 138.862L565.496 125.696L520.899 99.4355L497.703 112.829L475.496 99.9791L453.413 112.76L430.647 99.588L386.495 125.126L409.262 138.298L386.326 150.996L408.294 164.562L386.211 177.34L430.661 203.574L453.29 190.601L476.062 203.493L499.235 190.359L521.456 202.924L565.573 177.268L543.39 164.815L565.473 152.037Z" fill="#C58236"/>
<path d="M499.227 164.035L476.047 177.437L476.062 203.482L499.227 190.359V164.035Z" fill="#BBBDBF"/>
<path d="M565.45 125.707L542.279 139.106V165.976L565.45 152.025V125.707Z" fill="#D2D3D4"/>
<path d="M565.412 99.3608L542.641 112.515V139.391L565.496 125.696L565.412 99.3608Z" fill="#D2D3D4"/>
<path d="M453.29 164.265L430.661 176.704V203.574L453.29 190.6V164.265Z" fill="#2588AD"/>
<path d="M521.442 176.885L499.235 164.027V190.365L521.442 202.924V176.885Z" fill="#99D6FF"/>
<path d="M476.047 177.437L453.29 164.265V190.6L476.047 203.493V177.437Z" fill="#EEEFF0"/>
<path d="M408.86 138.554L386.495 125.126L386.243 151.882L408.86 164.611V138.554Z" fill="#F3F4F5"/>
<path d="M409.247 111.949L386.484 98.7625V125.121L409.247 138.005V111.949Z" fill="#F3F4F5"/>
<path d="M565.573 151.329L521.442 176.885V202.924L565.573 177.267V151.329Z" fill="#2588AD"/>
<path d="M386.211 150.996L386.128 177.817L430.661 203.574V176.716L386.211 150.996Z" fill="#99D6FF"/>
<path d="M499.235 190.359V193.994L521.456 206.554V202.924L499.235 190.359Z" fill="#FEFEFE"/>
<path d="M430.661 203.574V207.201L453.29 194.23V190.601L430.661 203.574Z" fill="#E1E2E3"/>
<path d="M430.661 203.574L386.12 177.797V181.432L430.661 207.201V203.574Z" fill="#FEFEFE"/>
<path d="M453.29 190.601V194.23V194.222L476.047 207.109V203.482L453.29 190.601Z" fill="#FEFEFE"/>
<path d="M476.062 203.494L476.047 203.482V207.109L476.062 207.132L499.235 193.994V190.359L476.062 203.494Z" fill="#E1E2E3"/>
<path d="M565.573 177.279L521.456 202.924V206.553L565.573 180.9V177.279Z" fill="#E1E2E3"/>
<path d="M482.938 179.401V195.328L492.984 189.565V173.632L482.938 179.401Z" fill="white"/>
<path d="M483.791 193.704V180.046L492.117 175.272V188.921L483.791 193.704Z" fill="url(#paint49_linear)"/>
<path d="M491.213 188.369L491.236 175.818L492.117 175.272V188.921L483.791 193.704V192.64L491.213 188.369Z" fill="#BBBDBF"/>
<path d="M550.402 141.473V157.406L560.436 151.631V135.704L550.402 141.473Z" fill="white"/>
<path d="M551.257 155.781V142.121L559.595 137.335V150.981L551.257 155.781Z" fill="url(#paint50_linear)"/>
<path d="M558.69 150.449L558.696 137.896L559.595 137.335V150.981L551.257 155.781V154.703L558.69 150.449Z" fill="#D2D3D4"/>
<path d="M550.275 115.802V131.744L560.321 125.969V110.048L550.275 115.802Z" fill="#9D9FA2"/>
<path d="M551.142 130.107V116.461L559.457 111.67V125.319L551.142 130.107Z" fill="url(#paint51_linear)"/>
<path d="M558.55 124.784L558.561 112.23L559.457 111.67V125.319L551.142 130.107V129.055L558.55 124.784Z" fill="white"/>
<path d="M437.3 178.728V194.676L447.346 188.895V172.962L437.3 178.728Z" fill="white"/>
<path d="M438.161 193.03V179.375L446.479 174.598V188.251L438.161 193.03Z" fill="url(#paint52_linear)"/>
<path d="M445.572 187.71L445.583 175.162L446.479 174.598V188.251L438.161 193.03V191.972L445.572 187.71Z" fill="#D2D3D4"/>
<path d="M529.751 177.397V193.333L539.782 187.558V171.634L529.751 177.397Z" fill="white"/>
<path d="M530.597 191.708V178.047L538.941 173.27V186.91L530.597 191.708Z" fill="url(#paint53_linear)"/>
<path d="M538.031 186.37L538.043 173.822L538.941 173.27V186.91L530.597 191.708V190.643L538.031 186.37Z" fill="#BBBDBF"/>
<path d="M539.839 171.547V187.495L549.859 181.72V165.795L539.839 171.547Z" fill="white"/>
<path d="M540.68 185.858V172.209L549.009 167.42V181.075L540.68 185.858Z" fill="url(#paint54_linear)"/>
<path d="M548.1 180.535L548.122 167.981L549.009 167.42V181.075L540.68 185.858V184.806L548.1 180.535Z" fill="#BBBDBF"/>
<path d="M549.822 165.965V181.912L559.858 176.126V160.204L549.822 165.965Z" fill="white"/>
<path d="M550.674 180.267V166.606L559.003 161.832V175.473L550.674 180.267Z" fill="url(#paint55_linear)"/>
<path d="M558.096 174.946L558.117 162.384L559.003 161.832V175.473L550.674 180.267V179.206L558.096 174.946Z" fill="#BBBDBF"/>
<path d="M422.766 178.892V194.828L412.74 189.065V173.129L422.766 178.892Z" fill="white"/>
<path d="M421.91 193.203V179.542L413.581 174.771V188.415L421.91 193.203Z" fill="url(#paint56_linear)"/>
<path d="M414.491 187.88L414.477 175.329L413.581 174.771V188.415L421.91 193.203V192.133L414.491 187.88Z" fill="#D2D3D4"/>
<path d="M412.686 173.051V188.99L402.654 183.226V167.288L412.686 173.051Z" fill="white"/>
<path d="M411.845 187.362V173.702L403.507 168.913V182.583L411.845 187.362Z" fill="url(#paint57_linear)"/>
<path d="M404.414 182.025L404.402 169.48L403.507 168.913V182.583L411.845 187.362V186.301L404.414 182.025Z" fill="#D2D3D4"/>
<path d="M402.7 167.46V183.407L392.649 177.63V161.7L402.7 167.46Z" fill="white"/>
<path d="M401.836 181.768V168.113L393.51 163.33V176.977L401.836 181.768Z" fill="url(#paint58_linear)"/>
<path d="M394.417 176.442V163.894L393.51 163.33V176.977L401.836 181.768V180.713L394.417 176.442Z" fill="#D2D3D4"/>
<path d="M402.316 139.921V155.868L392.279 150.084V134.16L402.316 139.921Z" fill="#9D9FA2"/>
<path d="M401.472 154.226V140.579L393.146 135.788V149.443L401.472 154.226Z" fill="url(#paint59_linear)"/>
<path d="M394.053 148.902L394.03 136.354L393.146 135.788V149.443L401.472 154.226V153.173L394.053 148.902Z" fill="white"/>
<path d="M403.452 114.267V130.205L393.41 124.427V108.503L403.452 114.267Z" fill="#9D9FA2"/>
<path d="M402.585 128.577V114.916L394.253 110.128V123.777L402.585 128.577Z" fill="url(#paint60_linear)"/>
<path d="M395.178 123.239L395.146 110.677L394.253 110.128V123.777L402.585 128.577V127.502L395.178 123.239Z" fill="white"/>
<path d="M565.473 125.707L542.695 112.532L565.412 99.3605L520.885 73.0886L497.703 86.5107L475.496 73.6638L453.413 86.4273L430.647 73.2554L386.484 98.7968L409.247 111.969L386.495 125.126L408.294 138.232L386.211 151.007L430.661 176.704L453.29 164.254L476.047 177.437L499.235 164.026L521.442 176.885L565.611 151.329L543.39 138.479L565.473 125.707Z" fill="#C7C8CA"/>
<path d="M565.473 122.783L542.695 109.62L565.496 96.4447L520.899 70.1729L497.703 83.595L475.496 70.7337L453.413 83.5087L430.647 70.3368L386.495 95.8695L409.262 109.053L386.326 121.753L408.294 135.316L386.211 148.088L430.661 174.329L453.29 161.332L476.062 174.231L499.235 161.102L521.456 173.679L565.573 148.028L543.39 135.566L565.473 122.783Z" fill="#C58236"/>
<path d="M499.227 134.787L476.047 148.186L476.062 174.23L499.227 161.113V134.787Z" fill="#2588AD"/>
<path d="M565.45 96.4558L542.279 109.855V136.711L565.45 122.782V96.4558Z" fill="#2588AD"/>
<path d="M565.412 70.1096L542.641 83.27V110.14L565.496 96.4448L565.412 70.1096Z" fill="#D2D3D4"/>
<path d="M453.29 135.014L430.661 147.452V174.328L453.29 161.332V135.014Z" fill="#BBBDBF"/>
<path d="M521.442 147.622L499.235 134.775V161.113L521.442 173.678V147.622Z" fill="#EEEFF0"/>
<path d="M476.047 148.186L453.29 135.014V161.332L476.047 174.242V148.186Z" fill="#99D6FF"/>
<path d="M408.86 109.305L386.495 95.8689L386.243 122.63L408.86 135.347V109.305Z" fill="#F3F4F5"/>
<path d="M409.247 82.6975L386.484 69.5256V95.8694L409.247 108.739V82.6975Z" fill="#F3F4F5"/>
<path d="M565.573 122.081L521.442 147.622V173.678L565.573 148.028V122.081Z" fill="#BBBDBF"/>
<path d="M386.211 121.733L386.128 148.568L430.661 174.328V147.464L386.211 121.733Z" fill="#EEEFF0"/>
<path d="M499.235 161.093V161.102V164.728L521.456 177.308V173.678L499.235 161.093Z" fill="#FEFEFE"/>
<path d="M430.661 174.328V177.949L453.29 164.97V161.34L430.661 174.328Z" fill="#DAE1ED"/>
<path d="M430.661 174.328L386.12 148.557V152.175L430.661 177.961V177.949V174.328Z" fill="#FEFEFE"/>
<path d="M453.29 161.332V161.34V164.97L476.047 177.863V174.23L453.29 161.332Z" fill="#FEFEFE"/>
<path d="M476.062 174.23H476.047V177.863H476.062L499.235 164.728V161.102L476.062 174.23Z" fill="#E1E2E3"/>
<path d="M565.573 148.028L521.456 173.678V177.308V177.311L565.573 151.666V148.028Z" fill="#E1E2E3"/>
<path d="M482.938 150.147V166.094L492.984 160.308V144.386L482.938 150.147Z" fill="white"/>
<path d="M483.791 164.452V150.8L492.117 146.014V159.658L483.791 164.452Z" fill="url(#paint61_linear)"/>
<path d="M491.213 159.131L491.236 146.572L492.117 146.014V159.658L483.791 164.452V163.388L491.213 159.131Z" fill="#BBBDBF"/>
<path d="M550.402 112.207V128.155L560.436 122.374V106.456L550.402 112.207Z" fill="white"/>
<path d="M551.257 126.515V112.857L559.595 108.08V121.732L551.257 126.515Z" fill="url(#paint62_linear)"/>
<path d="M558.69 121.192L558.696 108.647L559.595 108.08V121.732L551.257 126.515V125.465L558.69 121.192Z" fill="#BBBDBF"/>
<path d="M550.275 86.5569V102.498L560.321 96.7176V80.7935L550.275 86.5569Z" fill="white"/>
<path d="M551.142 100.868V87.2069L559.457 82.4185V96.062L551.142 100.868Z" fill="url(#paint63_linear)"/>
<path d="M558.55 95.5357L558.561 82.9706L559.457 82.4185V96.062L551.142 100.868V99.7921L558.55 95.5357Z" fill="#BBBDBF"/>
<path d="M437.3 149.477V165.424L447.346 159.635V143.722L437.3 149.477Z" fill="white"/>
<path d="M438.161 163.788V150.135L446.479 145.35V158.991L438.161 163.788Z" fill="url(#paint64_linear)"/>
<path d="M445.572 158.464L445.583 145.902L446.479 145.35V158.991L438.161 163.788V162.715L445.572 158.464Z" fill="#D2D3D4"/>
<path d="M529.751 148.146V164.084L539.782 158.306V142.382L529.751 148.146Z" fill="white"/>
<path d="M530.597 162.456V148.796L538.941 144.007V157.656L530.597 162.456Z" fill="url(#paint65_linear)"/>
<path d="M538.031 157.119L538.043 144.571L538.941 144.007V157.656L530.597 162.456V161.381L538.031 157.119Z" fill="#BBBDBF"/>
<path d="M539.839 142.313V158.243L549.859 152.453V136.541L539.839 142.313Z" fill="white"/>
<path d="M540.68 156.615V142.955L549.009 138.175V151.807L540.68 156.615Z" fill="url(#paint66_linear)"/>
<path d="M548.1 151.286L548.122 138.721L549.009 138.175V151.807L540.68 156.615V155.543L548.1 151.286Z" fill="#BBBDBF"/>
<path d="M549.822 136.711V152.644L559.858 146.869V130.948L549.822 136.711Z" fill="white"/>
<path d="M550.674 151.016V137.355L559.003 132.572V146.219L550.674 151.016Z" fill="url(#paint67_linear)"/>
<path d="M558.096 145.684L558.117 133.13L559.003 132.572V146.219L550.674 151.016V149.96L558.096 145.684Z" fill="#BBBDBF"/>
<path d="M422.766 149.641V165.588L412.74 159.802V143.889L422.766 149.641Z" fill="white"/>
<path d="M421.91 163.952V150.302L413.581 145.514V159.157L421.91 163.952Z" fill="url(#paint68_linear)"/>
<path d="M414.491 158.625L414.477 146.072L413.581 145.514V159.157L421.91 163.952V162.888L414.491 158.625Z" fill="#D2D3D4"/>
<path d="M412.686 143.808V159.744L402.654 153.963V138.042L412.686 143.808Z" fill="white"/>
<path d="M411.845 158.111V144.45L403.507 139.676V153.314L411.845 158.111Z" fill="url(#paint69_linear)"/>
<path d="M404.414 152.79L404.402 140.228L403.507 139.676V153.314L411.845 158.111V157.05L404.414 152.79Z" fill="#D2D3D4"/>
<path d="M402.7 138.221V154.153L392.649 148.379V132.454L402.7 138.221Z" fill="white"/>
<path d="M401.836 152.528V138.862L393.51 134.079V147.731L401.836 152.528Z" fill="url(#paint70_linear)"/>
<path d="M394.417 147.191V134.631L393.51 134.079V147.731L401.836 152.528V151.447L394.417 147.191Z" fill="#D2D3D4"/>
<path d="M402.316 110.677V126.616L392.279 120.832V104.914L402.316 110.677Z" fill="#9D9FA2"/>
<path d="M401.472 124.989V111.322L393.146 106.539V120.191L401.472 124.989Z" fill="url(#paint71_linear)"/>
<path d="M394.053 119.651L394.03 107.094L393.146 106.539V120.191L401.472 124.989V123.91L394.053 119.651Z" fill="white"/>
<path d="M403.452 85.0039V100.942L393.41 95.1762V79.2405L403.452 85.0039Z" fill="#9D9FA2"/>
<path d="M402.585 99.3145V85.6537L394.253 80.8767V94.526L402.585 99.3145Z" fill="url(#paint72_linear)"/>
<path d="M395.178 93.9939L395.146 81.4404L394.253 80.8767V94.526L402.585 99.3145V98.2446L395.178 93.9939Z" fill="white"/>
<path d="M565.473 96.4559L542.695 83.284L565.412 70.1093L520.885 43.8374L497.703 57.2509L475.496 44.3982L453.413 57.1819L430.647 43.9956L386.484 69.5456L409.247 82.7175L386.495 95.8692L408.294 108.978L386.211 121.753L430.661 147.452L453.29 135.014L476.047 148.186L499.235 134.775L521.442 147.622L565.611 122.081L543.39 109.231L565.473 96.4559Z" fill="#C7C8CA"/>
<path d="M499.281 311.905V318.874L521.511 331.43V324.465L499.281 311.905Z" fill="#EEEFF0"/>
<path d="M430.719 325.115V332.077L453.344 319.104V312.138L430.719 325.115Z" fill="#BBBDBF"/>
<path d="M430.719 325.114L386.188 299.34V306.309L430.719 332.086V332.077V325.114Z" fill="#EEEFF0"/>
<path d="M453.344 312.138V319.104L476.096 331.994V325.028L453.344 312.138Z" fill="#EEEFF0"/>
<path d="M476.11 325.046L476.096 325.028V331.994L476.11 332.002L499.281 318.874V311.905L476.11 325.046Z" fill="#BBBDBF"/>
<path d="M565.622 298.829L521.51 324.479V324.465V331.431V331.445L565.622 305.788V298.829Z" fill="#BBBDBF"/>
<path d="M499.281 128.788V135.75L521.511 148.33V141.364L499.281 128.788Z" fill="#EEEFF0"/>
<path d="M430.719 142V148.971L453.344 135.992V129.032L430.719 142Z" fill="#BBBDBF"/>
<path d="M430.719 142.011L386.188 116.228V123.194L430.719 148.971V141.999V142.011Z" fill="#EEEFF0"/>
<path d="M431.172 115.475L386.63 89.7063V96.6719L431.172 122.449V122.438V115.475Z" fill="#EEEFF0"/>
<path d="M431.057 88.9528L386.516 63.1755V70.1497L431.057 95.9155V88.9384V88.9528Z" fill="#EEEFF0"/>
<path d="M453.344 129.032V135.992L476.096 148.879V141.916L453.344 129.032Z" fill="#EEEFF0"/>
<path d="M476.11 141.934L476.096 141.916V148.879L476.11 148.891L499.281 135.75V128.788L476.11 141.934Z" fill="#BBBDBF"/>
<path d="M542.199 103.821L542.187 103.813V110.787L542.199 110.798L565.369 97.6609V90.6953L542.199 103.821Z" fill="#BBBDBF"/>
<path d="M542.199 77.0634H542.187V84.0261L542.199 84.0405L565.369 70.9002V63.9404L542.199 77.0634Z" fill="#9D9FA2"/>
<path d="M565.622 115.719L521.51 141.364V148.33L565.622 122.676V115.719Z" fill="#BBBDBF"/>
<path d="M547.746 75.5561L567.083 64.3542V59.7383L543.751 73.2495L547.746 75.5561Z" fill="#9D9FA2"/>
<path d="M383.594 59.1663V63.7707L402.961 74.9812L406.942 72.6718L383.594 59.1663Z" fill="#C1C3C7"/>
<path d="M383.594 86.0908L383.605 90.77L402.054 101.86L405.958 99.5992L383.594 86.0908Z" fill="#C1C3C7"/>
<path d="M548.461 102.162L567.117 91.3741V86.7495L544.48 99.8495L548.461 102.162Z" fill="#9D9FA2"/>
<path d="M548.461 102.162L544.48 99.8496L563.122 89.059L567.117 86.7496L547.747 75.5564L543.751 73.2498L563.122 62.0192L567.083 59.7386L521.41 32.8081L497.636 46.5552L474.859 33.3804L452.222 46.4804L428.879 32.9663L383.594 59.1663L387.572 61.4613L406.942 72.6718L402.961 74.9812L383.605 86.1514L387.506 88.5125L405.958 99.5994L402.055 101.86L383.318 112.688L387.313 115.012L428.888 139.055L452.096 126.283L475.43 139.8L499.201 126.035L521.978 139.227L563.271 115.334L567.252 113.021L548.461 102.162Z" fill="#EEEFF0"/>
<path d="M414.729 99.8267L392.586 112.573L397.471 115.371L414.729 105.426V99.8267Z" fill="#8A8C8E"/>
<path d="M553.576 115.466L558.438 112.665L535.99 99.7205V105.317L553.576 115.466Z" fill="#A1A3A6"/>
<path d="M416.144 73.0886L392.804 86.7753L397.534 89.5995L416.144 78.6881V73.0886Z" fill="#8A8C8E"/>
<path d="M553.051 89.7923L557.87 86.9767L535.095 73.7358V79.3296L553.051 89.7923Z" fill="#A1A3A6"/>
<path d="M553.806 63.0025L520.985 43.8601L496.491 58.1594L474.136 44.976L452.437 57.6072L429.071 44.0758L397.31 62.1771L416.144 73.0885L416.136 73.3272L416.144 78.688L397.534 89.5994L414.729 99.8263V105.426L397.471 115.371L429.444 133.78L452.653 120.801L475.221 133.921L498.839 120.366L521.864 133.814L553.576 115.466L535.99 105.316V99.7199L553.051 89.792L535.095 79.3293V73.7356L553.806 63.0025Z" fill="#C7C8CA"/>
<path d="M521.978 139.227H521.967V143.832L521.978 143.843L567.252 117.646V113.021L521.978 139.227Z" fill="#9D9FA2"/>
<path d="M499.201 126.035L499.181 126.052V130.657H499.201L521.967 143.832V139.227L499.201 126.035Z" fill="#C1C3C7"/>
<path d="M499.181 126.052L475.462 139.771V144.386L499.181 130.657V126.052Z" fill="#9D9FA2"/>
<path d="M475.43 139.799L452.095 126.282V130.895L475.43 144.398L475.461 144.386V139.77L475.43 139.799Z" fill="#C1C3C7"/>
<path d="M428.888 139.055L383.318 112.688V117.301L428.888 143.659V143.647V139.043V139.055Z" fill="#C1C3C7"/>
<path d="M452.096 126.282L428.888 139.043V143.647L452.096 130.895V126.282Z" fill="#9D9FA2"/>
<path d="M392.434 59.3591L397.31 62.1776L429.057 44.0849V38.4883L392.434 59.3591Z" fill="#8A8C8E"/>
<path d="M429.071 38.4827L429.057 38.4884V44.085L429.071 44.0764L452.426 57.6078V52.014L429.071 38.4827Z" fill="#C7C8CA"/>
<path d="M452.437 52.0141H452.426V57.6078H452.437L474.135 44.9766V39.3743L452.437 52.0141Z" fill="#8A8C8E"/>
<path d="M474.136 39.3743V44.9766L496.477 58.16V52.5605L474.136 39.3743Z" fill="#C7C8CA"/>
<path d="M520.985 38.2495L496.491 52.5603H496.477V58.1598H496.491L520.985 43.8605V38.2668V38.2495Z" fill="#8A8C8E"/>
<path d="M558.65 60.2159L520.985 38.2666V43.8603L553.806 63.0027L558.65 60.2159Z" fill="#A1A3A6"/>
<g style="mix-blend-mode:multiply" opacity="0.4">
<path d="M529.917 57.6796C528.381 56.8555 526.656 56.449 524.914 56.5005C524.78 56.4748 524.643 56.468 524.507 56.4803H524.363L524.257 56.5005L523.804 56.5436C523.804 56.5436 523.781 56.5436 523.761 56.5436L517.004 57.254L518.459 59.7589C518.172 60.9524 518.798 62.2179 520.423 63.1497L525.049 65.1628L529.182 63.6961C529.282 63.6446 529.378 63.5859 529.469 63.5207C529.67 63.4315 529.877 63.3539 530.061 63.2532C532.667 61.7232 532.624 59.2326 529.917 57.6796Z" fill="#A7A9AC"/>
</g>
<path d="M526.143 56.391C524.657 55.6217 523.012 55.214 521.34 55.201C519.668 55.188 518.016 55.5701 516.519 56.3162C513.884 57.8347 513.936 60.3253 516.643 61.8841C518.13 62.6524 519.777 63.0597 521.451 63.0732C523.125 63.0867 524.778 62.706 526.278 61.9617C528.898 60.4432 528.835 57.944 526.143 56.391Z" fill="#D6CCC2"/>
<path d="M526.143 56.391C524.657 55.6217 523.012 55.214 521.34 55.201C519.668 55.188 518.016 55.5701 516.519 56.3162C513.884 57.8347 513.936 60.3253 516.643 61.8841C518.13 62.6524 519.777 63.0597 521.451 63.0732C523.125 63.0867 524.778 62.706 526.278 61.9617C528.898 60.4432 528.835 57.944 526.143 56.391ZM518.422 55.8848H524.363C524.459 55.8856 524.55 55.9236 524.617 55.9908C524.685 56.058 524.724 56.149 524.725 56.2443C524.721 56.3393 524.682 56.4294 524.615 56.4966C524.548 56.5638 524.458 56.6031 524.363 56.6067H518.422C518.375 56.606 518.329 56.596 518.286 56.5774C518.243 56.5588 518.205 56.5319 518.172 56.4982C518.14 56.4646 518.114 56.4248 518.097 56.3813C518.08 56.3377 518.071 56.2912 518.072 56.2443C518.07 56.1974 518.078 56.1507 518.095 56.107C518.112 56.0632 518.138 56.0233 518.171 55.9898C518.203 55.9562 518.242 55.9296 518.286 55.9115C518.329 55.8935 518.375 55.8844 518.422 55.8848ZM516.413 57.0496H526.548C526.606 57.0496 526.664 57.0612 526.717 57.0836C526.771 57.106 526.82 57.1389 526.861 57.1803C526.902 57.2218 526.935 57.2709 526.957 57.325C526.979 57.3791 526.99 57.437 526.99 57.4954C526.99 57.5534 526.979 57.6109 526.957 57.6645C526.934 57.7181 526.902 57.7667 526.861 57.8074C526.819 57.8482 526.771 57.8802 526.717 57.9017C526.663 57.9232 526.605 57.9337 526.548 57.9325H516.427C516.369 57.9341 516.311 57.9239 516.256 57.9027C516.201 57.8815 516.152 57.8496 516.109 57.809C516.067 57.7683 516.034 57.7196 516.01 57.6658C515.987 57.612 515.975 57.554 515.974 57.4954C515.975 57.3761 516.024 57.2623 516.109 57.1788C516.194 57.0953 516.308 57.0488 516.427 57.0496H516.413ZM524.564 62.4305H518.629C518.422 62.4305 518.267 62.2119 518.267 61.9502C518.267 61.6885 518.422 61.4728 518.629 61.4728H524.564C524.754 61.4728 524.914 61.6885 524.914 61.9502C524.914 62.2119 524.754 62.4305 524.564 62.4305ZM526.593 60.9724H516.462C516.212 60.9724 516.017 60.7222 516.017 60.3972C516.017 60.0722 516.212 59.8048 516.462 59.8048H526.593C526.846 59.8048 527.027 60.0665 527.027 60.3972C527.027 60.728 526.846 60.9925 526.593 60.9925V60.9724ZM527.4 59.2957H515.474C515.411 59.2973 515.348 59.286 515.289 59.2627C515.23 59.2394 515.176 59.2044 515.131 59.1599C515.086 59.1153 515.05 59.0622 515.026 59.0035C515.001 58.9448 514.989 58.8819 514.989 58.8183C514.993 58.6924 515.046 58.5731 515.137 58.4859C515.228 58.3988 515.349 58.3508 515.474 58.3524H527.4C527.525 58.3524 527.645 58.4021 527.733 58.4906C527.821 58.579 527.871 58.699 527.871 58.8241C527.871 58.9492 527.821 59.0691 527.733 59.1576C527.645 59.246 527.525 59.2957 527.4 59.2957Z" fill="white"/>
<path d="M528.23 59.1434V62.0366C528.17 62.6185 527.951 63.1725 527.596 63.637C527.242 64.1016 526.765 64.4585 526.22 64.6681C524.706 65.3811 523.053 65.7508 521.38 65.7508C519.707 65.7508 518.054 65.3811 516.539 64.6681C516.004 64.46 515.535 64.111 515.182 63.658C514.828 63.2049 514.603 62.6647 514.53 62.0942L514.588 58.9795C514.648 59.5957 514.864 60.1863 515.216 60.6955C515.567 61.2048 516.043 61.6158 516.597 61.89C518.102 62.6069 519.747 62.9825 521.414 62.9899C523.081 62.9974 524.729 62.6366 526.241 61.9331C526.791 61.6889 527.266 61.3013 527.615 60.8106C527.965 60.3199 528.177 59.7442 528.23 59.1434Z" fill="#787371"/>
<g style="mix-blend-mode:multiply" opacity="0.4">
<path d="M434.837 113.948C433.297 113.115 431.564 112.705 429.815 112.76C429.668 112.76 429.528 112.74 429.404 112.74H429.272H429.166L428.713 112.792H428.667L421.916 113.508L423.368 116.015C423.081 117.203 423.71 118.454 425.323 119.403L429.947 121.417L434.103 119.956C434.203 119.881 434.295 119.838 434.39 119.774C434.591 119.677 434.794 119.605 434.981 119.487C437.584 117.985 437.541 115.501 434.837 113.948Z" fill="#A7A9AC"/>
</g>
<path d="M431.057 112.653C429.57 111.884 427.923 111.476 426.249 111.462C424.576 111.448 422.922 111.829 421.422 112.573C418.813 114.097 418.859 116.585 421.56 118.143C423.044 118.914 424.69 119.322 426.361 119.335C428.033 119.348 429.684 118.965 431.181 118.218C433.804 116.714 433.744 114.221 431.057 112.653Z" fill="#D6CCC2"/>
<path d="M431.057 112.653C429.57 111.884 427.923 111.476 426.249 111.462C424.576 111.448 422.922 111.829 421.422 112.573C418.813 114.097 418.859 116.585 421.56 118.143C423.044 118.914 424.69 119.322 426.361 119.335C428.033 119.348 429.684 118.965 431.181 118.218C433.804 116.714 433.744 114.221 431.057 112.653ZM423.339 112.141H429.278C429.327 112.137 429.377 112.143 429.425 112.159C429.472 112.175 429.515 112.2 429.552 112.234C429.589 112.268 429.618 112.309 429.638 112.354C429.658 112.4 429.669 112.449 429.669 112.499C429.669 112.549 429.658 112.599 429.638 112.644C429.618 112.69 429.589 112.731 429.552 112.765C429.515 112.798 429.472 112.824 429.425 112.84C429.377 112.856 429.327 112.862 429.278 112.857H423.339C423.29 112.862 423.24 112.856 423.193 112.84C423.145 112.824 423.102 112.798 423.065 112.765C423.029 112.731 422.999 112.69 422.979 112.644C422.959 112.599 422.949 112.549 422.949 112.499C422.949 112.449 422.959 112.4 422.979 112.354C422.999 112.309 423.029 112.268 423.065 112.234C423.102 112.2 423.145 112.175 423.193 112.159C423.24 112.143 423.29 112.137 423.339 112.141ZM421.33 113.312H431.45C431.509 113.309 431.567 113.318 431.622 113.339C431.677 113.359 431.727 113.39 431.77 113.431C431.813 113.471 431.847 113.519 431.87 113.573C431.894 113.627 431.906 113.685 431.907 113.743C431.908 113.804 431.898 113.864 431.875 113.92C431.853 113.976 431.819 114.027 431.777 114.069C431.734 114.112 431.683 114.145 431.627 114.167C431.571 114.189 431.511 114.2 431.45 114.198H421.345C421.285 114.198 421.226 114.187 421.17 114.165C421.115 114.142 421.065 114.109 421.022 114.066C420.98 114.024 420.947 113.973 420.924 113.918C420.902 113.863 420.89 113.803 420.891 113.743C420.893 113.685 420.906 113.628 420.929 113.575C420.953 113.521 420.987 113.473 421.029 113.433C421.071 113.393 421.12 113.362 421.175 113.341C421.229 113.32 421.287 113.31 421.345 113.312H421.33ZM429.467 118.707H423.546C423.339 118.707 423.184 118.486 423.184 118.224C423.184 117.962 423.339 117.758 423.546 117.758H429.482C429.674 117.758 429.829 117.962 429.829 118.224C429.829 118.486 429.674 118.707 429.482 118.707H429.467ZM431.476 117.269H421.376C421.129 117.269 420.926 117.007 420.926 116.668C420.913 116.533 420.953 116.398 421.037 116.291C421.12 116.184 421.242 116.113 421.376 116.093H431.499C431.763 116.093 431.944 116.355 431.944 116.668C431.944 116.982 431.763 117.258 431.499 117.258L431.476 117.269ZM432.306 115.569H420.366C420.24 115.569 420.118 115.519 420.029 115.43C419.94 115.34 419.889 115.219 419.889 115.092C419.889 114.965 419.94 114.844 420.029 114.754C420.118 114.665 420.24 114.615 420.366 114.615H432.306C432.432 114.615 432.553 114.665 432.643 114.754C432.732 114.844 432.782 114.965 432.782 115.092C432.782 115.219 432.732 115.34 432.643 115.43C432.553 115.519 432.432 115.569 432.306 115.569Z" fill="white"/>
<path d="M433.144 115.417V118.293C433.085 118.877 432.866 119.432 432.512 119.899C432.157 120.365 431.68 120.724 431.135 120.936C429.62 121.649 427.968 122.019 426.294 122.019C424.621 122.019 422.968 121.649 421.454 120.936C420.921 120.729 420.454 120.38 420.103 119.928C419.752 119.476 419.531 118.937 419.462 118.368L419.491 115.256C419.553 115.87 419.77 116.457 420.121 116.964C420.473 117.47 420.947 117.878 421.5 118.149C423.006 118.865 424.651 119.24 426.318 119.248C427.984 119.256 429.633 118.898 431.146 118.198C431.699 117.959 432.177 117.574 432.529 117.085C432.881 116.595 433.093 116.018 433.144 115.417Z" fill="#787371"/>
<g style="mix-blend-mode:multiply" opacity="0.4">
<path d="M435.363 58.735C433.818 57.9139 432.087 57.5096 430.34 57.5616C430.219 57.5616 430.07 57.5415 429.935 57.5415H429.812H429.706L429.267 57.5875H429.195L422.458 58.3036L423.894 60.8057C423.799 61.5098 423.94 62.2253 424.295 62.8404C424.65 63.4555 425.198 63.9354 425.854 64.2051L430.486 66.201L434.628 64.7314C434.731 64.6828 434.827 64.6219 434.915 64.5502C435.119 64.4776 435.317 64.3911 435.509 64.2914C438.138 62.7873 438.069 60.2909 435.363 58.735Z" fill="#A7A9AC"/>
</g>
<path d="M431.589 57.4375C430.103 56.6724 428.458 56.2676 426.788 56.2556C425.117 56.2437 423.467 56.6248 421.971 57.3685C419.336 58.8956 419.387 61.3948 422.106 62.945C423.592 63.7114 425.237 64.117 426.909 64.129C428.581 64.1409 430.232 63.759 431.729 63.014C434.341 61.5099 434.281 59.0049 431.589 57.4375Z" fill="#D6CCC2"/>
<path d="M431.589 57.4375C430.103 56.6724 428.458 56.2676 426.788 56.2556C425.117 56.2437 423.467 56.6248 421.971 57.3685C419.336 58.8956 419.387 61.3948 422.106 62.945C423.592 63.7114 425.237 64.117 426.909 64.129C428.581 64.1409 430.232 63.759 431.729 63.014C434.341 61.5099 434.281 59.0049 431.589 57.4375ZM423.865 56.9371H429.798C429.845 56.9375 429.891 56.9471 429.934 56.9656C429.977 56.984 430.017 57.0109 430.049 57.0446C430.082 57.0783 430.108 57.1181 430.125 57.1619C430.143 57.2056 430.151 57.2524 430.151 57.2995C430.152 57.3462 430.143 57.3928 430.126 57.4362C430.109 57.4797 430.083 57.5191 430.05 57.5522C430.017 57.5853 429.977 57.6113 429.934 57.6287C429.891 57.646 429.844 57.6544 429.798 57.6532H423.865C423.819 57.6532 423.774 57.644 423.732 57.6261C423.689 57.6082 423.651 57.5819 423.619 57.5489C423.587 57.5159 423.562 57.4768 423.546 57.434C423.53 57.3911 423.522 57.3454 423.523 57.2995C423.521 57.2061 423.556 57.1156 423.62 57.0478C423.684 56.9799 423.772 56.9401 423.865 56.9371ZM421.876 58.1133H432.01C432.067 58.1126 432.123 58.123 432.175 58.1441C432.227 58.1651 432.274 58.1964 432.315 58.236C432.355 58.2756 432.386 58.3227 432.408 58.3748C432.43 58.4268 432.441 58.4826 432.441 58.539C432.444 58.5977 432.435 58.6564 432.415 58.7116C432.395 58.7668 432.364 58.8173 432.323 58.86C432.283 58.9028 432.235 58.9369 432.181 58.9603C432.127 58.9837 432.069 58.996 432.01 58.9963H421.876C421.816 58.9975 421.756 58.9864 421.7 58.9638C421.645 58.9412 421.594 58.9075 421.552 58.8648C421.509 58.8221 421.476 58.7711 421.454 58.7151C421.432 58.6591 421.421 58.5992 421.422 58.539C421.427 58.4228 421.477 58.3131 421.562 58.2338C421.647 58.1546 421.76 58.1123 421.876 58.1162V58.1133ZM430.013 63.5086H424.074C423.885 63.5086 423.727 63.2929 423.727 63.0255C423.727 62.758 423.885 62.5481 424.074 62.5481H430.021C430.217 62.5481 430.374 62.7638 430.374 63.0255C430.374 63.2872 430.208 63.5086 430.013 63.5086ZM432.045 62.0477H421.91C421.661 62.0477 421.468 61.7917 421.468 61.4725C421.468 61.1532 421.661 60.8973 421.91 60.8973H432.045C432.173 60.9324 432.286 61.0087 432.366 61.1145C432.447 61.2202 432.49 61.3495 432.49 61.4825C432.49 61.6155 432.447 61.7448 432.366 61.8506C432.286 61.9563 432.173 62.0326 432.045 62.0678V62.0477ZM432.851 60.3595H420.917C420.791 60.3595 420.67 60.3092 420.58 60.2196C420.491 60.1301 420.441 60.0087 420.441 59.8821C420.441 59.7554 420.491 59.634 420.58 59.5445C420.67 59.4549 420.791 59.4047 420.917 59.4047H432.854C432.981 59.4047 433.102 59.4549 433.191 59.5445C433.281 59.634 433.331 59.7554 433.331 59.8821C433.331 60.0087 433.281 60.1301 433.191 60.2196C433.102 60.3092 432.981 60.3595 432.854 60.3595H432.851Z" fill="white"/>
<path d="M433.669 60.199V63.0749C433.61 63.6573 433.391 64.2119 433.037 64.677C432.682 65.142 432.205 65.4994 431.66 65.7093C430.15 66.4307 428.498 66.8051 426.825 66.8051C425.152 66.8051 423.501 66.4307 421.991 65.7093C421.455 65.5048 420.985 65.1579 420.631 64.706C420.277 64.254 420.052 63.714 419.981 63.1439L420.016 60.0408C420.079 60.6539 420.297 61.241 420.648 61.747C420.999 62.253 421.473 62.6614 422.025 62.934C423.528 63.6521 425.17 64.0286 426.835 64.0366C428.499 64.0445 430.145 63.6837 431.654 62.98C432.209 62.7412 432.689 62.3567 433.044 61.8672C433.398 61.3777 433.614 60.8013 433.669 60.199Z" fill="#787371"/>
<g style="mix-blend-mode:multiply" opacity="0.4">
<path d="M512.65 87.9341L510.346 97.5859L521.579 97.7354L528.514 94.0283L513.956 85.7944L512.65 87.9341Z" fill="#A7A9AC"/>
</g>
<path d="M510.257 95.1271L492.622 84.9203L502.74 79.0735L520.374 89.263L510.257 95.1271Z" fill="white"/>
<path d="M520.374 91.6672L510.257 97.5169V95.127L520.374 89.2629V91.6672Z" fill="#787371"/>
<path d="M510.257 97.5173L492.622 87.3249V84.9207L510.257 95.1274V97.5173Z" fill="#D6CCC2"/>
<g style="mix-blend-mode:multiply" opacity="0.4">
<path d="M510.435 86.5855L509.008 92.5876L513.807 92.4352L518.821 89.5535L511.253 85.2424L510.435 86.5855Z" fill="#A7A9AC"/>
</g>
<path d="M508.959 90.5086L497.533 83.9026L503.319 80.5549L514.734 87.1696L508.959 90.5086Z" fill="white"/>
<path d="M514.734 89.2516L508.959 92.605V90.5084L514.734 87.1694V89.2516Z" fill="#787371"/>
<path d="M508.959 92.6052L497.533 85.9819V83.9026L508.959 90.5087V92.6052Z" fill="#D6CCC2"/>
<g style="mix-blend-mode:multiply" opacity="0.4">
<path d="M495.955 97.7557L493.673 107.399L504.895 107.571L511.829 103.836L497.281 95.6189L495.955 97.7557Z" fill="#A7A9AC"/>
</g>
<path d="M493.572 104.932L475.938 94.7449L486.061 88.8779L503.693 99.0991L493.572 104.932Z" fill="white"/>
<path d="M503.693 101.486L493.572 107.353V104.931L503.693 99.0986V101.486Z" fill="#787371"/>
<path d="M493.572 107.353L475.938 97.1377V94.7449L493.572 104.932V107.353Z" fill="#D6CCC2"/>
<g style="mix-blend-mode:multiply" opacity="0.4">
<path d="M493.756 96.3925L492.312 102.412L497.126 102.259L502.14 99.3605L494.548 95.0667L493.756 96.3925Z" fill="#A7A9AC"/>
</g>
<path d="M492.281 100.333L480.852 93.7095L486.627 90.3792L498.053 96.9939L492.281 100.333Z" fill="white"/>
<path d="M498.053 99.0758L492.281 102.418V100.333L498.053 96.9937V99.0758Z" fill="#787371"/>
<path d="M492.281 102.417L480.852 95.8056V93.709L492.281 100.332V102.417Z" fill="#D6CCC2"/>
<g style="mix-blend-mode:multiply" opacity="0.4">
<path d="M477.144 109.435L474.859 119.078L486.093 119.248L493.03 115.512L478.458 107.298L477.144 109.435Z" fill="#A7A9AC"/>
</g>
<path d="M474.759 116.611L457.127 106.421L467.247 100.554L484.89 110.776L474.759 116.611Z" fill="white"/>
<path d="M484.89 113.162L474.758 119.032V116.61L484.89 110.775V113.162Z" fill="#787371"/>
<path d="M474.759 119.032L457.127 108.814V106.421L474.759 116.611V119.032Z" fill="#D6CCC2"/>
<g style="mix-blend-mode:multiply" opacity="0.4">
<path d="M474.939 108.069L473.513 114.086L478.32 113.933L483.337 111.037L475.746 106.746L474.939 108.069Z" fill="#A7A9AC"/>
</g>
<path d="M473.475 112.018L462.049 105.403L467.824 102.056L479.25 108.673L473.475 112.018Z" fill="white"/>
<path d="M479.25 110.752L473.476 114.097V112.018L479.25 108.673V110.752Z" fill="#787371"/>
<path d="M473.475 114.097L462.049 107.486V105.403L473.475 112.018V114.097Z" fill="#D6CCC2"/>
<g style="mix-blend-mode:multiply" opacity="0.5">
<path d="M475.665 60.7337L474.474 65.7695L479.115 65.0275L484.873 61.7L478.513 58.1597L475.665 60.7337Z" fill="#89898A"/>
</g>
<path d="M468.834 62.4277L474.474 65.7696L474.466 58.5883L468.834 55.2666V62.4277Z" fill="#F7F1F1"/>
<path d="M474.474 65.7696L480.157 62.4421L480.149 55.2666L474.466 58.5883L474.474 65.7696Z" fill="#CAC4C4"/>
<path d="M479.85 56.2441V61.6797L474.882 64.593V59.1661L479.85 56.2441Z" fill="url(#paint73_linear)"/>
<path d="M479.85 61.5762V61.6797L474.882 64.57V64.4521L479.85 61.5762Z" fill="#8B8787"/>
<path d="M479.85 60.4346V60.5065L474.882 63.4256V63.3048L479.85 60.4346Z" fill="#8B8787"/>
<path d="M479.85 59.2551V59.3587L474.882 62.2634V62.1455L479.85 59.2551Z" fill="#8B8787"/>
<path d="M479.85 58.1135V58.1912L474.882 61.0988V60.9837L479.85 58.1135Z" fill="#8B8787"/>
<path d="M479.85 56.9602V57.035L474.882 59.9483V59.8362L479.85 56.9602Z" fill="#8B8787"/>
<path d="M475.278 58.9475V64.3457L475.192 64.4003V58.982L475.278 58.9475Z" fill="#8B8787"/>
<path d="M475.654 58.7087V64.1155L475.585 64.1616L475.577 58.7576L475.654 58.7087Z" fill="#8B8787"/>
<path d="M476.041 58.4934L476.047 63.9031L475.973 63.952V58.5394L476.041 58.4934Z" fill="#8B8787"/>
<path d="M476.435 58.2661V63.6729L476.346 63.7247V58.3121L476.435 58.2661Z" fill="#8B8787"/>
<path d="M476.822 58.0388V63.4456L476.745 63.4974L476.733 58.0848L476.822 58.0388Z" fill="#8B8787"/>
<path d="M477.198 57.8235V63.2332L477.129 63.2821V57.8753L477.198 57.8235Z" fill="#8B8787"/>
<path d="M477.594 57.5962V63.003L477.502 63.0548V57.6422L477.594 57.5962Z" fill="#8B8787"/>
<path d="M477.982 57.3689V62.7728L477.887 62.8246V57.4207L477.982 57.3689Z" fill="#8B8787"/>
<path d="M478.366 57.1531V62.5484L478.277 62.6001V57.1962L478.366 57.1531Z" fill="#8B8787"/>
<path d="M478.754 56.9141V62.3266L478.662 62.3698V56.9601L478.754 56.9141Z" fill="#8B8787"/>
<path d="M479.124 56.6987V62.1113L479.047 62.1544V56.7476L479.124 56.6987Z" fill="#8B8787"/>
<path d="M479.514 56.4688L479.523 61.8842L479.445 61.9273V56.5176L479.514 56.4688Z" fill="#8B8787"/>
<path d="M474.041 59.1661L474.055 64.57L469.087 61.6682V56.2441L474.041 59.1661Z" fill="url(#paint74_linear)"/>
<path d="M474.055 64.4521V64.57L469.087 61.6797V61.5762L474.055 64.4521Z" fill="#B8B4B4"/>
<path d="M474.041 63.3048V63.4256L469.087 60.5122V60.4346L474.041 63.3048Z" fill="#B8B4B4"/>
<path d="M474.041 62.1459V62.2638L469.087 59.3591V59.2671L474.041 62.1459Z" fill="#B8B4B4"/>
<path d="M474.041 60.9837V61.0988L469.087 58.2056V58.1135L474.041 60.9837Z" fill="#B8B4B4"/>
<path d="M474.041 59.8362V59.9483L469.087 57.0494V56.9602L474.041 59.8362Z" fill="#B8B4B4"/>
<path d="M473.748 58.982V64.3859L473.668 64.3457V58.9475L473.748 58.982Z" fill="#B8B4B4"/>
<path d="M473.349 58.7576V64.1615L473.283 64.1155V58.7202L473.349 58.7576Z" fill="#B8B4B4"/>
<path d="M472.973 58.5394V63.9405L472.887 63.9031V58.4934L472.973 58.5394Z" fill="#B8B4B4"/>
<path d="M472.589 58.3236V63.7074L472.502 63.6614V58.2776L472.589 58.3236Z" fill="#B8B4B4"/>
<path d="M472.195 58.0848V63.4974L472.124 63.4456L472.112 58.0388L472.195 58.0848Z" fill="#B8B4B4"/>
<path d="M471.805 57.8753V63.2648L471.73 63.2188V57.8235L471.805 57.8753Z" fill="#B8B4B4"/>
<path d="M471.435 57.6422V63.0375L471.343 62.9915V57.5962L471.435 57.6422Z" fill="#B8B4B4"/>
<path d="M471.036 57.4207L471.047 62.8246L470.958 62.7728V57.3689L471.036 57.4207Z" fill="#B8B4B4"/>
<path d="M470.651 57.1962V62.5886L470.568 62.534V57.1531L470.651 57.1962Z" fill="#B8B4B4"/>
<path d="M470.267 56.9601V62.3698L470.192 62.3266V56.9141L470.267 56.9601Z" fill="#B8B4B4"/>
<path d="M469.879 56.7476V62.1458L469.813 62.094V56.6987L469.879 56.7476Z" fill="#B8B4B4"/>
<path d="M469.503 56.5174V61.9155L469.414 61.8667V56.48L469.503 56.5174Z" fill="#B8B4B4"/>
<path d="M468.834 55.2666L474.486 51.9622L480.149 55.2666L474.486 58.5884L468.834 55.2666Z" fill="#ECECEC"/>
<path d="M474.486 52.3645L469.541 55.2865L474.486 58.1797L479.431 55.2778L474.486 52.3645Z" fill="#DADADA"/>
<g style="mix-blend-mode:multiply" opacity="0.5">
<path d="M463.229 67.8974L462.027 72.9246L466.668 72.1999L472.411 68.8753L466.065 65.3091L463.229 67.8974Z" fill="#89898A"/>
</g>
<path d="M456.375 69.5978L462.027 72.9253V65.7699L456.375 62.4424V69.5978Z" fill="#F7F1F1"/>
<path d="M462.027 72.9247L467.71 69.5973V62.4275L462.027 65.7694V72.9247Z" fill="#CAC4C4"/>
<path d="M467.405 63.3936V68.8521L462.434 71.7482V66.3385L467.405 63.3936Z" fill="url(#paint75_linear)"/>
<path d="M467.405 68.7461V68.8295L462.434 71.7486V71.6278L467.405 68.7461Z" fill="#8B8787"/>
<path d="M467.405 67.5903V67.6824L462.434 70.5756V70.4692L467.405 67.5903Z" fill="#8B8787"/>
<path d="M467.405 66.4365V66.5228L462.434 69.4246V69.3067L467.405 66.4365Z" fill="#8B8787"/>
<path d="M467.405 65.2778V65.3612L462.434 68.2832V68.148L467.405 65.2778Z" fill="#8B8787"/>
<path d="M467.405 64.116V64.208L462.434 67.107V66.9862L467.405 64.116Z" fill="#8B8787"/>
<path d="M462.819 66.1003L462.833 71.5071L462.753 71.5589L462.741 66.1521L462.819 66.1003Z" fill="#8B8787"/>
<path d="M463.218 65.8901V71.2969L463.134 71.3315V65.9362L463.218 65.8901Z" fill="#8B8787"/>
<path d="M463.605 65.657V71.0523L463.513 71.104V65.7087L463.605 65.657Z" fill="#8B8787"/>
<path d="M463.978 65.4299V70.8425L463.901 70.8885V65.4817L463.978 65.4299Z" fill="#8B8787"/>
<path d="M464.371 65.2031V70.6099L464.297 70.6617L464.271 65.252L464.371 65.2031Z" fill="#8B8787"/>
<path d="M464.75 64.9756V70.3881L464.67 70.4342V65.0274L464.75 64.9756Z" fill="#8B8787"/>
<path d="M465.138 64.7656V70.1724L465.055 70.2156V64.8088L465.138 64.7656Z" fill="#8B8787"/>
<path d="M465.531 64.5295V69.945L465.453 69.991V64.5813L465.531 64.5295Z" fill="#8B8787"/>
<path d="M465.915 64.3115V69.7183L465.841 69.7615V64.3547L465.915 64.3115Z" fill="#8B8787"/>
<path d="M466.292 64.0898V69.5024L466.214 69.5455V64.1416L466.292 64.0898Z" fill="#8B8787"/>
<path d="M466.691 63.8655V69.2752L466.602 69.3068V63.9115L466.691 63.8655Z" fill="#8B8787"/>
<path d="M467.078 63.6387V69.0455L466.983 69.0915V63.6904L467.078 63.6387Z" fill="#8B8787"/>
<path d="M461.605 66.3392V71.7288L456.625 68.8298V63.4058L461.605 66.3392Z" fill="url(#paint76_linear)"/>
<path d="M461.605 71.6279V71.7487L456.625 68.8296V68.7634L461.605 71.6279Z" fill="#B8B4B4"/>
<path d="M461.605 70.4692V70.5928L456.625 67.6824V67.5903L461.605 70.4692Z" fill="#B8B4B4"/>
<path d="M461.605 69.3067V69.4246L456.625 66.5343V66.4365L461.605 69.3067Z" fill="#B8B4B4"/>
<path d="M461.605 68.148V68.2832L456.625 65.3612V65.2778L461.605 68.148Z" fill="#B8B4B4"/>
<path d="M461.605 67.0006V67.1185L456.625 64.208V64.1304L461.605 67.0006Z" fill="#B8B4B4"/>
<path d="M461.3 66.1521V71.5589L461.211 71.5071V66.1003L461.3 66.1521Z" fill="#B8B4B4"/>
<path d="M460.913 65.9362V71.32L460.827 71.2854V65.8901L460.913 65.9362Z" fill="#B8B4B4"/>
<path d="M460.517 65.7087V71.104L460.448 71.0523V65.657L460.517 65.7087Z" fill="#B8B4B4"/>
<path d="M460.141 65.4817V70.8885L460.052 70.8425V65.4299L460.141 65.4817Z" fill="#B8B4B4"/>
<path d="M459.759 65.2635V70.6502L459.664 70.6099V65.2146L459.759 65.2635Z" fill="#B8B4B4"/>
<path d="M459.36 65.0274V70.4342L459.291 70.3881V64.9756L459.36 65.0274Z" fill="#B8B4B4"/>
<path d="M458.973 64.8088V70.2069L458.904 70.1609L458.895 64.7656L458.973 64.8088Z" fill="#B8B4B4"/>
<path d="M458.597 64.5818V69.9771L458.508 69.934V64.5444L458.597 64.5818Z" fill="#B8B4B4"/>
<path d="M458.2 64.3547L458.215 69.7615L458.12 69.7183V64.3115L458.2 64.3547Z" fill="#B8B4B4"/>
<path d="M457.816 64.1416V69.5369L457.738 69.488V64.0898L457.816 64.1416Z" fill="#B8B4B4"/>
<path d="M457.443 63.9115V69.3068L457.363 69.2637V63.8655L457.443 63.9115Z" fill="#B8B4B4"/>
<path d="M457.044 63.6904L457.055 69.0915L456.978 69.0455V63.6387L457.044 63.6904Z" fill="#B8B4B4"/>
<path d="M456.375 62.4418L462.035 59.1201L467.71 62.4275L462.035 65.7693L456.375 62.4418Z" fill="#ECECEC"/>
<path d="M462.035 59.5542L457.081 62.4302L462.026 65.3406L466.983 62.4302L462.035 59.5542Z" fill="#DADADA"/>
<g style="mix-blend-mode:multiply" opacity="0.5">
<path d="M449.986 75.0733L448.784 80.1091L453.428 79.3815L459.168 76.0569L452.822 72.5137L449.986 75.0733Z" fill="#89898A"/>
</g>
<path d="M443.132 76.7841L448.784 80.1087V72.9476L443.132 69.6201V76.7841Z" fill="#F7F1F1"/>
<path d="M448.784 80.1087L454.461 76.7841V69.6201L448.784 72.9476V80.1087Z" fill="#CAC4C4"/>
<path d="M454.171 70.604V76.0338L449.191 78.95V73.5202L454.171 70.604Z" fill="url(#paint77_linear)"/>
<path d="M454.171 75.936V76.0166L449.191 78.927V78.8091L454.171 75.936Z" fill="#8B8787"/>
<path d="M454.171 74.7769V74.8631L449.191 77.7793V77.6586L454.171 74.7769Z" fill="#8B8787"/>
<path d="M454.171 73.6179V73.7071L449.191 76.6175V76.4996L454.171 73.6179Z" fill="#8B8787"/>
<path d="M454.171 72.4705V72.5539L449.191 75.4615V75.3407L454.171 72.4705Z" fill="#8B8787"/>
<path d="M454.171 71.3088V71.3894L449.191 74.3113V74.1877L454.171 71.3088Z" fill="#8B8787"/>
<path d="M449.579 73.2932L449.593 78.7L449.51 78.7518L449.498 73.3392L449.579 73.2932Z" fill="#8B8787"/>
<path d="M449.978 73.0657V78.4725L449.894 78.5185V73.1174L449.978 73.0657Z" fill="#8B8787"/>
<path d="M450.356 72.8499V78.2567L450.27 78.2883V72.8987L450.356 72.8499Z" fill="#8B8787"/>
<path d="M450.735 72.6233V78.0186L450.658 78.0675V72.6722L450.735 72.6233Z" fill="#8B8787"/>
<path d="M451.123 72.396L451.131 77.8028L451.054 77.8488L451.045 72.4449L451.123 72.396Z" fill="#8B8787"/>
<path d="M451.519 72.1685V77.5868L451.438 77.6242V72.2202L451.519 72.1685Z" fill="#8B8787"/>
<path d="M451.901 71.9385V77.3453L451.812 77.3913V71.9845L451.901 71.9385Z" fill="#8B8787"/>
<path d="M452.291 71.7288V77.1384L452.211 77.1845L452.191 71.7748L452.291 71.7288Z" fill="#8B8787"/>
<path d="M452.675 71.4985V76.9053L452.598 76.9485V71.5474L452.675 71.4985Z" fill="#8B8787"/>
<path d="M453.063 71.2769V76.675L452.968 76.7268V71.32L453.063 71.2769Z" fill="#8B8787"/>
<path d="M453.436 71.0525L453.445 76.4593L453.364 76.5111V71.1043L453.436 71.0525Z" fill="#8B8787"/>
<path d="M453.835 70.8315V76.2211L453.743 76.2729V70.8661L453.835 70.8315Z" fill="#8B8787"/>
<path d="M448.364 73.5202V78.927L443.396 76.0051V70.604L448.364 73.5202Z" fill="url(#paint78_linear)"/>
<path d="M448.364 78.8091V78.927L443.396 76.0338V75.936L448.364 78.8091Z" fill="#B8B4B4"/>
<path d="M448.364 77.659V77.7798L443.396 74.8636V74.7888L448.364 77.659Z" fill="#B8B4B4"/>
<path d="M448.364 76.4996V76.6175L443.396 73.7071V73.6179L448.364 76.4996Z" fill="#B8B4B4"/>
<path d="M448.364 75.3407V75.4615L443.396 72.5539V72.4705L448.364 75.3407Z" fill="#B8B4B4"/>
<path d="M448.364 74.1874V74.3111L443.396 71.3891V71.3201L448.364 74.1874Z" fill="#B8B4B4"/>
<path d="M448.057 73.3392V78.7345L447.968 78.6885V73.2932L448.057 73.3392Z" fill="#B8B4B4"/>
<path d="M447.67 73.1174V78.5185L447.59 78.4725V73.0657L447.67 73.1174Z" fill="#B8B4B4"/>
<path d="M447.274 72.8987V78.2797L447.208 78.2423V72.8499L447.274 72.8987Z" fill="#B8B4B4"/>
<path d="M446.898 72.6722V78.0675L446.812 78.0186V72.6233L446.898 72.6722Z" fill="#B8B4B4"/>
<path d="M446.516 72.4449V77.8373L446.422 77.8028V72.396L446.516 72.4449Z" fill="#B8B4B4"/>
<path d="M446.117 72.2316V77.6126L446.045 77.5637V72.177L446.117 72.2316Z" fill="#B8B4B4"/>
<path d="M445.73 72.0015V77.3911L445.664 77.3451V71.9526L445.73 72.0015Z" fill="#B8B4B4"/>
<path d="M445.356 71.7748V77.1701L445.276 77.1212V71.7288L445.356 71.7748Z" fill="#B8B4B4"/>
<path d="M444.957 71.5473L444.972 76.9426L444.891 76.8909V71.5071L444.957 71.5473Z" fill="#B8B4B4"/>
<path d="M444.584 71.32V76.7268L444.507 76.675L444.493 71.2769L444.584 71.32Z" fill="#B8B4B4"/>
<path d="M444.2 71.1043V76.4996L444.12 76.4478V71.0525L444.2 71.1043Z" fill="#B8B4B4"/>
<path d="M443.801 70.8776L443.815 76.2729L443.712 76.2211V70.8315L443.801 70.8776Z" fill="#B8B4B4"/>
<path d="M443.132 69.6202L448.792 66.3071L454.461 69.6202L448.792 72.9477L443.132 69.6202Z" fill="#ECECEC"/>
<path d="M448.792 66.7271L443.847 69.6203L448.792 72.525L453.743 69.6203L448.792 66.7271Z" fill="#DADADA"/>
</g>
<path fill-rule="evenodd" clip-rule="evenodd" d="M318.602 270.657C320.083 270.656 319.565 272.93 319.565 272.93C319.565 272.93 315.633 273.637 314.679 272.93C314.39 272.716 312.321 270.506 313.369 270.146C314.646 269.707 317.7 270.657 318.602 270.657Z" fill="#F2BD98"/>
<path fill-rule="evenodd" clip-rule="evenodd" d="M364.993 354.182C366.475 354.181 369.62 360.853 369.62 360.853C369.62 360.853 369.272 363.101 368.331 363.327C367.2 363.599 362.823 358.472 362.476 358.215C362.188 358.001 361.087 354.542 362.136 354.182C363.413 353.743 364.091 354.183 364.993 354.182Z" fill="#192952"/>
<path fill-rule="evenodd" clip-rule="evenodd" d="M354.713 354.031C355.602 355.711 354.713 356.483 352.691 358.514C350.67 360.544 346.379 362.318 345.437 362.544C344.306 362.815 343.866 360.504 343.866 358.932C343.866 357.359 349.762 354.391 350.811 354.031C352.088 353.592 353.824 352.351 354.713 354.031Z" fill="#192952"/>
<path fill-rule="evenodd" clip-rule="evenodd" d="M344.613 279.387L350.407 284.876C350.407 284.876 354.825 299.906 352.678 317.799C351.739 325.623 356.391 348.289 354.825 354.265C353.806 358.157 350.407 354.265 350.407 354.265C350.407 354.265 340.903 315.704 340.903 307.736C340.903 299.768 344.613 279.387 344.613 279.387Z" fill="#070707"/>
<path fill-rule="evenodd" clip-rule="evenodd" d="M354.632 240.541C354.763 241.229 355.534 244.19 355.534 244.19L348.775 245.724L349.641 242.028C349.641 242.028 354.312 238.856 354.632 240.541Z" fill="url(#paint79_linear)"/>
<path fill-rule="evenodd" clip-rule="evenodd" d="M344.305 281.498H361.718C361.718 281.498 365.478 303.777 366.136 311.989C368.291 338.912 366.935 351.376 366.136 354.429C365.116 358.32 361.718 354.429 361.718 354.429C361.718 354.429 352.213 317.843 352.213 309.875C352.213 305.976 344.849 301.571 342.639 293.204C341.838 290.171 344.305 281.498 344.305 281.498Z" fill="#0D0D0D"/>
<path fill-rule="evenodd" clip-rule="evenodd" d="M342.97 247.261C344.83 247.261 347.535 246.946 349.913 250.815C350.809 252.273 345.571 267.264 342.429 270.657C341.664 271.483 337.377 273.51 329.563 274.128C326.511 274.37 318.602 273.067 318.602 273.067C318.602 273.067 319.011 271.426 318.602 270.657C318.114 269.741 334.414 269.115 334.556 267.264C335.229 258.501 340.903 247.261 342.97 247.261Z" fill="#130A5E"/>
<path fill-rule="evenodd" clip-rule="evenodd" d="M346.164 245.036C347.898 244.195 346.995 244.688 346.995 244.688C346.995 244.688 346.454 245.286 347.698 248.715C348.121 249.878 349.536 252.86 350.196 253.514C350.855 254.168 351.523 254.046 352.311 253.292C353.708 251.953 357.285 243.769 357.285 243.769C357.285 243.769 366.195 246.335 367.297 252.865C368.399 259.396 362.141 283.082 362.141 283.082L344.265 281.498C344.265 281.498 340.4 262.55 340.903 256.006C341.406 249.462 341.918 247.095 346.164 245.036Z" fill="url(#paint80_linear)"/>
<path fill-rule="evenodd" clip-rule="evenodd" d="M355.857 234.649C355.947 235.178 356.379 234.233 356.576 235.142C356.652 235.494 356.615 236.152 356.576 236.77C356.536 237.386 356.645 238.213 356.393 238.213C356.141 238.213 356.109 238.075 356.099 238.213C355.947 240.405 353.41 241.653 353.058 241.79C352.707 241.927 348.546 243.57 346.688 242.017C344.356 240.067 345.643 231.91 346.027 231.064C347.19 228.498 351.518 229.103 353.704 230.447C355.244 231.395 355.634 233.328 355.857 234.649Z" fill="#F2B897"/>
<path fill-rule="evenodd" clip-rule="evenodd" d="M357.227 230.575C356.907 235.03 355.869 234.94 355.869 234.94C355.869 234.94 354.127 231.211 353.109 230.872C349.718 229.745 346.583 232.737 345.63 231.941C343.298 229.991 345.369 227.498 346.411 227.07C349.569 225.772 354.241 226.376 355.367 227.07C356.907 228.017 357.322 229.249 357.227 230.575Z" fill="#1A2542"/>
<path fill-rule="evenodd" clip-rule="evenodd" d="M360.337 287.148C361.819 287.147 361.851 289.036 361.851 289.036L360.729 291.153L358.291 287.725C358.291 287.725 359.946 287.148 360.337 287.148Z" fill="#F2BD97"/>
<g filter="url(#filter1_d)">
<path fill-rule="evenodd" clip-rule="evenodd" d="M358.355 248.851C359.152 244.982 363.703 244.982 366.081 248.851C366.977 250.309 371.36 257.992 372.641 265.529C373.626 271.322 361.549 289.905 361.549 289.905L359.755 287.24C359.755 287.24 367.234 269.367 365.127 266.957C358.94 259.88 358.01 250.527 358.355 248.851Z" fill="#0D073F"/>
</g>
<path fill-rule="evenodd" clip-rule="evenodd" d="M349.442 243.686L355.554 242.962C355.554 242.962 356.969 243.341 357.202 243.531C357.435 243.721 353.716 251.654 352.746 252.794C351.777 253.933 351.602 253.834 351.171 253.729C350.74 253.623 350.186 252.954 350.186 252.954C350.186 252.954 346.352 245.044 347.473 244.455C348.594 243.866 349.442 243.686 349.442 243.686Z" fill="white"/>
<path fill-rule="evenodd" clip-rule="evenodd" d="M350.932 244.155L353.882 243.795L352.262 246.191C352.262 246.191 353.124 252.334 352.878 252.514C352.761 252.6 352.39 253.414 351.201 253.766C350.713 253.91 349.718 253.136 349.718 253.136L351.645 246.191L350.932 244.155Z" fill="black"/>
<defs>
<filter id="filter0_d" x="0.51825" y="0" width="780.218" height="533" filterUnits="userSpaceOnUse" color-interpolation-filters="sRGB">
<feFlood flood-opacity="0" result="BackgroundImageFix"/>
<feColorMatrix in="SourceAlpha" type="matrix" values="0 0 0 0 0 0 0 0 0 0 0 0 0 0 0 0 0 0 127 0"/>
<feOffset dy="17"/>
<feGaussianBlur stdDeviation="9"/>
<feColorMatrix type="matrix" values="0 0 0 0 0 0 0 0 0 0 0 0 0 0 0 0 0 0 0.0890789 0"/>
<feBlend mode="normal" in2="BackgroundImageFix" result="effect1_dropShadow"/>
<feBlend mode="normal" in="SourceGraphic" in2="effect1_dropShadow" result="shape"/>
</filter>
<filter id="filter1_d" x="354.293" y="243.949" width="22.4056" height="51.9561" filterUnits="userSpaceOnUse" color-interpolation-filters="sRGB">
<feFlood flood-opacity="0" result="BackgroundImageFix"/>
<feColorMatrix in="SourceAlpha" type="matrix" values="0 0 0 0 0 0 0 0 0 0 0 0 0 0 0 0 0 0 127 0"/>
<feOffset dy="2"/>
<feGaussianBlur stdDeviation="2"/>
<feColorMatrix type="matrix" values="0 0 0 0 1 0 0 0 0 1 0 0 0 0 1 0 0 0 0.0455638 0"/>
<feBlend mode="normal" in2="BackgroundImageFix" result="effect1_dropShadow"/>
<feBlend mode="normal" in="SourceGraphic" in2="effect1_dropShadow" result="shape"/>
</filter>
<linearGradient id="paint0_linear" x1="0.991294" y1="215.765" x2="255.106" y2="712.384" gradientUnits="userSpaceOnUse">
<stop stop-color="white"/>
<stop offset="1" stop-color="#91B5D2"/>
</linearGradient>
<linearGradient id="paint1_linear" x1="487.953" y1="289.6" x2="487.953" y2="321.132" gradientUnits="userSpaceOnUse">
<stop stop-color="#4F748F"/>
<stop offset="1" stop-color="#415E73"/>
</linearGradient>
<linearGradient id="paint2_linear" x1="1051.22" y1="1659.06" x2="1051.22" y2="1861.44" gradientUnits="userSpaceOnUse">
<stop stop-color="#4F748F"/>
<stop offset="1" stop-color="#415E73"/>
</linearGradient>
<linearGradient id="paint3_linear" x1="1049.37" y1="1468.23" x2="1049.37" y2="1670.43" gradientUnits="userSpaceOnUse">
<stop stop-color="#4F748F"/>
<stop offset="1" stop-color="#415E73"/>
</linearGradient>
<linearGradient id="paint4_linear" x1="609.148" y1="1934.56" x2="609.148" y2="2136.77" gradientUnits="userSpaceOnUse">
<stop stop-color="#4F748F"/>
<stop offset="1" stop-color="#415E73"/>
</linearGradient>
<linearGradient id="paint5_linear" x1="970.871" y1="1923.74" x2="970.871" y2="2125.69" gradientUnits="userSpaceOnUse">
<stop stop-color="#4F748F"/>
<stop offset="1" stop-color="#415E73"/>
</linearGradient>
<linearGradient id="paint6_linear" x1="1009.43" y1="1881.39" x2="1009.43" y2="2083.62" gradientUnits="userSpaceOnUse">
<stop stop-color="#4F748F"/>
<stop offset="1" stop-color="#415E73"/>
</linearGradient>
<linearGradient id="paint7_linear" x1="1048.43" y1="1839.53" x2="1048.43" y2="2041.62" gradientUnits="userSpaceOnUse">
<stop stop-color="#4F748F"/>
<stop offset="1" stop-color="#415E73"/>
</linearGradient>
<linearGradient id="paint8_linear" x1="417.746" y1="289.09" x2="417.746" y2="320.631" gradientUnits="userSpaceOnUse">
<stop stop-color="#76ACD4"/>
<stop offset="1" stop-color="#6897B8"/>
</linearGradient>
<linearGradient id="paint9_linear" x1="54118.3" y1="1893.47" x2="54118.3" y2="2095.92" gradientUnits="userSpaceOnUse">
<stop stop-color="#76ACD4"/>
<stop offset="1" stop-color="#6897B8"/>
</linearGradient>
<linearGradient id="paint10_linear" x1="54063.3" y1="1851.29" x2="54063.3" y2="2053.56" gradientUnits="userSpaceOnUse">
<stop stop-color="#76ACD4"/>
<stop offset="1" stop-color="#6897B8"/>
</linearGradient>
<linearGradient id="paint11_linear" x1="54064" y1="1646.96" x2="54064" y2="1849.19" gradientUnits="userSpaceOnUse">
<stop stop-color="#76ACD4"/>
<stop offset="1" stop-color="#6897B8"/>
</linearGradient>
<linearGradient id="paint12_linear" x1="54098.9" y1="1457.57" x2="54098.9" y2="1660.03" gradientUnits="userSpaceOnUse">
<stop stop-color="#76ACD4"/>
<stop offset="1" stop-color="#6897B8"/>
</linearGradient>
<linearGradient id="paint13_linear" x1="787.336" y1="1722.34" x2="787.336" y2="1924.45" gradientUnits="userSpaceOnUse">
<stop stop-color="#4F748F"/>
<stop offset="1" stop-color="#415E73"/>
</linearGradient>
<linearGradient id="paint14_linear" x1="1051.22" y1="1441.66" x2="1051.22" y2="1643.85" gradientUnits="userSpaceOnUse">
<stop stop-color="#4F748F"/>
<stop offset="1" stop-color="#415E73"/>
</linearGradient>
<linearGradient id="paint15_linear" x1="1049.37" y1="1251.81" x2="1049.37" y2="1454.14" gradientUnits="userSpaceOnUse">
<stop stop-color="#4F748F"/>
<stop offset="1" stop-color="#415E73"/>
</linearGradient>
<linearGradient id="paint16_linear" x1="609.148" y1="1717.83" x2="609.148" y2="1920.03" gradientUnits="userSpaceOnUse">
<stop stop-color="#4F748F"/>
<stop offset="1" stop-color="#415E73"/>
</linearGradient>
<linearGradient id="paint17_linear" x1="970.871" y1="1708.76" x2="970.871" y2="1911.22" gradientUnits="userSpaceOnUse">
<stop stop-color="#4F748F"/>
<stop offset="1" stop-color="#415E73"/>
</linearGradient>
<linearGradient id="paint18_linear" x1="1009.43" y1="1664.61" x2="1009.43" y2="1866.81" gradientUnits="userSpaceOnUse">
<stop stop-color="#4F748F"/>
<stop offset="1" stop-color="#415E73"/>
</linearGradient>
<linearGradient id="paint19_linear" x1="1048.43" y1="1623.95" x2="1048.43" y2="1826.41" gradientUnits="userSpaceOnUse">
<stop stop-color="#4F748F"/>
<stop offset="1" stop-color="#415E73"/>
</linearGradient>
<linearGradient id="paint20_linear" x1="54043.6" y1="1718.84" x2="54043.6" y2="1920.99" gradientUnits="userSpaceOnUse">
<stop stop-color="#76ACD4"/>
<stop offset="1" stop-color="#6897B8"/>
</linearGradient>
<linearGradient id="paint21_linear" x1="54118.2" y1="1675.78" x2="54118.2" y2="1877.98" gradientUnits="userSpaceOnUse">
<stop stop-color="#76ACD4"/>
<stop offset="1" stop-color="#6897B8"/>
</linearGradient>
<linearGradient id="paint22_linear" x1="54063.3" y1="1635.13" x2="54063.3" y2="1837.59" gradientUnits="userSpaceOnUse">
<stop stop-color="#76ACD4"/>
<stop offset="1" stop-color="#6897B8"/>
</linearGradient>
<linearGradient id="paint23_linear" x1="54064" y1="1430.6" x2="54064" y2="1632.92" gradientUnits="userSpaceOnUse">
<stop stop-color="#76ACD4"/>
<stop offset="1" stop-color="#6897B8"/>
</linearGradient>
<linearGradient id="paint24_linear" x1="54098.9" y1="1239.87" x2="54098.9" y2="1441.99" gradientUnits="userSpaceOnUse">
<stop stop-color="#76ACD4"/>
<stop offset="1" stop-color="#6897B8"/>
</linearGradient>
<linearGradient id="paint25_linear" x1="787.336" y1="1500.91" x2="787.336" y2="1703.14" gradientUnits="userSpaceOnUse">
<stop stop-color="#4F748F"/>
<stop offset="1" stop-color="#415E73"/>
</linearGradient>
<linearGradient id="paint26_linear" x1="1051.22" y1="1219.65" x2="1051.22" y2="1421.81" gradientUnits="userSpaceOnUse">
<stop stop-color="#4F748F"/>
<stop offset="1" stop-color="#415E73"/>
</linearGradient>
<linearGradient id="paint27_linear" x1="1049.37" y1="1030.12" x2="1049.37" y2="1232.59" gradientUnits="userSpaceOnUse">
<stop stop-color="#4F748F"/>
<stop offset="1" stop-color="#415E73"/>
</linearGradient>
<linearGradient id="paint28_linear" x1="609.148" y1="1496" x2="609.148" y2="1698.21" gradientUnits="userSpaceOnUse">
<stop stop-color="#4F748F"/>
<stop offset="1" stop-color="#415E73"/>
</linearGradient>
<linearGradient id="paint29_linear" x1="970.871" y1="1486.82" x2="970.871" y2="1689.29" gradientUnits="userSpaceOnUse">
<stop stop-color="#4F748F"/>
<stop offset="1" stop-color="#415E73"/>
</linearGradient>
<linearGradient id="paint30_linear" x1="1009.43" y1="1442.77" x2="1009.43" y2="1644.98" gradientUnits="userSpaceOnUse">
<stop stop-color="#4F748F"/>
<stop offset="1" stop-color="#415E73"/>
</linearGradient>
<linearGradient id="paint31_linear" x1="1048.43" y1="1402.01" x2="1048.43" y2="1604.45" gradientUnits="userSpaceOnUse">
<stop stop-color="#4F748F"/>
<stop offset="1" stop-color="#415E73"/>
</linearGradient>
<linearGradient id="paint32_linear" x1="54043.6" y1="1497.21" x2="54043.6" y2="1699.43" gradientUnits="userSpaceOnUse">
<stop stop-color="#76ACD4"/>
<stop offset="1" stop-color="#6897B8"/>
</linearGradient>
<linearGradient id="paint33_linear" x1="54118.2" y1="1453.95" x2="54118.2" y2="1656.15" gradientUnits="userSpaceOnUse">
<stop stop-color="#76ACD4"/>
<stop offset="1" stop-color="#6897B8"/>
</linearGradient>
<linearGradient id="paint34_linear" x1="54063.3" y1="1413.54" x2="54063.3" y2="1616.12" gradientUnits="userSpaceOnUse">
<stop stop-color="#76ACD4"/>
<stop offset="1" stop-color="#6897B8"/>
</linearGradient>
<linearGradient id="paint35_linear" x1="54064" y1="1208.82" x2="54064" y2="1411.23" gradientUnits="userSpaceOnUse">
<stop stop-color="#76ACD4"/>
<stop offset="1" stop-color="#6897B8"/>
</linearGradient>
<linearGradient id="paint36_linear" x1="54098.9" y1="1018.2" x2="54098.9" y2="1220.39" gradientUnits="userSpaceOnUse">
<stop stop-color="#76ACD4"/>
<stop offset="1" stop-color="#6897B8"/>
</linearGradient>
<linearGradient id="paint37_linear" x1="787.336" y1="1284.43" x2="787.336" y2="1486.77" gradientUnits="userSpaceOnUse">
<stop stop-color="#4F748F"/>
<stop offset="1" stop-color="#415E73"/>
</linearGradient>
<linearGradient id="paint38_linear" x1="1051.22" y1="1003.03" x2="1051.22" y2="1205.24" gradientUnits="userSpaceOnUse">
<stop stop-color="#4F748F"/>
<stop offset="1" stop-color="#415E73"/>
</linearGradient>
<linearGradient id="paint39_linear" x1="1049.37" y1="812.763" x2="1049.37" y2="1014.9" gradientUnits="userSpaceOnUse">
<stop stop-color="#4F748F"/>
<stop offset="1" stop-color="#415E73"/>
</linearGradient>
<linearGradient id="paint40_linear" x1="609.148" y1="1279.29" x2="609.148" y2="1481.57" gradientUnits="userSpaceOnUse">
<stop stop-color="#4F748F"/>
<stop offset="1" stop-color="#415E73"/>
</linearGradient>
<linearGradient id="paint41_linear" x1="970.871" y1="1269.28" x2="970.871" y2="1471.46" gradientUnits="userSpaceOnUse">
<stop stop-color="#4F748F"/>
<stop offset="1" stop-color="#415E73"/>
</linearGradient>
<linearGradient id="paint42_linear" x1="1009.43" y1="1226.13" x2="1009.43" y2="1428.41" gradientUnits="userSpaceOnUse">
<stop stop-color="#4F748F"/>
<stop offset="1" stop-color="#415E73"/>
</linearGradient>
<linearGradient id="paint43_linear" x1="1048.43" y1="1184.8" x2="1048.43" y2="1387.13" gradientUnits="userSpaceOnUse">
<stop stop-color="#4F748F"/>
<stop offset="1" stop-color="#415E73"/>
</linearGradient>
<linearGradient id="paint44_linear" x1="54043.6" y1="1281.02" x2="54043.6" y2="1483.48" gradientUnits="userSpaceOnUse">
<stop stop-color="#76ACD4"/>
<stop offset="1" stop-color="#6897B8"/>
</linearGradient>
<linearGradient id="paint45_linear" x1="54118.2" y1="1237.3" x2="54118.2" y2="1439.58" gradientUnits="userSpaceOnUse">
<stop stop-color="#76ACD4"/>
<stop offset="1" stop-color="#6897B8"/>
</linearGradient>
<linearGradient id="paint46_linear" x1="54063.3" y1="1195.39" x2="54063.3" y2="1397.48" gradientUnits="userSpaceOnUse">
<stop stop-color="#76ACD4"/>
<stop offset="1" stop-color="#6897B8"/>
</linearGradient>
<linearGradient id="paint47_linear" x1="54064" y1="991.239" x2="54064" y2="1193.28" gradientUnits="userSpaceOnUse">
<stop stop-color="#76ACD4"/>
<stop offset="1" stop-color="#6897B8"/>
</linearGradient>
<linearGradient id="paint48_linear" x1="54098.9" y1="801.419" x2="54098.9" y2="1003.63" gradientUnits="userSpaceOnUse">
<stop stop-color="#76ACD4"/>
<stop offset="1" stop-color="#6897B8"/>
</linearGradient>
<linearGradient id="paint49_linear" x1="787.336" y1="1064.56" x2="787.336" y2="1266.65" gradientUnits="userSpaceOnUse">
<stop stop-color="#4F748F"/>
<stop offset="1" stop-color="#415E73"/>
</linearGradient>
<linearGradient id="paint50_linear" x1="1051.22" y1="783.973" x2="1051.22" y2="986.386" gradientUnits="userSpaceOnUse">
<stop stop-color="#4F748F"/>
<stop offset="1" stop-color="#415E73"/>
</linearGradient>
<linearGradient id="paint51_linear" x1="1049.37" y1="593.486" x2="1049.37" y2="795.693" gradientUnits="userSpaceOnUse">
<stop stop-color="#4F748F"/>
<stop offset="1" stop-color="#415E73"/>
</linearGradient>
<linearGradient id="paint52_linear" x1="609.148" y1="1059.59" x2="609.148" y2="1261.68" gradientUnits="userSpaceOnUse">
<stop stop-color="#4F748F"/>
<stop offset="1" stop-color="#415E73"/>
</linearGradient>
<linearGradient id="paint53_linear" x1="970.871" y1="1050" x2="970.871" y2="1252.21" gradientUnits="userSpaceOnUse">
<stop stop-color="#4F748F"/>
<stop offset="1" stop-color="#415E73"/>
</linearGradient>
<linearGradient id="paint54_linear" x1="1009.43" y1="1006.65" x2="1009.43" y2="1208.86" gradientUnits="userSpaceOnUse">
<stop stop-color="#4F748F"/>
<stop offset="1" stop-color="#415E73"/>
</linearGradient>
<linearGradient id="paint55_linear" x1="1048.43" y1="965.113" x2="1048.43" y2="1167.27" gradientUnits="userSpaceOnUse">
<stop stop-color="#4F748F"/>
<stop offset="1" stop-color="#415E73"/>
</linearGradient>
<linearGradient id="paint56_linear" x1="54043.6" y1="1060.85" x2="54043.6" y2="1262.94" gradientUnits="userSpaceOnUse">
<stop stop-color="#76ACD4"/>
<stop offset="1" stop-color="#6897B8"/>
</linearGradient>
<linearGradient id="paint57_linear" x1="54118.3" y1="1018.24" x2="54118.3" y2="1220.71" gradientUnits="userSpaceOnUse">
<stop stop-color="#76ACD4"/>
<stop offset="1" stop-color="#6897B8"/>
</linearGradient>
<linearGradient id="paint58_linear" x1="54063.3" y1="976.362" x2="54063.3" y2="1178.57" gradientUnits="userSpaceOnUse">
<stop stop-color="#76ACD4"/>
<stop offset="1" stop-color="#6897B8"/>
</linearGradient>
<linearGradient id="paint59_linear" x1="54064" y1="772.223" x2="54064" y2="974.43" gradientUnits="userSpaceOnUse">
<stop stop-color="#76ACD4"/>
<stop offset="1" stop-color="#6897B8"/>
</linearGradient>
<linearGradient id="paint60_linear" x1="54098.9" y1="582.355" x2="54098.9" y2="784.799" gradientUnits="userSpaceOnUse">
<stop stop-color="#76ACD4"/>
<stop offset="1" stop-color="#6897B8"/>
</linearGradient>
<linearGradient id="paint61_linear" x1="787.336" y1="848.014" x2="787.336" y2="1050.22" gradientUnits="userSpaceOnUse">
<stop stop-color="#4F748F"/>
<stop offset="1" stop-color="#415E73"/>
</linearGradient>
<linearGradient id="paint62_linear" x1="1051.22" y1="566.833" x2="1051.22" y2="768.953" gradientUnits="userSpaceOnUse">
<stop stop-color="#4F748F"/>
<stop offset="1" stop-color="#415E73"/>
</linearGradient>
<linearGradient id="paint63_linear" x1="1049.37" y1="376.869" x2="1049.37" y2="579.331" gradientUnits="userSpaceOnUse">
<stop stop-color="#4F748F"/>
<stop offset="1" stop-color="#415E73"/>
</linearGradient>
<linearGradient id="paint64_linear" x1="609.148" y1="843.09" x2="609.148" y2="1045.3" gradientUnits="userSpaceOnUse">
<stop stop-color="#4F748F"/>
<stop offset="1" stop-color="#415E73"/>
</linearGradient>
<linearGradient id="paint65_linear" x1="970.871" y1="833.549" x2="970.871" y2="1036.01" gradientUnits="userSpaceOnUse">
<stop stop-color="#4F748F"/>
<stop offset="1" stop-color="#415E73"/>
</linearGradient>
<linearGradient id="paint66_linear" x1="1009.43" y1="790.015" x2="1009.43" y2="992.29" gradientUnits="userSpaceOnUse">
<stop stop-color="#4F748F"/>
<stop offset="1" stop-color="#415E73"/>
</linearGradient>
<linearGradient id="paint67_linear" x1="1048.43" y1="748.586" x2="1048.43" y2="950.93" gradientUnits="userSpaceOnUse">
<stop stop-color="#4F748F"/>
<stop offset="1" stop-color="#415E73"/>
</linearGradient>
<linearGradient id="paint68_linear" x1="54043.6" y1="844.305" x2="54043.6" y2="1046.51" gradientUnits="userSpaceOnUse">
<stop stop-color="#76ACD4"/>
<stop offset="1" stop-color="#6897B8"/>
</linearGradient>
<linearGradient id="paint69_linear" x1="54118.2" y1="800.936" x2="54118.2" y2="1003.09" gradientUnits="userSpaceOnUse">
<stop stop-color="#76ACD4"/>
<stop offset="1" stop-color="#6897B8"/>
</linearGradient>
<linearGradient id="paint70_linear" x1="54063.3" y1="759.952" x2="54063.3" y2="962.414" gradientUnits="userSpaceOnUse">
<stop stop-color="#76ACD4"/>
<stop offset="1" stop-color="#6897B8"/>
</linearGradient>
<linearGradient id="paint71_linear" x1="54064" y1="555.742" x2="54064" y2="758.204" gradientUnits="userSpaceOnUse">
<stop stop-color="#76ACD4"/>
<stop offset="1" stop-color="#6897B8"/>
</linearGradient>
<linearGradient id="paint72_linear" x1="54098.9" y1="365.279" x2="54098.9" y2="567.486" gradientUnits="userSpaceOnUse">
<stop stop-color="#76ACD4"/>
<stop offset="1" stop-color="#6897B8"/>
</linearGradient>
<linearGradient id="paint73_linear" x1="477.356" y1="56.5519" x2="477.356" y2="65.9879" gradientUnits="userSpaceOnUse">
<stop stop-color="#606060"/>
<stop offset="1" stop-color="#181818"/>
</linearGradient>
<linearGradient id="paint74_linear" x1="471.472" y1="57.7339" x2="471.763" y2="67.1871" gradientUnits="userSpaceOnUse">
<stop stop-color="#959595"/>
<stop offset="1" stop-color="#414141"/>
</linearGradient>
<linearGradient id="paint75_linear" x1="603.633" y1="155.721" x2="603.633" y2="183.149" gradientUnits="userSpaceOnUse">
<stop stop-color="#606060"/>
<stop offset="1" stop-color="#181818"/>
</linearGradient>
<linearGradient id="paint76_linear" x1="587.85" y1="158.838" x2="589.267" y2="186.14" gradientUnits="userSpaceOnUse">
<stop stop-color="#959595"/>
<stop offset="1" stop-color="#414141"/>
</linearGradient>
<linearGradient id="paint77_linear" x1="567.664" y1="183.743" x2="567.664" y2="211.118" gradientUnits="userSpaceOnUse">
<stop stop-color="#606060"/>
<stop offset="1" stop-color="#181818"/>
</linearGradient>
<linearGradient id="paint78_linear" x1="551.411" y1="186.852" x2="552.817" y2="214.154" gradientUnits="userSpaceOnUse">
<stop stop-color="#959595"/>
<stop offset="1" stop-color="#414141"/>
</linearGradient>
<linearGradient id="paint79_linear" x1="347.425" y1="237.419" x2="347.425" y2="245.49" gradientUnits="userSpaceOnUse">
<stop stop-color="#D58C57"/>
<stop offset="1" stop-color="#F2B897"/>
</linearGradient>
<linearGradient id="paint80_linear" x1="367.785" y1="265.995" x2="348.514" y2="256.183" gradientUnits="userSpaceOnUse">
<stop stop-color="#0D1363"/>
<stop offset="1" stop-color="#090D47"/>
</linearGradient>
<clipPath id="clip0">
<rect width="274.344" height="299.525" fill="white" transform="translate(383.318 32.8081)"/>
</clipPath>
</defs>
</svg>
